<?xml version="1.0" encoding="utf-8"?>
<!-- Generator: Adobe Illustrator 26.0.1, SVG Export Plug-In . SVG Version: 6.00 Build 0)  -->
<svg version="1.1" id="Layer_1" xmlns="http://www.w3.org/2000/svg" xmlns:xlink="http://www.w3.org/1999/xlink" x="0px" y="0px"
	 viewBox="0 0 100 113.92" style="enable-background:new 0 0 100 113.92;" xml:space="preserve">
<style type="text/css">
	.st0{fill:#007890;}
	.st1{fill:#DBDBDB;}
	.st2{fill:#6D6E71;}
</style>
<g>
	<g>
		<path class="st0" d="M88.62,27.92c6.04,0.4,11.38,4.85,11.38,13.07c0,9.9-7.92,16.63-21.78,16.63c-11.78,0-20.39-4.95-23.06-15.64
			l13.86-3.76c1.09,3.96,3.76,6.14,8.51,6.14c4.65,0,7.23-2.28,7.23-5.64c0-3.46-2.77-5.15-6.83-5.15h-6.43V22.67h5.74
			c4.36,0,6.83-2.18,6.83-5.15c0-2.97-2.38-4.95-6.53-4.95c-4.55,0-6.83,2.38-7.23,5.25l-14.06-3.66C59.02,3.17,68.52,0,78.82,0
			c13.46,0,20.59,5.25,20.59,14.55c0,9.21-6.73,12.57-10.79,12.97V27.92z"/>
		<path class="st0" d="M65.94,79.1V58.79H54.84v7.3l11.01,15.54C65.91,80.82,65.94,79.98,65.94,79.1z"/>
		<polygon class="st0" points="100,87.82 79.76,87.82 79.76,82.62 93.39,82.62 93.39,73.9 79.76,73.9 79.76,69.12 99.65,69.12 
			99.65,58.79 68.65,58.79 68.65,84.21 78.53,98.15 100,98.15 		"/>
		<polygon class="st0" points="53.2,56.99 53.2,17.63 42.02,17.63 42.02,31.55 42.02,39 41.81,39 26.42,17.63 20.5,17.63 
			48.39,56.99 		"/>
		<g>
			<path class="st1" d="M0,33.89h11.11v27.53H0V33.89z"/>
			<path class="st1" d="M0,63.23h11.11v29.03H28.4v10.33H0V63.23z"/>
			<path class="st1" d="M54.84,70.52v14.07c0,6.12-2.67,8.58-7.59,8.58c-4.92,0-7.59-2.46-7.59-8.58V63.23H28.34v20.31
				c0,13.85,7.66,19.82,18.84,19.82c10.34,0,17.78-5.24,18.67-17.29L54.84,70.52z"/>
			<path class="st1" d="M20.5,22.07h-5.61v39.36H26V48c0-4.5-0.07-8.65-0.07-8.72h0.28l15.32,22.14h6.86L20.5,22.07z"/>
		</g>
		<rect y="22.07" class="st0" width="11.11" height="10.12"/>
	</g>
	<g>
		<path class="st2" d="M0,106.19h2.11v7.58H0V106.19z"/>
		<path class="st2" d="M4.65,106.19h1.96l3.12,4.01v-4.01h2.08v7.58H9.96l-3.24-4.16v4.16H4.65V106.19z"/>
		<path class="st2" d="M14.29,106.19h3.89c0.95,0,1.62,0.24,2.07,0.68c0.3,0.3,0.49,0.7,0.49,1.22v0.02c0,0.88-0.5,1.4-1.17,1.69
			c0.92,0.3,1.51,0.82,1.51,1.85v0.02c0,1.3-1.06,2.09-2.87,2.09h-3.91V106.19z M17.66,109.21c0.64,0,1-0.22,1-0.66v-0.02
			c0-0.41-0.33-0.65-0.95-0.65h-1.36v1.33H17.66z M17.97,112.08c0.64,0,1.01-0.25,1.01-0.69v-0.02c0-0.41-0.33-0.68-1.03-0.68h-1.6
			v1.4H17.97z"/>
		<path class="st2" d="M23.19,106.19h2.1v5.74h3.67v1.84h-5.77V106.19z"/>
		<path class="st2" d="M30.69,110.44v-4.26h2.13v4.21c0,1.09,0.55,1.61,1.4,1.61c0.84,0,1.4-0.5,1.4-1.56v-4.27h2.13v4.2
			c0,2.45-1.4,3.52-3.55,3.52C32.04,113.91,30.69,112.82,30.69,110.44z"/>
		<path class="st2" d="M40.14,106.19h6.1v1.79h-4.02v1.15h3.64v1.66h-3.64v1.2h4.07v1.79h-6.15V106.19z"/>
		<path class="st2" d="M52.66,106.19h2.92c2.71,0,4.28,1.56,4.28,3.75v0.02c0,2.19-1.59,3.81-4.32,3.81h-2.88V106.19z M55.62,111.91
			c1.26,0,2.09-0.69,2.09-1.92v-0.02c0-1.21-0.83-1.92-2.09-1.92h-0.86v3.86H55.62z"/>
		<path class="st2" d="M62.1,106.19h6.1v1.79h-4.02v1.15h3.64v1.66h-3.64v1.2h4.07v1.79H62.1V106.19z"/>
		<path class="st2" d="M69.89,112.64l1.17-1.4c0.75,0.6,1.58,0.91,2.46,0.91c0.56,0,0.87-0.19,0.87-0.52v-0.02
			c0-0.31-0.25-0.49-1.28-0.73c-1.61-0.37-2.86-0.82-2.86-2.38v-0.02c0-1.41,1.12-2.43,2.93-2.43c1.29,0,2.3,0.35,3.12,1.01
			l-1.05,1.48c-0.69-0.49-1.45-0.75-2.12-0.75c-0.51,0-0.76,0.22-0.76,0.49v0.02c0,0.35,0.26,0.5,1.31,0.74
			c1.74,0.38,2.83,0.94,2.83,2.36v0.02c0,1.55-1.22,2.47-3.07,2.47C72.1,113.9,70.82,113.48,69.89,112.64z"/>
		<path class="st2" d="M78.72,106.19h2.11v7.58h-2.11V106.19z"/>
		<path class="st2" d="M83.1,110v-0.02c0-2.21,1.73-3.94,4.08-3.94c1.33,0,2.27,0.41,3.08,1.1l-1.23,1.48
			c-0.54-0.46-1.08-0.72-1.83-0.72c-1.09,0-1.94,0.92-1.94,2.08v0.02c0,1.22,0.86,2.1,2.06,2.1c0.51,0,0.9-0.11,1.21-0.31v-0.92
			h-1.49v-1.54h3.49v3.41c-0.8,0.66-1.92,1.17-3.29,1.17C84.87,113.92,83.1,112.3,83.1,110z"/>
		<path class="st2" d="M92.84,106.19h1.96l3.12,4.01v-4.01H100v7.58h-1.84l-3.24-4.16v4.16h-2.08V106.19z"/>
	</g>
</g>
</svg>
