<?xml version="1.0" encoding="utf-8"?>
<!-- Generator: Adobe Illustrator 26.0.3, SVG Export Plug-In . SVG Version: 6.00 Build 0)  -->
<svg version="1.1" id="Layer_1" xmlns="http://www.w3.org/2000/svg" xmlns:xlink="http://www.w3.org/1999/xlink" x="0px" y="0px"
	 viewBox="0 0 600 254.9" style="enable-background:new 0 0 600 254.9;" xml:space="preserve">
<style type="text/css">
	.st0{fill:#6F7271;}
	.st1{fill:#9D1D96;}
	.st2{fill:#672F25;}
	.st3{fill:none;stroke:#FFFFFF;stroke-width:0.5;stroke-miterlimit:10;stroke-dasharray:1,1;}
	.st4{fill:#BFB800;}
</style>
<path class="st0" d="M72.2,98.1H43.6V78.5H123v19.6H94.4v80.8H72.2V98.1z"/>
<path class="st1" d="M153.4,161.8l16.1,17.1h-19.7l-6-6.8c-5.9,6.1-12.7,8.7-21.2,8.7c-13.1,0-25.6-7.1-25.6-21.6
	c0-9.3,6.7-16.8,15.3-19.7c-4.7-5.1-8-9.1-8-16.2c0-13.1,11-18.4,22.6-18.4c11.1,0,21,5.6,21,17.8c0,8.6-6.1,15-13.4,18.8l9.3,9.9
	l7-9.6h17.8L153.4,161.8z M121.8,148.1c-4,2.5-8.3,4.9-8.3,10.3c0,5.3,4.7,8.9,9.7,8.9c4.7,0,8-2.3,11.3-5.3L121.8,148.1z
	 M119.6,123.8c0,3.6,3.6,6.8,6,9.1c3.2-1.8,8.2-5.2,8.2-9.3c0-4.2-3.3-6.5-7.1-6.5C122.7,117,119.6,119.7,119.6,123.8z"/>
<path class="st0" d="M203.2,78.5h18.3l43.7,100.4h-25l-8.7-21.3h-39l-8.4,21.3h-24.4L203.2,78.5z M211.7,107.7l-12.2,31.2h24.5
	L211.7,107.7z"/>
<path class="st0" d="M318.7,103c-3.5-4.5-10.6-6.7-16-6.7c-6.2,0-14.9,2.8-14.9,10.4c0,18.3,46.2,6.5,46.2,41.7
	c0,22.4-18,33-38.7,33c-12.9,0-24.3-3.8-33.8-12.6l15.7-17.3c4.5,6,11.9,9.5,19.3,9.5c7.2,0,15.3-3.4,15.3-10.5
	c0-18.4-47.1-8.5-47.1-42c0-21.4,18.6-32.6,38.3-32.6c11.3,0,22.3,3,30.8,10.5L318.7,103z"/>
<polygon class="st2" points="159.8,178.9 169.6,178.9 162.9,171.8 "/>
<rect x="-0.2" y="0" class="st3" width="600" height="254.9"/>
<path class="st4" d="M356.6,178.9l0-101.9c0-5.5,2.9-10.7,7.7-13.5c4.8-2.8,10.7-2.9,15.5-0.2l91.9,50.9c5,2.8,8.1,8,8.1,13.7
	c0,5.7-3.1,10.9-8.1,13.7l-91.9,50.9c-4.8,2.7-10.7,2.6-15.5-0.2C359.6,189.6,356.6,184.5,356.6,178.9z"/>
<path class="st1" d="M402.7,191.7l0-127.3c0-6.9,3.7-13.3,9.6-16.8c6-3.5,13.3-3.6,19.4-0.3l114.9,63.7c6.2,3.4,10.1,10,10.1,17.1
	c0,7.1-3.9,13.6-10.1,17.1l-114.9,63.7c-6.1,3.4-13.4,3.3-19.4-0.3S402.7,198.6,402.7,191.7z"/>
<path class="st2" d="M471.8,114.3l-69-38.3v103.9l69-38.3c5-2.8,8.1-8,8.1-13.7C479.8,122.3,476.7,117.1,471.8,114.3z"/>
</svg>
