<?xml version="1.0" encoding="utf-8"?>
<!-- Generator: Adobe Illustrator 26.0.3, SVG Export Plug-In . SVG Version: 6.00 Build 0)  -->
<svg version="1.1" id="Layer_1" xmlns="http://www.w3.org/2000/svg" xmlns:xlink="http://www.w3.org/1999/xlink" x="0px" y="0px"
	 viewBox="0 0 600 320.3" style="enable-background:new 0 0 600 320.3;" xml:space="preserve">
<style type="text/css">
	.st0{fill:none;stroke:#BFB800;stroke-miterlimit:10;}
	.st1{fill:none;stroke:#A6A8AB;stroke-width:0.5;stroke-miterlimit:10;stroke-dasharray:1,1;}
	.st2{fill:none;stroke:#A6A8AB;stroke-width:0.5;stroke-miterlimit:10;}
	.st3{fill:none;stroke:#A6A8AB;stroke-width:0.5;stroke-miterlimit:10;stroke-dasharray:1.0026,1.0026;}
	.st4{fill:none;stroke:#9D1D96;stroke-miterlimit:10;}
	.st5{fill:none;stroke:#231F20;stroke-width:0.25;stroke-miterlimit:10;}
	.st6{fill:none;stroke:#EC1C24;stroke-width:0.5;stroke-miterlimit:10;stroke-dasharray:1,1;}
	.st7{fill:none;stroke:#808184;stroke-miterlimit:10;}
	.st8{fill:#808184;}
	.st9{fill:#231F20;}
	.st10{font-family:'Exo-Medium';}
	.st11{font-size:11.2887px;}
	.st12{fill:#A6A8AB;}
	.st13{opacity:0.6;}
	.st14{font-size:9.4072px;}
	.st15{fill:none;stroke:#231F20;stroke-width:0.5;stroke-miterlimit:10;}
	.st16{fill:#BFB800;}
	.st17{fill:#9D1D96;}
	.st18{fill:#58120F;}
</style>
<g>
	<path class="st0" d="M426.4,118.5l0-88.2c0-4.8,2.5-9.2,6.7-11.7c4.1-2.4,9.2-2.5,13.4-0.2L526,62.6c4.3,2.4,7,6.9,7,11.8
		c0,4.9-2.7,9.5-7,11.8l-79.6,44.1c-4.2,2.3-9.3,2.3-13.4-0.2C428.9,127.7,426.4,123.3,426.4,118.5z"/>
	<line class="st1" x1="426.4" y1="74.4" x2="533" y2="74.4"/>
	<line class="st1" x1="486.3" y1="40.5" x2="433" y2="130.2"/>
	<g>
		<g>
			<line class="st2" x1="486.3" y1="108.3" x2="486" y2="107.8"/>
			<line class="st3" x1="485.5" y1="107" x2="433.5" y2="19.5"/>
			<line class="st2" x1="433.3" y1="19.1" x2="433" y2="18.6"/>
		</g>
	</g>
	<path class="st4" d="M466.3,129.5l0-110.3c0-6,3.2-11.5,8.3-14.6c5.2-3,11.5-3.1,16.8-0.2l99.5,55.1c5.4,3,8.7,8.6,8.7,14.8
		c0,6.2-3.3,11.8-8.7,14.8l-99.5,55.1c-5.2,2.9-11.6,2.8-16.8-0.2C469.4,141.1,466.3,135.5,466.3,129.5z"/>
	<line class="st1" x1="466.3" y1="74.4" x2="599.6" y2="74.4"/>
	<line class="st1" x1="541.1" y1="32" x2="474.6" y2="144.1"/>
	<line class="st1" x1="541.1" y1="116.7" x2="474.6" y2="4.7"/>
	<g>
		<path class="st5" d="M212.9,132l0-88.2c0-4.8,2.5-9.2,6.7-11.7c4.1-2.4,9.2-2.5,13.4-0.2l79.6,44.1c4.3,2.4,7,6.9,7,11.8
			c0,4.9-2.7,9.5-7,11.8L233,143.9c-4.2,2.3-9.3,2.3-13.4-0.2C215.4,141.3,212.9,136.8,212.9,132z"/>
		<line class="st1" x1="272.8" y1="54.1" x2="219.6" y2="143.7"/>
		<line class="st1" x1="272.8" y1="121.8" x2="219.6" y2="32.2"/>
		<line class="st6" x1="212.9" y1="87.9" x2="319.6" y2="87.9"/>
	</g>
	<g>
		<g>
			<line class="st7" x1="532.9" y1="153.3" x2="426.8" y2="153.3"/>
			<g>
				<rect x="532.4" y="150.1" class="st8" width="1" height="6.5"/>
			</g>
			<g>
				<rect x="426.3" y="150.1" class="st8" width="1" height="6.5"/>
			</g>
		</g>
	</g>
	<text transform="matrix(1 0 0 1 476.837 163.8802)" class="st9 st10 st11">x</text>
	<g>
		<g>
			<line class="st7" x1="336.7" y1="21.3" x2="336.7" y2="127.5"/>
			<g>
				<rect x="333.4" y="20.8" class="st8" width="6.5" height="1"/>
			</g>
			<g>
				<rect x="333.4" y="127" class="st8" width="6.5" height="1"/>
			</g>
		</g>
	</g>
	<text transform="matrix(1 0 0 1 338.7471 77.4109)" class="st9 st10 st11">x</text>
	<g>
		<g>
			<line class="st7" x1="599.5" y1="168.5" x2="467" y2="168.5"/>
			<g>
				<rect x="599" y="165.3" class="st8" width="1" height="6.5"/>
			</g>
			<g>
				<rect x="466.5" y="165.3" class="st8" width="1" height="6.5"/>
			</g>
		</g>
	</g>
	<text transform="matrix(1 0 0 1 522.0733 179.1165)" class="st9 st10 st11">x¼x</text>
	<g>
		<path class="st2" d="M247.2,91.2c-1.8-3.1-0.8-7.1,2.3-8.9s7.1-0.8,8.9,2.3c0.6,1,0.9,2.2,0.9,3.3"/>
		<g>
			<g>
				<path class="st1" d="M239,95.7c-4.2-7.5-1.7-17.1,5.8-21.4c7.5-4.4,17.2-1.9,21.7,5.7c1.4,2.3,2.1,4.9,2.2,7.4"/>
				<g>
					
						<rect x="237.4" y="95.5" transform="matrix(0.8872 -0.4613 0.4613 0.8872 -17.1993 121.0685)" class="st12" width="3.3" height="0.5"/>
				</g>
				<g>
					<polygon class="st12" points="267.7,86.4 268.6,87.2 269.4,86.3 269.4,87 268.7,87.9 267.8,87.1 					"/>
				</g>
			</g>
		</g>
	</g>
	<g class="st13">
		<path class="st5" d="M296.9,127.7l-88.2,0c-4.8,0-9.2-2.5-11.7-6.7c-2.4-4.1-2.5-9.2-0.2-13.4L241,28c2.4-4.3,6.9-7,11.8-7
			c4.9,0,9.5,2.7,11.8,7l44.1,79.6c2.3,4.2,2.3,9.3-0.2,13.4C306.2,125.2,301.7,127.7,296.9,127.7z"/>
		<line class="st1" x1="252.8" y1="127.7" x2="252.8" y2="21.1"/>
		<line class="st1" x1="218.9" y1="67.8" x2="308.6" y2="121.1"/>
		<line class="st6" x1="286.7" y1="67.8" x2="197.1" y2="121.1"/>
	</g>
	<text transform="matrix(1 0 0 1 269.1182 79.7181)"><tspan x="0" y="0" class="st9 st10 st14">210</tspan><tspan x="15" y="0" class="st9 st10 st11">°</tspan></text>
	<g>
		<g>
			<line class="st7" x1="126.1" y1="21.3" x2="126.1" y2="127.5"/>
			<g>
				<rect x="122.9" y="20.8" class="st8" width="6.5" height="1"/>
			</g>
			<g>
				<rect x="122.9" y="127" class="st8" width="6.5" height="1"/>
			</g>
		</g>
	</g>
	<text transform="matrix(1 0 0 1 128.2325 77.4109)" class="st9 st10 st11">x</text>
	<g class="st13">
		<path class="st15" d="M101.7,127.7l-88.2,0c-4.8,0-9.2-2.5-11.7-6.7c-2.4-4.1-2.5-9.2-0.2-13.4L45.8,28c2.4-4.3,6.9-7,11.8-7
			c4.9,0,9.5,2.7,11.8,7l44.1,79.6c2.3,4.2,2.3,9.3-0.2,13.4C111,125.2,106.5,127.7,101.7,127.7z"/>
		<line class="st1" x1="57.6" y1="127.7" x2="57.6" y2="21.1"/>
		<line class="st1" x1="23.8" y1="67.8" x2="113.4" y2="121.1"/>
		<line class="st1" x1="91.5" y1="67.8" x2="1.9" y2="121.1"/>
	</g>
</g>
<g>
	<path class="st16" d="M213.4,289.4l0-88.2c0-4.8,2.5-9.2,6.7-11.7c4.1-2.4,9.2-2.5,13.4-0.2l79.6,44.1c4.3,2.4,7,6.9,7,11.8
		c0,4.9-2.7,9.5-7,11.8l-79.6,44.1c-4.2,2.3-9.3,2.3-13.4-0.2S213.4,294.2,213.4,289.4z"/>
	<path class="st17" d="M253.3,300.5l0-110.3c0-6,3.2-11.5,8.3-14.6c5.2-3,11.5-3.1,16.8-0.2l99.5,55.1c5.4,3,8.7,8.6,8.7,14.8
		c0,6.2-3.3,11.8-8.7,14.8l-99.5,55.1c-5.2,2.9-11.6,2.8-16.8-0.2C256.5,312,253.3,306.5,253.3,300.5z"/>
	<path class="st18" d="M313.1,233.5l-59.8-33.1l0,89.9l59.8-33.1c4.3-2.4,7-6.9,7-11.8C320,240.4,317.4,235.9,313.1,233.5z"/>
</g>
</svg>
