<?xml version="1.0" encoding="utf-8"?>
<!-- Generator: Adobe Illustrator 26.0.3, SVG Export Plug-In . SVG Version: 6.00 Build 0)  -->
<svg version="1.1" id="Layer_1" xmlns="http://www.w3.org/2000/svg" xmlns:xlink="http://www.w3.org/1999/xlink" x="0px" y="0px"
	 viewBox="0 0 600 254.9" style="enable-background:new 0 0 600 254.9;" xml:space="preserve">
<style type="text/css">
	.st0{opacity:0.2;fill:#6F7271;}
	.st1{fill:none;stroke:#6F7271;stroke-miterlimit:10;}
	.st2{opacity:0.2;fill:#9D1D96;}
	.st3{fill:none;stroke:#9D1D96;stroke-miterlimit:10;}
	.st4{opacity:0.2;fill:#672F25;}
	.st5{fill:none;stroke:#672F25;stroke-miterlimit:10;}
	.st6{opacity:0.2;fill:#BFB800;}
	.st7{fill:none;stroke:#BFB800;stroke-miterlimit:10;}
	.st8{fill:#211E1F;}
	.st9{font-family:'Exo-Medium';}
	.st10{font-size:12.8374px;}
	.st11{fill:none;stroke:#808082;stroke-miterlimit:10;}
	.st12{fill:#808082;}
	.st13{fill:none;stroke:#A5A6A9;stroke-width:0.5;stroke-miterlimit:10;stroke-dasharray:1,1;}
	.st14{fill:#A5A6A9;}
	.st15{fill:none;stroke:#A6A8AB;stroke-width:0.5;stroke-miterlimit:10;}
	.st16{fill:none;stroke:#A6A8AB;stroke-width:0.5;stroke-miterlimit:10;stroke-dasharray:1,1;}
</style>
<g>
	<g>
		<g>
			<path class="st0" d="M72.5,98.1H43.8V78.5h79.4v19.6H94.6v80.8H72.5V98.1z"/>
			<path class="st1" d="M72.5,98.1H43.8V78.5h79.4v19.6H94.6v80.8H72.5V98.1z"/>
			<path class="st2" d="M153.7,161.9l16.1,17.1h-19.7l-6-6.8c-5.9,6.1-12.7,8.7-21.2,8.7c-13.1,0-25.6-7.1-25.6-21.6
				c0-9.3,6.7-16.8,15.3-19.7c-4.7-5.1-8-9.1-8-16.2c0-13.1,11-18.4,22.6-18.4c11.1,0,21,5.6,21,17.8c0,8.6-6.1,15-13.4,18.8
				l9.3,9.9l7-9.6h17.8L153.7,161.9z M122,148.1c-4,2.5-8.3,4.9-8.3,10.3c0,5.3,4.7,8.9,9.7,8.9c4.7,0,8-2.3,11.3-5.3L122,148.1z
				 M119.9,123.8c0,3.6,3.6,6.8,6,9.1c3.2-1.8,8.2-5.2,8.2-9.3c0-4.2-3.3-6.5-7.1-6.5C122.9,117.1,119.9,119.7,119.9,123.8z"/>
			<path class="st3" d="M153.7,161.9l16.1,17.1h-19.7l-6-6.8c-5.9,6.1-12.7,8.7-21.2,8.7c-13.1,0-25.6-7.1-25.6-21.6
				c0-9.3,6.7-16.8,15.3-19.7c-4.7-5.1-8-9.1-8-16.2c0-13.1,11-18.4,22.6-18.4c11.1,0,21,5.6,21,17.8c0,8.6-6.1,15-13.4,18.8
				l9.3,9.9l7-9.6h17.8L153.7,161.9z M122,148.1c-4,2.5-8.3,4.9-8.3,10.3c0,5.3,4.7,8.9,9.7,8.9c4.7,0,8-2.3,11.3-5.3L122,148.1z
				 M119.9,123.8c0,3.6,3.6,6.8,6,9.1c3.2-1.8,8.2-5.2,8.2-9.3c0-4.2-3.3-6.5-7.1-6.5C122.9,117.1,119.9,119.7,119.9,123.8z"/>
			<path class="st0" d="M203.4,78.5h18.3l43.7,100.4h-25l-8.7-21.3h-39l-8.4,21.3H160L203.4,78.5z M212,107.7l-12.2,31.2h24.5
				L212,107.7z"/>
			<path class="st1" d="M203.4,78.5h18.3l43.7,100.4h-25l-8.7-21.3h-39l-8.4,21.3H160L203.4,78.5z M212,107.7l-12.2,31.2h24.5
				L212,107.7z"/>
			<path class="st0" d="M318.9,103.1c-3.5-4.5-10.6-6.7-16-6.7c-6.2,0-14.9,2.8-14.9,10.4c0,18.3,46.2,6.5,46.2,41.7
				c0,22.4-18,33-38.7,33c-12.9,0-24.3-3.8-33.8-12.6l15.7-17.3c4.5,6,11.9,9.5,19.3,9.5c7.2,0,15.3-3.4,15.3-10.5
				c0-18.4-47.1-8.5-47.1-42c0-21.4,18.6-32.6,38.3-32.6c11.3,0,22.3,3,30.8,10.5L318.9,103.1z"/>
			<path class="st1" d="M318.9,103.1c-3.5-4.5-10.6-6.7-16-6.7c-6.2,0-14.9,2.8-14.9,10.4c0,18.3,46.2,6.5,46.2,41.7
				c0,22.4-18,33-38.7,33c-12.9,0-24.3-3.8-33.8-12.6l15.7-17.3c4.5,6,11.9,9.5,19.3,9.5c7.2,0,15.3-3.4,15.3-10.5
				c0-18.4-47.1-8.5-47.1-42c0-21.4,18.6-32.6,38.3-32.6c11.3,0,22.3,3,30.8,10.5L318.9,103.1z"/>
		</g>
		<polygon class="st4" points="160,178.9 169.8,178.9 163.1,171.9 		"/>
		<polygon class="st5" points="160,178.9 169.8,178.9 163.1,171.9 		"/>
	</g>
	<g>
		<path class="st2" d="M403,191.7l0-127.3c0-6.9,3.7-13.3,9.6-16.8c6-3.5,13.3-3.6,19.4-0.3L546.8,111c6.2,3.4,10.1,10,10.1,17.1
			c0,7.1-3.9,13.6-10.1,17.1L432,208.8c-6.1,3.4-13.4,3.3-19.4-0.3S403,198.6,403,191.7z"/>
		<path class="st3" d="M403,191.7l0-127.3c0-6.9,3.7-13.3,9.6-16.8c6-3.5,13.3-3.6,19.4-0.3L546.8,111c6.2,3.4,10.1,10,10.1,17.1
			c0,7.1-3.9,13.6-10.1,17.1L432,208.8c-6.1,3.4-13.4,3.3-19.4-0.3S403,198.6,403,191.7z"/>
	</g>
	<g>
		<path class="st6" d="M356.9,179l0-101.9c0-5.5,2.9-10.7,7.7-13.5c4.8-2.8,10.7-2.9,15.5-0.2l91.9,50.9c5,2.8,8.1,8,8.1,13.7
			c0,5.7-3.1,10.9-8.1,13.7l-91.9,50.9c-4.8,2.7-10.7,2.6-15.5-0.2C359.8,189.6,356.9,184.5,356.9,179z"/>
		<path class="st7" d="M356.9,179l0-101.9c0-5.5,2.9-10.7,7.7-13.5c4.8-2.8,10.7-2.9,15.5-0.2l91.9,50.9c5,2.8,8.1,8,8.1,13.7
			c0,5.7-3.1,10.9-8.1,13.7l-91.9,50.9c-4.8,2.7-10.7,2.6-15.5-0.2C359.8,189.6,356.9,184.5,356.9,179z"/>
	</g>
	<g>
		<text transform="matrix(1 0 0 1 566.9863 128.8739)" class="st8 st9 st10">y</text>
		<text transform="matrix(1 0 0 1 578.083 128.8739)" class="st8 st9 st10">¾y</text>
		<text transform="matrix(1 0 0 1 465.1953 248.4124)" class="st8 st9 st10">x¼x</text>
		<text transform="matrix(1 0 0 1 413.543 231.6683)" class="st8 st9 st10">x</text>
		<text transform="matrix(1 0 0 1 342.5352 200.5716)" class="st8 st9 st10">a</text>
		<text transform="matrix(1 0 0 1 80.2061 200.5716)" class="st8 st9 st10">a</text>
	</g>
	<g>
		<g>
			<g>
				<line class="st11" x1="575.9" y1="79" x2="575.9" y2="178.4"/>
				<g>
					<rect x="572.6" y="78.5" class="st12" width="6.5" height="1"/>
				</g>
				<g>
					<rect x="572.6" y="177.9" class="st12" width="6.5" height="1"/>
				</g>
			</g>
		</g>
		<g>
			<g>
				<line class="st11" x1="564" y1="44.3" x2="564" y2="210.6"/>
				<g>
					<rect x="560.8" y="43.8" class="st12" width="6.5" height="1"/>
				</g>
				<g>
					<rect x="560.8" y="210.1" class="st12" width="6.5" height="1"/>
				</g>
			</g>
		</g>
		<g>
			<g>
				<line class="st11" x1="556.4" y1="236.4" x2="403.5" y2="236.4"/>
				<g>
					<rect x="555.9" y="233.1" class="st12" width="1" height="6.5"/>
				</g>
				<g>
					<rect x="403" y="233.1" class="st12" width="1" height="6.5"/>
				</g>
			</g>
		</g>
		<g>
			<g>
				<line class="st11" x1="476.6" y1="219.6" x2="357.4" y2="219.6"/>
				<g>
					<rect x="476.1" y="216.4" class="st12" width="1" height="6.5"/>
				</g>
				<g>
					<rect x="356.9" y="216.4" class="st12" width="1" height="6.5"/>
				</g>
			</g>
		</g>
		<g>
			<g>
				<line class="st11" x1="356.4" y1="188.5" x2="334.4" y2="188.5"/>
				<g>
					<rect x="355.9" y="185.3" class="st12" width="1" height="6.5"/>
				</g>
				<g>
					<rect x="333.9" y="185.3" class="st12" width="1" height="6.5"/>
				</g>
			</g>
		</g>
		<g>
			<g>
				<line class="st11" x1="94" y1="188.5" x2="72.1" y2="188.5"/>
				<g>
					<rect x="93.5" y="185.3" class="st12" width="1" height="6.5"/>
				</g>
				<g>
					<rect x="71.6" y="185.3" class="st12" width="1" height="6.5"/>
				</g>
			</g>
		</g>
	</g>
	<g>
		<line class="st13" x1="43.8" y1="78.5" x2="556.9" y2="78.5"/>
		<line class="st13" x1="43.8" y1="128" x2="556.9" y2="128"/>
		<line class="st13" x1="43.8" y1="178.9" x2="556.9" y2="178.9"/>
		<g>
			<g>
				<line class="st13" x1="356.2" y1="44.1" x2="356.2" y2="211"/>
				<g>
					<rect x="354.6" y="43.8" class="st14" width="3.2" height="0.5"/>
				</g>
				<g>
					<rect x="354.6" y="210.7" class="st14" width="3.2" height="0.5"/>
				</g>
			</g>
		</g>
		<g>
			<g>
				<line class="st13" x1="333.9" y1="44.1" x2="333.9" y2="211"/>
				<g>
					<rect x="332.3" y="43.8" class="st14" width="3.2" height="0.5"/>
				</g>
				<g>
					<rect x="332.3" y="210.7" class="st14" width="3.2" height="0.5"/>
				</g>
			</g>
		</g>
		<g>
			<g>
				<line class="st13" x1="93.9" y1="44.1" x2="93.9" y2="211"/>
				<g>
					<rect x="92.3" y="43.8" class="st14" width="3.2" height="0.5"/>
				</g>
				<g>
					<rect x="92.3" y="210.7" class="st14" width="3.2" height="0.5"/>
				</g>
			</g>
		</g>
		<g>
			<g>
				<line class="st13" x1="71.6" y1="44.1" x2="71.6" y2="211"/>
				<g>
					<rect x="70" y="43.8" class="st14" width="3.2" height="0.5"/>
				</g>
				<g>
					<rect x="70" y="210.7" class="st14" width="3.2" height="0.5"/>
				</g>
			</g>
		</g>
	</g>
	<g>
		<rect x="43.8" y="43.8" class="st15" width="513.1" height="167.3"/>
		<rect y="0" class="st16" width="600" height="254.9"/>
	</g>
</g>
</svg>
