<?xml version="1.0" encoding="utf-8"?>
<!-- Generator: Adobe Illustrator 26.0.3, SVG Export Plug-In . SVG Version: 6.00 Build 0)  -->
<svg version="1.1" id="Layer_1" xmlns="http://www.w3.org/2000/svg" xmlns:xlink="http://www.w3.org/1999/xlink" x="0px" y="0px"
	 viewBox="0 0 600 255" style="enable-background:new 0 0 600 255;" xml:space="preserve">
<style type="text/css">
	.st0{opacity:0.1;fill:#A6A8AB;}
	.st1{fill:none;stroke:#808184;stroke-miterlimit:10;}
	.st2{fill:#808184;}
	.st3{fill:#231F20;}
	.st4{font-family:'Exo-Medium';}
	.st5{font-size:13.0262px;}
	.st6{fill:none;stroke:#6F7271;stroke-miterlimit:10;}
	.st7{fill:none;stroke:#9D1D96;stroke-miterlimit:10;}
	.st8{opacity:0.2;fill:#672F25;}
	.st9{fill:none;stroke:#672F25;stroke-miterlimit:10;}
	.st10{fill:none;stroke:#BFB800;stroke-miterlimit:10;}
	.st11{fill:none;stroke:#808184;stroke-width:0.25;stroke-miterlimit:10;}
	.st12{fill:none;stroke:#A6A8AB;stroke-width:0.5;stroke-miterlimit:10;}
	.st13{fill:none;stroke:#A6A8AB;stroke-width:0.5;stroke-miterlimit:10;stroke-dasharray:1,1;}
</style>
<g>
	<path class="st0" d="M556.9,210.9H44.2V43.8h512.7V210.9z M600,0H0.4v254.7H600V0z"/>
	<g>
		<g>
			<line class="st1" x1="43.7" y1="204.1" x2="0.5" y2="204.1"/>
			<g>
				<rect x="43.2" y="200.8" class="st2" width="1" height="6.5"/>
			</g>
			<g>
				<rect y="200.8" class="st2" width="1" height="6.5"/>
			</g>
		</g>
	</g>
	<g>
		<g>
			<line class="st1" x1="94.5" y1="65.8" x2="73.3" y2="65.8"/>
			<g>
				<rect x="94" y="62.5" class="st2" width="1" height="6.5"/>
			</g>
			<g>
				<rect x="72.8" y="62.5" class="st2" width="1" height="6.5"/>
			</g>
		</g>
	</g>
	<g>
		<g>
			<line class="st1" x1="50.6" y1="254.5" x2="50.6" y2="211.2"/>
			<g>
				<rect x="47.4" y="254" class="st2" width="6.5" height="1"/>
			</g>
			<g>
				<rect x="47.4" y="210.7" class="st2" width="6.5" height="1"/>
			</g>
		</g>
	</g>
	<text transform="matrix(1 0 0 1 15.0718 200.9508)" class="st3 st4 st5">2a</text>
	<text transform="matrix(1 0 0 1 80.5703 61.8688)" class="st3 st4 st5">a</text>
	<g>
		<g>
			<line class="st1" x1="599.5" y1="52" x2="556.7" y2="52"/>
			<g>
				<rect x="599" y="48.7" class="st2" width="1" height="6.5"/>
			</g>
			<g>
				<rect x="556.2" y="48.7" class="st2" width="1" height="6.5"/>
			</g>
		</g>
	</g>
	<text transform="matrix(1 0 0 1 572.6582 65.7599)" class="st3 st4 st5">2a</text>
	<text transform="matrix(1 0 0 1 52.8643 238.1139)" class="st3 st4 st5">2a</text>
	<g>
		<g>
			<line class="st1" x1="547.9" y1="44" x2="547.9" y2="0.5"/>
			<g>
				<rect x="544.7" y="43.5" class="st2" width="6.5" height="1"/>
			</g>
			<g>
				<rect x="544.7" y="0" class="st2" width="6.5" height="1"/>
			</g>
		</g>
	</g>
	<text transform="matrix(1 0 0 1 529.3994 27.4381)" class="st3 st4 st5">2a</text>
	<g>
		<g>
			<path class="st6" d="M72.8,98H44.2V78.5h79.4V98H95v80.8H72.8V98z"/>
			<path class="st7" d="M154,161.8l16.1,17h-19.7l-6-6.8c-5.9,6.1-12.7,8.7-21.2,8.7c-13.1,0-25.6-7.1-25.6-21.6
				c0-9.3,6.7-16.8,15.3-19.7c-4.7-5.1-8-9.1-8-16.2c0-13.1,11-18.4,22.6-18.4c11.1,0,21,5.6,21,17.8c0,8.6-6.1,15-13.4,18.8
				l9.3,9.9l7-9.6h17.8L154,161.8z M122.3,148c-4,2.4-8.3,4.9-8.3,10.3c0,5.3,4.7,8.9,9.7,8.9c4.7,0,8-2.3,11.3-5.3L122.3,148z
				 M120.2,123.7c0,3.6,3.6,6.8,6,9.1c3.2-1.8,8.2-5.2,8.2-9.3c0-4.2-3.3-6.5-7.1-6.5C123.3,117,120.2,119.6,120.2,123.7z"/>
			<path class="st6" d="M203.7,78.5H222l43.7,100.3h-24.9l-8.6-21.3h-39l-8.4,21.3h-24.4L203.7,78.5z M212.2,107.7L200,138.8h24.5
				L212.2,107.7z"/>
			<path class="st6" d="M319.1,103c-3.5-4.5-10.6-6.7-16-6.7c-6.2,0-14.9,2.8-14.9,10.3c0,18.3,46.2,6.5,46.2,41.7
				c0,22.4-18,33-38.7,33c-12.9,0-24.2-3.8-33.7-12.6l15.7-17.3c4.5,6,11.9,9.5,19.3,9.5c7.2,0,15.3-3.4,15.3-10.5
				c0-18.4-47.1-8.5-47.1-42c0-21.4,18.6-32.6,38.3-32.6c11.3,0,22.3,3,30.8,10.5L319.1,103z"/>
		</g>
		<polygon class="st8" points="160.4,178.8 170.1,178.8 163.4,171.7 		"/>
		<polygon class="st9" points="160.4,178.8 170.1,178.8 163.4,171.7 		"/>
	</g>
	<g>
		<path class="st7" d="M403.1,191.6l0-127.2c0-6.9,3.7-13.3,9.6-16.8c6-3.5,13.3-3.6,19.4-0.3l114.8,63.6c6.2,3.4,10.1,10,10.1,17.1
			c0,7.1-3.9,13.6-10.1,17.1l-114.8,63.6c-6,3.4-13.4,3.3-19.4-0.3C406.7,204.9,403.1,198.5,403.1,191.6z"/>
	</g>
	<g>
		<path class="st10" d="M357.1,178.8l0-101.8c0-5.5,2.9-10.7,7.7-13.5c4.8-2.8,10.7-2.9,15.5-0.2l91.8,50.9c5,2.8,8,8,8,13.7
			c0,5.7-3.1,10.9-8,13.7l-91.8,50.9c-4.8,2.7-10.7,2.6-15.5-0.2S357.1,184.4,357.1,178.8z"/>
	</g>
	<g>
		<polyline class="st11" points="44.2,0 44.2,43.8 0.4,43.8 		"/>
		<polyline class="st11" points="0.4,210.9 44.2,210.9 44.2,254.7 		"/>
		<polyline class="st11" points="600,43.8 556.2,43.8 556.2,0 		"/>
		<polyline class="st11" points="556.2,254.7 556.2,210.9 600,210.9 		"/>
	</g>
	<rect x="44.2" y="43.8" class="st12" width="512.7" height="167.2"/>
	<rect x="0.4" y="0" class="st13" width="599.6" height="254.7"/>
</g>
</svg>
