<?xml version="1.0" encoding="utf-8"?>
<!-- Generator: Adobe Illustrator 26.0.3, SVG Export Plug-In . SVG Version: 6.00 Build 0)  -->
<svg version="1.1" id="Layer_1" xmlns="http://www.w3.org/2000/svg" xmlns:xlink="http://www.w3.org/1999/xlink" x="0px" y="0px"
	 viewBox="0 0 600 314.5" style="enable-background:new 0 0 600 314.5;" xml:space="preserve">
<style type="text/css">
	.st0{fill:none;}
	.st1{fill:#C0D72F;}
	.st2{fill:#0055A3;}
</style>
<g id="marca_Filtros_Puro">
	<rect x="0.5" y="0.1" class="st0" width="600" height="314.5"/>
	<path id="SQUARES_3_" class="st1" d="M238.9,231.6h-5v10h5V231.6z M256.5,231.6h-5v10h5V231.6z M274.1,231.6h-5v10h5V231.6z"/>
	<g id="Puro">
		<path class="st2" d="M164.7,167.4c-6.6-3.1-14.9-4.6-24.8-4.6H51.6v98.7h51.1v-32.9h37.2c10,0,18.3-1.5,24.8-4.6
			c8.8-4,13.3-10.5,13.3-19.3v-17.9C178,178,173.6,171.6,164.7,167.4z M157.8,201.9c0,5.6-3.1,9.2-9.2,10.8c-2.9,0.8-8.2,1.2-16,1.2
			h-29.9v-36.4h26.8c8.9,0,14.8,0.3,17.6,0.9c7.1,1.6,10.7,5.3,10.7,11.1V201.9z"/>
		<path class="st2" d="M282.2,238.4c0,2.5-1.2,4.5-3.7,6.1c-2.4,1.5-5,2.3-7.6,2.3h-34c-2.5,0-5-0.8-7.5-2.4c-2.5-1.6-3.7-3.6-3.7-6
			v-75.6H182v74.7c0,15.1,13.6,23.1,38.9,23.9c20.3,0.7,31.4,1,33.3,1l48.3-1v-98.7h-20.3V238.4z"/>
		<path class="st2" d="M408.5,186.8c0-8.8-4.4-15.3-13.1-19.5c-6.5-3-14.9-4.5-25-4.5h-62.8v98.7h25.2l0.1-45.1h23.7
			c0.6,0,1.9,0,4,0c2.1,0,3.7,0,4.8,0c15.3,0,22.9,4.1,22.9,12.3v32.8h20.1v-34.3c0-5-1.3-9-3.9-12c-1.4-1.6-4.8-4.2-10.1-7.6
			C403.9,204.9,408.5,198,408.5,186.8z M379.5,200.8c-2.8,0.8-8.2,1.2-16.3,1.2H333v-24.5h27.3c9.5,0,15.4,0.2,17.7,0.7
			c7,1.4,10.5,5.2,10.5,11.2C388.4,195.3,385.5,199.1,379.5,200.8z"/>
		<path class="st2" d="M537,177.2c-13.6-11.9-31.7-17.9-54.3-17.9c-10.1,0-20.4,1.4-30.7,4.3c-11.8,3.3-21,7.8-27.6,13.6
			c-8.3,7.2-12.4,18.9-12.4,34.9c0,15.9,4.1,27.5,12.4,34.9c6.3,5.6,15.2,10.1,26.7,13.4c10.3,3,20.3,4.5,29.9,4.5
			c10.4,0,20.2-1.4,29.6-4.2c10.7-3.1,19.5-7.6,26.4-13.7c8.3-7.2,12.4-18.9,12.4-34.9C549.4,196.2,545.3,184.5,537,177.2z
			 M519.5,239.3c-6.4,6.8-15.3,10.2-26.6,10.2c-11.1,0-19.8-3.5-26.1-10.4c-6.4-6.9-9.5-15.9-9.5-27c0-11.5,3.2-20.6,9.7-27.3
			c6.4-6.6,15.4-10,27-10c11,0,19.6,3.4,25.8,10.3c6.3,6.9,9.4,15.9,9.4,26.9C529.2,223.4,526,232.4,519.5,239.3z"/>
	</g>
	<g id="Filtros">
		<path class="st1" d="M51.6,54.6h57.7v18.5H76.5V91h29.6v19.6H76.5v42.6H51.6V54.6z"/>
		<path class="st1" d="M130.3,54.5h25v98.7h-25V54.5z"/>
		<path class="st1" d="M182,54.5h24.9v79.1h29.6v19.6H182V54.5z"/>
		<path class="st1" d="M256.9,74.1h-19.4V54.6h63.2v19.5h-18.4v79.1h-25.4V74.1z"/>
		<path class="st1" d="M316.4,54.6h36.2c8.6,0,15.6,1.9,20.8,5.8c5.3,3.9,8.2,10.2,8.7,19c0,6.3-1,11.5-3,15.7
			c-2,4.1-5.5,7.3-10.3,9.3c3.8,1,6.8,2.5,9,4.6c2.2,2.1,3.3,4.7,3.3,7.8v36.4h-24.3v-28.9c0-3.3-0.7-5.7-2-7.3
			c-1.3-1.6-3.9-2.4-7.6-2.4h-5.8v38.5h-25V54.6z M347.2,97.2c2.4,0,4.6-0.9,6.6-2.8c2-1.9,3-4.9,3-9.1v-2.8c-1-5.7-2.9-9.1-5.5-10
			c-2.6-0.9-5.9-1.4-9.9-1.4v26.1H347.2z"/>
		<path class="st1" d="M402.1,79.3c0-9.9,3.3-16.9,10-21c6.6-4.1,14.7-6.2,24.1-6.2c1.2,0,2.5,0,3.8,0.1c1.3,0.1,2.6,0.2,3.8,0.3
			c6.6,0.9,12.7,3.3,18.1,7.3s8.2,10.4,8.2,19.4v44c0,9.8-2.7,17.5-8.2,23.2c-5.4,5.7-14.4,8.6-26.8,8.6c-12.7,0-21.3-3.2-26-9.7
			c-4.7-6.5-7-13.8-7-22.1V79.3z M427.2,128.5c0,2.8,0.9,4.9,2.7,6.3c1.8,1.4,3.8,2.1,6,2.1c0.1,0,0.2,0,0.2,0c0,0,0.1,0,0.2,0
			c2.1-0.1,4-0.8,5.8-2.2c1.8-1.4,2.6-3.5,2.6-6.2V78.3c0-2.8-0.9-4.8-2.6-6.2c-1.8-1.4-3.7-2.1-5.8-2.2c-0.1,0-0.2,0-0.2,0
			c-0.1,0-0.1,0-0.2,0c-2.2,0-4.2,0.7-6,2.1c-1.8,1.4-2.7,3.5-2.7,6.4V128.5z"/>
		<path class="st1" d="M508.9,118.8c0,0.2,0,0.4,0,0.6c0,0.2,0,0.4,0,0.6c-0.1,0.2-0.2,0.4-0.2,0.7c0,0.2,0,0.5,0,0.7
			c-0.1,0.4-0.2,0.8-0.2,1.2c-0.1,0.4-0.1,0.7-0.1,1c0,4.4,0.9,7.8,2.8,10.1c1.9,2.3,4,3.5,6.2,3.6c0.1,0,0.2,0,0.2,0
			c0,0,0.1,0,0.2,0c0.2,0,0.4,0,0.7,0c0.3,0,0.5,0,0.7-0.1c1.9-0.4,3.6-1.4,5.1-3c1.5-1.6,2.3-3.8,2.3-6.6c0-2.9-1-5.3-3-7.4
			c-2-2.1-4.5-4-7.5-5.9c-1.5-1-3-1.9-4.5-2.8c-1.6-0.9-3.1-1.9-4.7-3c-5-3.1-9.5-6.9-13.7-11.4c-4.2-4.5-6.2-10.7-6.2-18.4
			c0-0.1,0-0.2,0.1-0.3c0.1-0.1,0.1-0.2,0.1-0.4c0-0.1,0-0.2,0.1-0.3c0.1-0.1,0.1-0.2,0.1-0.3c0-0.5,0-1,0.1-1.5
			c0.1-0.5,0.1-1,0.1-1.5c0.9-5.8,4.1-11.2,9.5-16c5.4-4.8,12.3-7.2,20.7-7.2c8.4,0,15.8,2.4,22.2,7.3c6.4,4.8,9.6,12.5,9.6,23v2.1
			h-22.7v-2.8c0-3.5-0.7-6.1-2.2-8c-1.5-1.9-3.1-3.1-4.8-3.6c-0.4-0.1-0.8-0.2-1.1-0.2c-0.3,0-0.6-0.1-0.9-0.1c-0.1,0-0.2,0-0.2,0
			c-0.1,0-0.1,0-0.2,0c-1.8,0.1-3.4,0.8-4.9,2.2c-1.5,1.4-2.3,3.1-2.3,5.2c0,3.1,1.1,5.6,3.3,7.6c2.2,2,5,3.9,8.2,5.7
			c1.2,0.8,2.6,1.6,4,2.3c1.4,0.7,2.8,1.5,4.3,2.3c4.8,2.7,9.2,6.1,13.1,10.3c4,4.2,6.1,10.1,6.5,17.8v2.5c0,11.6-3.3,19.6-9.9,23.9
			c-6.6,4.3-14.2,6.4-23,6.4l-3.3,0.1c-8.8-0.5-15.6-3.3-20.3-8.4c-4.7-5.1-7.1-12.4-7.1-21.8c0-0.5,0-1,0.1-1.5
			c0-0.5,0.1-1,0.1-1.5c0-0.2,0-0.4,0-0.6c0-0.2,0-0.4,0-0.6c0.1-0.3,0.2-0.6,0.2-1c0-0.4,0-0.7,0-1H508.9z"/>
	</g>
</g>
</svg>
