<?xml version="1.0" encoding="utf-8"?>
<!-- Generator: Adobe Illustrator 26.0.3, SVG Export Plug-In . SVG Version: 6.00 Build 0)  -->
<svg version="1.1" id="Layer_1" xmlns="http://www.w3.org/2000/svg" xmlns:xlink="http://www.w3.org/1999/xlink" x="0px" y="0px"
	 viewBox="0 0 600 314.5" style="enable-background:new 0 0 600 314.5;" xml:space="preserve">
<style type="text/css">
	.st0{opacity:0.1;}
	.st1{fill:#231F20;stroke:#001689;stroke-width:0.5093;}
	.st2{fill:#231F20;}
	.st3{fill:none;stroke:#001689;stroke-width:0.5093;}
	.st4{fill:none;stroke:#C2D500;stroke-width:0.5093;}
	.st5{fill:none;stroke:#231F20;stroke-width:0.1273;stroke-dasharray:1.0186,0.5093;}
	.st6{fill:none;stroke:#231F20;stroke-width:0.2547;}
	.st7{font-family:'MyriadPro-Regular';}
	.st8{font-size:8.5656px;}
</style>
<g class="st0">
	<g>
		<path class="st1" d="M164.3,165.8c-6.7-3.1-15-4.6-25-4.6H50.6v99.2H102v-33.1h37.4c10.1,0,18.4-1.6,24.9-4.6
			c8.9-4.1,13.3-10.5,13.3-19.4v-18C177.7,176.5,173.2,170,164.3,165.8z M157.4,200.5c0,5.6-3.1,9.3-9.3,10.9
			c-2.9,0.8-8.3,1.2-16.1,1.2h-30V176h27c9,0,14.9,0.3,17.7,0.9c7.2,1.6,10.7,5.4,10.7,11.2V200.5z"/>
		<path class="st1" d="M282.5,237.2c0,2.5-1.2,4.5-3.7,6.1c-2.5,1.5-5,2.3-7.6,2.3H237c-2.5,0-5-0.8-7.5-2.4c-2.5-1.6-3.8-3.6-3.8-6
			v-76h-44v75.1c0,15.2,13.6,23.2,39.2,24.1c20.4,0.7,31.6,1,33.5,1l48.5-1v-99.2h-20.4V237.2z"/>
		<path class="st1" d="M409.5,185.3c0-8.9-4.4-15.4-13.2-19.6c-6.6-3-15-4.5-25.1-4.5h-63.1v99.2h25.4l0.1-45.3h23.9
			c0.6,0,1.9,0,4,0c2.1,0,3.7,0,4.9,0c15.4,0,23.1,4.1,23.1,12.4v33h20.2v-34.5c0-5-1.3-9-3.9-12c-1.5-1.6-4.8-4.2-10.1-7.7
			C404.8,203.5,409.5,196.6,409.5,185.3z M380.3,199.4c-2.8,0.8-8.2,1.2-16.3,1.2h-30.4V176h27.4c9.5,0,15.5,0.2,17.8,0.7
			c7,1.5,10.6,5.2,10.6,11.3C389.3,193.9,386.3,197.7,380.3,199.4z"/>
		<path class="st1" d="M538.7,175.7c-13.6-12-31.8-18-54.6-18c-10.2,0-20.5,1.5-30.9,4.4c-11.9,3.3-21.1,7.8-27.7,13.7
			c-8.3,7.3-12.5,19-12.5,35.1c0,16,4.2,27.7,12.5,35.1c6.3,5.6,15.2,10.1,26.9,13.5c10.4,3,20.4,4.5,30,4.5
			c10.4,0,20.4-1.4,29.8-4.2c10.7-3.1,19.6-7.7,26.6-13.8c8.3-7.3,12.5-19,12.5-35.1C551.1,194.7,547,183,538.7,175.7z M521.1,238.1
			c-6.5,6.9-15.4,10.3-26.7,10.3c-11.1,0-19.9-3.5-26.3-10.4c-6.4-7-9.6-16-9.6-27.1c0-11.6,3.2-20.8,9.7-27.4
			c6.5-6.7,15.5-10,27.1-10c11,0,19.7,3.5,26,10.4c6.3,6.9,9.4,15.9,9.4,27.1C530.8,222.1,527.6,231.2,521.1,238.1z"/>
	</g>
	<path id="SQUARES_3_" class="st2" d="M238.9,230.3h-5.1v10.1h5.1V230.3z M256.6,230.3h-5.1v10.1h5.1V230.3z M274.4,230.3h-5.1v10.1
		h5.1V230.3z"/>
	<g>
		<path class="st2" d="M50.6,52.3h58V71h-33v18h29.7v19.7H75.6v42.9h-25V52.3z"/>
		<path class="st2" d="M129.7,52.3h25.2v99.2h-25.2V52.3z"/>
		<path class="st2" d="M181.7,52.3h25v79.5h29.7v19.7h-54.8V52.3z"/>
		<path class="st2" d="M257,71.9h-19.6V52.3H301v19.6h-18.5v79.6H257V71.9z"/>
		<path class="st2" d="M316.9,52.3h36.4c8.7,0,15.6,1.9,21,5.8c5.3,3.9,8.2,10.2,8.8,19.1c0,6.4-1,11.6-3,15.8
			c-2,4.2-5.5,7.3-10.4,9.4c3.9,1,6.9,2.5,9.1,4.6c2.2,2.1,3.3,4.7,3.3,7.9v36.6h-24.4v-29.1c0-3.3-0.7-5.7-2-7.3
			c-1.4-1.6-3.9-2.4-7.7-2.4h-5.8v38.8h-25.2V52.3z M347.9,95.2c2.4,0,4.6-0.9,6.6-2.8c2-1.9,3.1-4.9,3.1-9.2v-2.8
			c-1-5.8-2.9-9.1-5.6-10c-2.7-0.9-6-1.4-9.9-1.4v26.3H347.9z"/>
		<path class="st2" d="M403,77.2c0-9.9,3.3-17,10-21.1c6.7-4.1,14.8-6.2,24.2-6.2c1.2,0,2.5,0.1,3.8,0.1c1.3,0.1,2.6,0.2,3.8,0.3
			c6.7,0.9,12.7,3.3,18.2,7.3c5.5,4,8.2,10.5,8.2,19.5v44.2c0,9.8-2.7,17.6-8.2,23.4c-5.5,5.8-14.5,8.6-27,8.6
			c-12.7,0-21.4-3.2-26.1-9.8c-4.7-6.5-7-13.9-7-22.3V77.2z M428.2,126.7c0,2.8,0.9,4.9,2.7,6.3c1.8,1.4,3.8,2.2,6,2.2
			c0.1,0,0.2,0,0.2,0c0.1,0,0.1,0,0.2,0c2.1-0.1,4-0.8,5.8-2.2c1.8-1.4,2.7-3.5,2.7-6.3V76.2c0-2.8-0.9-4.9-2.7-6.3
			c-1.8-1.4-3.7-2.1-5.8-2.2c-0.1,0-0.2,0-0.2,0c-0.1,0-0.1,0-0.2,0c-2.2,0-4.2,0.7-6,2.1c-1.8,1.4-2.7,3.5-2.7,6.4V126.7z"/>
		<path class="st2" d="M510.4,117c0,0.2,0,0.4,0,0.6c0,0.2,0,0.4,0,0.6c-0.1,0.2-0.2,0.4-0.2,0.7c0,0.2,0,0.5,0,0.7
			c-0.1,0.4-0.2,0.8-0.2,1.2c-0.1,0.4-0.1,0.7-0.1,1c0,4.5,0.9,7.8,2.8,10.1c1.9,2.3,4,3.5,6.3,3.6c0.1,0,0.2,0,0.2,0
			c0.1,0,0.1,0,0.2,0c0.2,0,0.4,0,0.7,0c0.3,0,0.5,0,0.7-0.1c1.9-0.4,3.6-1.4,5.1-3.1c1.5-1.6,2.3-3.8,2.3-6.6c0-2.9-1-5.4-3.1-7.4
			c-2-2.1-4.6-4.1-7.6-6c-1.5-1-3-1.9-4.5-2.8c-1.6-0.9-3.1-1.9-4.7-3c-5-3.1-9.6-6.9-13.8-11.5c-4.2-4.6-6.3-10.7-6.3-18.5
			c0-0.1,0-0.2,0.1-0.3c0.1-0.1,0.1-0.2,0.1-0.4c0-0.1,0-0.2,0.1-0.3c0.1-0.1,0.1-0.2,0.1-0.3c0-0.5,0-1,0.1-1.5
			c0.1-0.5,0.1-1,0.1-1.5c0.9-5.9,4.1-11.2,9.5-16c5.4-4.8,12.4-7.2,20.8-7.2c8.4,0,15.9,2.4,22.3,7.3c6.4,4.9,9.6,12.6,9.6,23.1
			v2.1h-22.8v-2.8c0-3.5-0.7-6.2-2.2-8.1c-1.5-1.9-3.1-3.1-4.8-3.6c-0.4-0.1-0.8-0.2-1.1-0.2c-0.3,0-0.6-0.1-0.9-0.1
			c-0.1,0-0.2,0-0.2,0c-0.1,0-0.1,0-0.2,0c-1.8,0.1-3.4,0.8-4.9,2.2c-1.5,1.4-2.3,3.1-2.3,5.2c0,3.1,1.1,5.6,3.4,7.7
			c2.2,2,5,3.9,8.2,5.7c1.2,0.8,2.6,1.6,4,2.3c1.4,0.7,2.8,1.5,4.3,2.3c4.8,2.7,9.2,6.1,13.2,10.3c4,4.2,6.2,10.2,6.5,17.9v2.5
			c0,11.7-3.3,19.7-9.9,24c-6.6,4.3-14.3,6.5-23.1,6.5l-3.3,0.1c-8.9-0.5-15.7-3.3-20.4-8.5c-4.7-5.2-7.1-12.5-7.1-21.9
			c0-0.5,0-1,0.1-1.5c0.1-0.5,0.1-1,0.1-1.5c0-0.2,0-0.4,0-0.6c0-0.2,0-0.4,0-0.6c0.1-0.3,0.2-0.6,0.2-1c0-0.4,0-0.7,0-1H510.4z"/>
	</g>
</g>
<g>
	<g>
		<path class="st3" d="M164.3,165.8c-6.7-3.1-15-4.6-25-4.6H50.6v99.2H102v-33.1h37.4c10.1,0,18.4-1.6,24.9-4.6
			c8.9-4.1,13.3-10.5,13.3-19.4v-18C177.7,176.5,173.2,170,164.3,165.8z M157.4,200.5c0,5.6-3.1,9.3-9.3,10.9
			c-2.9,0.8-8.3,1.2-16.1,1.2h-30V176h27c9,0,14.9,0.3,17.7,0.9c7.2,1.6,10.7,5.4,10.7,11.2V200.5z"/>
		<path class="st3" d="M282.5,237.2c0,2.5-1.2,4.5-3.7,6.1c-2.5,1.5-5,2.3-7.6,2.3H237c-2.5,0-5-0.8-7.5-2.4c-2.5-1.6-3.8-3.6-3.8-6
			v-76h-44v75.1c0,15.2,13.6,23.2,39.2,24.1c20.4,0.7,31.6,1,33.5,1l48.5-1v-99.2h-20.4V237.2z"/>
		<path class="st3" d="M409.5,185.3c0-8.9-4.4-15.4-13.2-19.6c-6.6-3-15-4.5-25.1-4.5h-63.1v99.2h25.4l0.1-45.3h23.9
			c0.6,0,1.9,0,4,0c2.1,0,3.7,0,4.9,0c15.4,0,23.1,4.1,23.1,12.4v33h20.2v-34.5c0-5-1.3-9-3.9-12c-1.5-1.6-4.8-4.2-10.1-7.7
			C404.8,203.5,409.5,196.6,409.5,185.3z M380.3,199.4c-2.8,0.8-8.2,1.2-16.3,1.2h-30.4V176h27.4c9.5,0,15.5,0.2,17.8,0.7
			c7,1.5,10.6,5.2,10.6,11.3C389.3,193.9,386.3,197.7,380.3,199.4z"/>
		<path class="st3" d="M538.7,175.7c-13.6-12-31.8-18-54.6-18c-10.2,0-20.5,1.5-30.9,4.4c-11.9,3.3-21.1,7.8-27.7,13.7
			c-8.3,7.3-12.5,19-12.5,35.1c0,16,4.2,27.7,12.5,35.1c6.3,5.6,15.2,10.1,26.9,13.5c10.4,3,20.4,4.5,30,4.5
			c10.4,0,20.4-1.4,29.8-4.2c10.7-3.1,19.6-7.7,26.6-13.8c8.3-7.3,12.5-19,12.5-35.1C551.1,194.7,547,183,538.7,175.7z M521.1,238.1
			c-6.5,6.9-15.4,10.3-26.7,10.3c-11.1,0-19.9-3.5-26.3-10.4c-6.4-7-9.6-16-9.6-27.1c0-11.6,3.2-20.8,9.7-27.4
			c6.5-6.7,15.5-10,27.1-10c11,0,19.7,3.5,26,10.4c6.3,6.9,9.4,15.9,9.4,27.1C530.8,222.1,527.6,231.2,521.1,238.1z"/>
	</g>
	<path id="SQUARES_2_" class="st4" d="M238.9,230.3h-5.1v10.1h5.1V230.3z M256.6,230.3h-5.1v10.1h5.1V230.3z M274.4,230.3h-5.1v10.1
		h5.1V230.3z"/>
	<g>
		<path class="st4" d="M50.6,52.3h58V71h-33v18h29.7v19.7H75.6v42.9h-25V52.3z"/>
		<path class="st4" d="M129.7,52.3h25.2v99.2h-25.2V52.3z"/>
		<path class="st4" d="M181.7,52.3h25v79.5h29.7v19.7h-54.8V52.3z"/>
		<path class="st4" d="M257,71.9h-19.6V52.3H301v19.6h-18.5v79.6H257V71.9z"/>
		<path class="st4" d="M316.9,52.3h36.4c8.7,0,15.6,1.9,21,5.8c5.3,3.9,8.2,10.2,8.8,19.1c0,6.4-1,11.6-3,15.8
			c-2,4.2-5.5,7.3-10.4,9.4c3.9,1,6.9,2.5,9.1,4.6c2.2,2.1,3.3,4.7,3.3,7.9v36.6h-24.4v-29.1c0-3.3-0.7-5.7-2-7.3
			c-1.4-1.6-3.9-2.4-7.7-2.4h-5.8v38.8h-25.2V52.3z M347.9,95.2c2.4,0,4.6-0.9,6.6-2.8c2-1.9,3.1-4.9,3.1-9.2v-2.8
			c-1-5.8-2.9-9.1-5.6-10c-2.7-0.9-6-1.4-9.9-1.4v26.3H347.9z"/>
		<path class="st4" d="M403,77.2c0-9.9,3.3-17,10-21.1c6.7-4.1,14.8-6.2,24.2-6.2c1.2,0,2.5,0.1,3.8,0.1c1.3,0.1,2.6,0.2,3.8,0.3
			c6.7,0.9,12.7,3.3,18.2,7.3c5.5,4,8.2,10.5,8.2,19.5v44.2c0,9.8-2.7,17.6-8.2,23.4c-5.5,5.8-14.5,8.6-27,8.6
			c-12.7,0-21.4-3.2-26.1-9.8c-4.7-6.5-7-13.9-7-22.3V77.2z M428.2,126.7c0,2.8,0.9,4.9,2.7,6.3c1.8,1.4,3.8,2.2,6,2.2
			c0.1,0,0.2,0,0.2,0c0.1,0,0.1,0,0.2,0c2.1-0.1,4-0.8,5.8-2.2c1.8-1.4,2.7-3.5,2.7-6.3V76.2c0-2.8-0.9-4.9-2.7-6.3
			c-1.8-1.4-3.7-2.1-5.8-2.2c-0.1,0-0.2,0-0.2,0c-0.1,0-0.1,0-0.2,0c-2.2,0-4.2,0.7-6,2.1c-1.8,1.4-2.7,3.5-2.7,6.4V126.7z"/>
		<path class="st4" d="M510.4,117c0,0.2,0,0.4,0,0.6c0,0.2,0,0.4,0,0.6c-0.1,0.2-0.2,0.4-0.2,0.7c0,0.2,0,0.5,0,0.7
			c-0.1,0.4-0.2,0.8-0.2,1.2c-0.1,0.4-0.1,0.7-0.1,1c0,4.5,0.9,7.8,2.8,10.1c1.9,2.3,4,3.5,6.3,3.6c0.1,0,0.2,0,0.2,0
			c0.1,0,0.1,0,0.2,0c0.2,0,0.4,0,0.7,0c0.3,0,0.5,0,0.7-0.1c1.9-0.4,3.6-1.4,5.1-3.1c1.5-1.6,2.3-3.8,2.3-6.6c0-2.9-1-5.4-3.1-7.4
			c-2-2.1-4.6-4.1-7.6-6c-1.5-1-3-1.9-4.5-2.8c-1.6-0.9-3.1-1.9-4.7-3c-5-3.1-9.6-6.9-13.8-11.5c-4.2-4.6-6.3-10.7-6.3-18.5
			c0-0.1,0-0.2,0.1-0.3c0.1-0.1,0.1-0.2,0.1-0.4c0-0.1,0-0.2,0.1-0.3c0.1-0.1,0.1-0.2,0.1-0.3c0-0.5,0-1,0.1-1.5
			c0.1-0.5,0.1-1,0.1-1.5c0.9-5.9,4.1-11.2,9.5-16c5.4-4.8,12.4-7.2,20.8-7.2c8.4,0,15.9,2.4,22.3,7.3c6.4,4.9,9.6,12.6,9.6,23.1
			v2.1h-22.8v-2.8c0-3.5-0.7-6.2-2.2-8.1c-1.5-1.9-3.1-3.1-4.8-3.6c-0.4-0.1-0.8-0.2-1.1-0.2c-0.3,0-0.6-0.1-0.9-0.1
			c-0.1,0-0.2,0-0.2,0c-0.1,0-0.1,0-0.2,0c-1.8,0.1-3.4,0.8-4.9,2.2c-1.5,1.4-2.3,3.1-2.3,5.2c0,3.1,1.1,5.6,3.4,7.7
			c2.2,2,5,3.9,8.2,5.7c1.2,0.8,2.6,1.6,4,2.3c1.4,0.7,2.8,1.5,4.3,2.3c4.8,2.7,9.2,6.1,13.2,10.3c4,4.2,6.2,10.2,6.5,17.9v2.5
			c0,11.7-3.3,19.7-9.9,24c-6.6,4.3-14.3,6.5-23.1,6.5l-3.3,0.1c-8.9-0.5-15.7-3.3-20.4-8.5c-4.7-5.2-7.1-12.5-7.1-21.9
			c0-0.5,0-1,0.1-1.5c0.1-0.5,0.1-1,0.1-1.5c0-0.2,0-0.4,0-0.6c0-0.2,0-0.4,0-0.6c0.1-0.3,0.2-0.6,0.2-1c0-0.4,0-0.7,0-1H510.4z"/>
	</g>
</g>
<path class="st5" d="M0.5,52.3h600 M0.5,151.1h600 M157.8,240.4h194.4 M157.8,230.3h194.4 M157.8,245.6h194.4 M0.5,260.4h600
	 M0.5,161.2h600 M50.6,0.8v312.9 M102,151.1v162.7 M302.9,151.1v116.3 M308.1,151.1v116.3 M333.5,151.1v159.1 M181.7,0.9v309.2
	 M282.2,0.9v309.2 M256.6,224.9v42.5 M251.6,224.9v42.5 M550.9,0.9v309.2"/>
<line class="st6" x1="333.9" y1="282.1" x2="282.8" y2="282.1"/>
<line class="st6" x1="551.3" y1="293.4" x2="50.8" y2="293.4"/>
<text transform="matrix(1 0 0 1 301.5078 280.3112)" class="st2 st7 st8">10X</text>
<line class="st6" x1="101.7" y1="282.1" x2="50.7" y2="282.1"/>
<text transform="matrix(1 0 0 1 69.3804 280.3112)" class="st2 st7 st8">10X</text>
<line class="st6" x1="560.1" y1="161.3" x2="560.1" y2="151.2"/>
<text transform="matrix(1 0 0 1 563.5762 159.1676)" class="st2 st7 st8">2X</text>
<line class="st6" x1="35.2" y1="260.4" x2="35.2" y2="161.2"/>
<line class="st6" x1="35.2" y1="151.1" x2="35.2" y2="52.3"/>
<polygon class="st2" points="22.2,212.3 25.4,206.5 25.9,206.5 22.7,212.3 "/>
<text transform="matrix(1 0 0 1 11.5962 212.1666)" class="st2 st7 st8">19    X</text>
<text transform="matrix(1 0 0 1 20.9248 212.0377)" class="st2 st7 st8">¹</text>
<text transform="matrix(1 0 0 1 24.3901 214.4537)" class="st2 st7 st8">³</text>
<polygon class="st2" points="22.2,110.3 25.4,104.5 25.9,104.5 22.7,110.3 "/>
<text transform="matrix(1 0 0 1 11.5962 110.1691)" class="st2 st7 st8">19    X</text>
<text transform="matrix(1 0 0 1 20.9248 110.0372)" class="st2 st7 st8">¹</text>
<text transform="matrix(1 0 0 1 24.3901 112.4562)" class="st2 st7 st8">³</text>
<g>
	<polygon class="st2" points="301.3,305.2 304.5,299.4 305,299.4 301.7,305.2 	"/>
	<text transform="matrix(1 0 0 1 290.5933 305.0455)" class="st2 st7 st8">97    X</text>
	<text transform="matrix(1 0 0 1 300.002 304.9137)" class="st2 st7 st8">¹</text>
	<text transform="matrix(1 0 0 1 303.4678 307.3346)" class="st2 st7 st8">³</text>
</g>
<line class="st6" x1="256.7" y1="227.8" x2="251.7" y2="227.8"/>
<line class="st6" x1="258" y1="240.4" x2="258" y2="230.3"/>
<text transform="matrix(1 0 0 1 251.7358 226.0338)" class="st2 st7 st8">X</text>
<text transform="matrix(1 0 0 1 258.5029 237.8463)" class="st2 st7 st8">2X</text>
</svg>
