<?xml version="1.0" encoding="utf-8"?>
<!-- Generator: Adobe Illustrator 26.0.3, SVG Export Plug-In . SVG Version: 6.00 Build 0)  -->
<svg version="1.1" id="Layer_1" xmlns="http://www.w3.org/2000/svg" xmlns:xlink="http://www.w3.org/1999/xlink" x="0px" y="0px"
	 viewBox="0 0 600 315" style="enable-background:new 0 0 600 315;" xml:space="preserve">
<style type="text/css">
	.st0{opacity:0.1;}
	.st1{fill:#231F20;}
	.st2{opacity:0.15;fill:#231F20;}
	.st3{fill:none;stroke:#231F20;stroke-width:0.2578;stroke-dasharray:2.0623,1.0311;}
	.st4{opacity:8.000000e-02;}
	.st5{fill:none;stroke:#000000;}
	.st6{fill:none;stroke:#C2D500;}
	.st7{fill:none;stroke:#001689;}
	.st8{fill:none;stroke:#231F20;stroke-width:0.5;}
	.st9{font-family:'MyriadPro-Regular';}
	.st10{font-size:6.0298px;}
	.st11{fill:none;stroke:#231F20;stroke-width:0.25;stroke-dasharray:2.0623,1.0311;}
	.st12{fill:none;stroke:#231F20;}
</style>
<g>
	<g>
		<g class="st0">
			<g>
				<path class="st1" d="M267,32.9c-1.9-0.9-4.2-1.3-7-1.3h-25v27.9h14.5v-9.3H260c2.8,0,5.2-0.4,7-1.3c2.5-1.1,3.8-3,3.8-5.5v-5.1
					C270.8,35.9,269.5,34.1,267,32.9z M265.1,42.7c0,1.6-0.9,2.6-2.6,3.1c-0.8,0.2-2.3,0.3-4.5,0.3h-8.5V35.8h7.6
					c2.5,0,4.2,0.1,5,0.2c2,0.5,3,1.5,3,3.1V42.7z"/>
				<path class="st1" d="M300.3,53c0,0.7-0.3,1.3-1,1.7c-0.7,0.4-1.4,0.7-2.1,0.7h-9.6c-0.7,0-1.4-0.2-2.1-0.7
					c-0.7-0.4-1.1-1-1.1-1.7V31.6h-12.4v21.2c0,4.3,3.8,6.5,11,6.8c5.7,0.2,8.9,0.3,9.4,0.3l13.7-0.3V31.6h-5.8V53z"/>
				<path class="st1" d="M336,38.4c0-2.5-1.2-4.3-3.7-5.5c-1.9-0.8-4.2-1.3-7.1-1.3h-17.8v27.9h7.1l0-12.8h6.7c0.2,0,0.5,0,1.1,0
					c0.6,0,1,0,1.4,0c4.3,0,6.5,1.2,6.5,3.5v9.3h5.7v-9.7c0-1.4-0.4-2.5-1.1-3.4c-0.4-0.5-1.4-1.2-2.9-2.2
					C334.7,43.6,336,41.6,336,38.4z M327.8,42.4c-0.8,0.2-2.3,0.3-4.6,0.3h-8.6v-6.9h7.7c2.7,0,4.4,0.1,5,0.2c2,0.4,3,1.5,3,3.2
					C330.4,40.8,329.5,41.9,327.8,42.4z"/>
				<path class="st1" d="M372.4,35.7c-3.8-3.4-9-5.1-15.4-5.1c-2.9,0-5.8,0.4-8.7,1.2c-3.4,0.9-6,2.2-7.8,3.8
					c-2.3,2-3.5,5.3-3.5,9.9c0,4.5,1.2,7.8,3.5,9.9c1.8,1.6,4.3,2.8,7.6,3.8c2.9,0.8,5.7,1.3,8.5,1.3c2.9,0,5.7-0.4,8.4-1.2
					c3-0.9,5.5-2.2,7.5-3.9c2.3-2,3.5-5.3,3.5-9.9C375.9,41.1,374.8,37.8,372.4,35.7z M367.5,53.3c-1.8,1.9-4.3,2.9-7.5,2.9
					c-3.1,0-5.6-1-7.4-2.9c-1.8-2-2.7-4.5-2.7-7.6c0-3.3,0.9-5.8,2.7-7.7c1.8-1.9,4.4-2.8,7.6-2.8c3.1,0,5.5,1,7.3,2.9
					c1.8,1.9,2.7,4.5,2.7,7.6C370.2,48.8,369.3,51.3,367.5,53.3z"/>
			</g>
			<path id="SQUARES_3_" class="st1" d="M288,51.1h-1.4v2.8h1.4V51.1z M293,51.1h-1.4v2.8h1.4V51.1z M298,51.1h-1.4v2.8h1.4V51.1z"
				/>
			<g>
				<path class="st1" d="M235,1h16.3v5.2H242v5.1h8.4v5.5H242v12.1h-7V1z"/>
				<path class="st1" d="M257.3,1h7.1v27.9h-7.1V1z"/>
				<path class="st1" d="M271.9,1h7v22.4h8.4v5.5h-15.4V1z"/>
				<path class="st1" d="M293.1,6.5h-5.5V1h17.9v5.5h-5.2v22.4h-7.2V6.5z"/>
				<path class="st1" d="M310,1h10.3c2.4,0,4.4,0.5,5.9,1.6c1.5,1.1,2.3,2.9,2.5,5.4c0,1.8-0.3,3.3-0.9,4.4
					c-0.6,1.2-1.5,2.1-2.9,2.6c1.1,0.3,1.9,0.7,2.6,1.3c0.6,0.6,0.9,1.3,0.9,2.2v10.3h-6.9v-8.2c0-0.9-0.2-1.6-0.6-2.1
					c-0.4-0.4-1.1-0.7-2.2-0.7h-1.6v10.9H310V1z M318.7,13c0.7,0,1.3-0.3,1.9-0.8c0.6-0.5,0.9-1.4,0.9-2.6V8.9
					c-0.3-1.6-0.8-2.6-1.6-2.8c-0.7-0.3-1.7-0.4-2.8-0.4V13H318.7z"/>
				<path class="st1" d="M334.2,8c0-2.8,0.9-4.8,2.8-5.9c1.9-1.2,4.2-1.7,6.8-1.7c0.4,0,0.7,0,1.1,0c0.4,0,0.7,0.1,1.1,0.1
					c1.9,0.3,3.6,0.9,5.1,2.1c1.5,1.1,2.3,3,2.3,5.5v12.4c0,2.8-0.8,5-2.3,6.6c-1.5,1.6-4.1,2.4-7.6,2.4c-3.6,0-6-0.9-7.4-2.7
					c-1.3-1.8-2-3.9-2-6.3V8z M341.3,21.9c0,0.8,0.3,1.4,0.8,1.8c0.5,0.4,1.1,0.6,1.7,0.6c0,0,0.1,0,0.1,0c0,0,0,0,0.1,0
					c0.6,0,1.1-0.2,1.6-0.6c0.5-0.4,0.7-1,0.7-1.8V7.7c0-0.8-0.2-1.4-0.7-1.8c-0.5-0.4-1-0.6-1.6-0.6c0,0-0.1,0-0.1,0c0,0,0,0-0.1,0
					c-0.6,0-1.2,0.2-1.7,0.6c-0.5,0.4-0.8,1-0.8,1.8V21.9z"/>
				<path class="st1" d="M364.5,19.2c0,0.1,0,0.1,0,0.2c0,0.1,0,0.1,0,0.2c0,0.1,0,0.1,0,0.2c0,0.1,0,0.1,0,0.2
					c0,0.1-0.1,0.2-0.1,0.3c0,0.1,0,0.2,0,0.3c0,1.3,0.3,2.2,0.8,2.9c0.5,0.6,1.1,1,1.8,1c0,0,0.1,0,0.1,0c0,0,0,0,0.1,0
					c0.1,0,0.1,0,0.2,0c0.1,0,0.1,0,0.2,0c0.5-0.1,1-0.4,1.4-0.9c0.4-0.5,0.6-1.1,0.6-1.9c0-0.8-0.3-1.5-0.9-2.1
					c-0.6-0.6-1.3-1.1-2.1-1.7c-0.4-0.3-0.8-0.5-1.3-0.8c-0.4-0.3-0.9-0.5-1.3-0.8c-1.4-0.9-2.7-1.9-3.9-3.2c-1.2-1.3-1.8-3-1.8-5.2
					c0,0,0-0.1,0-0.1c0,0,0-0.1,0-0.1c0,0,0-0.1,0-0.1c0,0,0-0.1,0-0.1c0-0.1,0-0.3,0-0.4c0-0.1,0-0.3,0-0.4
					c0.3-1.7,1.2-3.2,2.7-4.5c1.5-1.4,3.5-2,5.9-2c2.4,0,4.5,0.7,6.3,2.1c1.8,1.4,2.7,3.5,2.7,6.5v0.6h-6.4V8.4c0-1-0.2-1.7-0.6-2.3
					c-0.4-0.5-0.9-0.9-1.4-1c-0.1,0-0.2,0-0.3-0.1c-0.1,0-0.2,0-0.3,0c0,0-0.1,0-0.1,0c0,0,0,0-0.1,0c-0.5,0-1,0.2-1.4,0.6
					c-0.4,0.4-0.6,0.9-0.6,1.5c0,0.9,0.3,1.6,0.9,2.2c0.6,0.6,1.4,1.1,2.3,1.6c0.4,0.2,0.7,0.4,1.1,0.6c0.4,0.2,0.8,0.4,1.2,0.6
					c1.4,0.8,2.6,1.7,3.7,2.9c1.1,1.2,1.7,2.9,1.8,5.1v0.7c0,3.3-0.9,5.6-2.8,6.8c-1.9,1.2-4,1.8-6.5,1.8l-0.9,0
					c-2.5-0.1-4.4-0.9-5.8-2.4c-1.3-1.5-2-3.5-2-6.2c0-0.1,0-0.3,0-0.4c0-0.1,0-0.3,0-0.4c0-0.1,0-0.1,0-0.2c0-0.1,0-0.1,0-0.2
					c0-0.1,0-0.2,0-0.3c0-0.1,0-0.2,0-0.3H364.5z"/>
			</g>
		</g>
		<rect x="265.1" y="20.3" class="st2" width="57.4" height="47"/>
		<rect x="265.1" y="20.3" class="st3" width="57.4" height="47"/>
	</g>
	<path class="st4" d="M418.9,75v44.1h-36.2V75 M441.1,75c0.1,0.7,0.1,1.5,0.1,2.3v41.8h5.5V75H441.1z M296.1,232.4h-7.3v14.5h7.3
		V232.4z M270.7,232.4h-7.3v14.5h7.3V232.4z M296.7,75v44.1h36.6V75 M446.7,133h-76.6v142.6h36.4l0.2-65.2H441c0.8,0,2.7,0,5.7,0
		 M446.7,189.6h-40v-35.4h39.4c0.2,0,0.4,0,0.6,0 M333.3,242.2c0,3.6-1.8,6.5-5.3,8.8c-3.5,2.2-7.2,3.3-10.9,3.3h-49.1
		c-3.6,0-7.2-1.1-10.8-3.4c-3.6-2.3-5.4-5.2-5.4-8.7V133h-63.2v108c0,21.8,19.6,33.4,56.3,34.6c29.3,1,45.4,1.5,48.2,1.5l69.7-1.4
		V133h-29.3V242.2z M188.5,75v44.1h78.7V90.8h-42.7V75 M321.6,232.4h-7.3v14.5h7.3V232.4z M153.5,225c3.6-1,6.9-2.2,10-3.6
		c12.8-5.8,19.2-15.1,19.2-27.9v-25.8c0-12.6-6.4-22-19.2-27.9c-3.1-1.4-6.4-2.6-10-3.6 M418.9,75v44.1h-36.2V75 M441.1,75
		c0.1,0.7,0.1,1.5,0.1,2.3v41.8h5.5V75H441.1z M296.1,232.4h-7.3v14.5h7.3V232.4z M270.7,232.4h-7.3v14.5h7.3V232.4z M296.7,75v44.1
		h36.6V75 M446.7,133h-76.6v142.6h36.4l0.2-65.2H441c0.8,0,2.7,0,5.7,0 M446.7,189.6h-40v-35.4h39.4c0.2,0,0.4,0,0.6,0 M333.3,242.2
		c0,3.6-1.8,6.5-5.3,8.8c-3.5,2.2-7.2,3.3-10.9,3.3h-49.1c-3.6,0-7.2-1.1-10.8-3.4c-3.6-2.3-5.4-5.2-5.4-8.7V133h-63.2v108
		c0,21.8,19.6,33.4,56.3,34.6c29.3,1,45.4,1.5,48.2,1.5l69.7-1.4V133h-29.3V242.2z M188.5,75v44.1h78.7V90.8h-42.7V75 M321.6,232.4
		h-7.3v14.5h7.3V232.4z M153.5,225c3.6-1,6.9-2.2,10-3.6c12.8-5.8,19.2-15.1,19.2-27.9v-25.8c0-12.6-6.4-22-19.2-27.9
		c-3.1-1.4-6.4-2.6-10-3.6"/>
	<polyline class="st5" points="418.9,75 418.9,119.1 382.7,119.1 382.7,75 	"/>
	<path class="st6" d="M441.1,75c0.1,0.7,0.1,1.5,0.1,2.3v41.8h5.5"/>
	<rect x="288.9" y="232.4" class="st5" width="7.3" height="14.5"/>
	<rect x="263.4" y="232.4" class="st5" width="7.3" height="14.5"/>
	<polyline class="st5" points="296.7,75 296.7,119.1 333.4,119.1 333.4,75 	"/>
	<path class="st5" d="M446.7,133h-76.6v142.6h36.4l0.2-65.2H441c0.8,0,2.7,0,5.7,0"/>
	<path class="st5" d="M446.7,189.6h-40v-35.4h39.4c0.2,0,0.4,0,0.6,0"/>
	<path class="st5" d="M333.3,242.2c0,3.6-1.8,6.5-5.3,8.8c-3.5,2.2-7.2,3.3-10.9,3.3h-49.1c-3.6,0-7.2-1.1-10.8-3.4
		c-3.6-2.3-5.4-5.2-5.4-8.7V133h-63.2v108c0,21.8,19.6,33.4,56.3,34.6c29.3,1,45.4,1.5,48.2,1.5l69.7-1.4V133h-29.3V242.2z"/>
	<polyline class="st5" points="188.5,75 188.5,119.1 267.2,119.1 267.2,90.8 224.5,90.8 224.5,75 	"/>
	<rect x="314.4" y="232.4" class="st5" width="7.3" height="14.5"/>
	<path class="st5" d="M153.5,225c3.6-1,6.9-2.2,10-3.6c12.8-5.8,19.2-15.1,19.2-27.9v-25.8c0-12.6-6.4-22-19.2-27.9
		c-3.1-1.4-6.4-2.6-10-3.6"/>
	<polyline class="st6" points="418.9,75 418.9,119.1 382.7,119.1 382.7,75 	"/>
	<rect x="288.9" y="232.4" class="st6" width="7.3" height="14.5"/>
	<rect x="263.4" y="232.4" class="st6" width="7.3" height="14.5"/>
	<polyline class="st6" points="296.7,75 296.7,119.1 333.4,119.1 333.4,75 	"/>
	<path class="st7" d="M446.7,133h-76.6v142.6h36.4l0.2-65.2H441c0.8,0,2.7,0,5.7,0"/>
	<path class="st7" d="M446.7,189.6h-40v-35.4h39.4c0.2,0,0.4,0,0.6,0"/>
	<path class="st7" d="M333.3,242.2c0,3.6-1.8,6.5-5.3,8.8c-3.5,2.2-7.2,3.3-10.9,3.3h-49.1c-3.6,0-7.2-1.1-10.8-3.4
		c-3.6-2.3-5.4-5.2-5.4-8.7V133h-63.2v108c0,21.8,19.6,33.4,56.3,34.6c29.3,1,45.4,1.5,48.2,1.5l69.7-1.4V133h-29.3V242.2z"/>
	<polyline class="st6" points="188.5,75 188.5,119.1 267.2,119.1 267.2,90.8 224.5,90.8 224.5,75 	"/>
	<rect x="314.4" y="232.4" class="st6" width="7.3" height="14.5"/>
	<path class="st7" d="M153.5,225c3.6-1,6.9-2.2,10-3.6c12.8-5.8,19.2-15.1,19.2-27.9v-25.8c0-12.6-6.4-22-19.2-27.9
		c-3.1-1.4-6.4-2.6-10-3.6"/>
	<line class="st8" x1="406.7" y1="130.6" x2="333.3" y2="130.6"/>
	<text transform="matrix(1 0 0 1 365.5042 129.3531)" class="st1 st9 st10">10X</text>
	<line class="st8" x1="188.1" y1="130.6" x2="251.7" y2="130.6"/>
	<g>
		<polygon class="st1" points="218,129.1 220.3,125 220.6,125 218.3,129.1 		"/>
		<text transform="matrix(1 0 0 1 213.5613 129.002)" class="st1 st9 st10">8    X</text>
		<text transform="matrix(1 0 0 1 216.8875 128.9107)" class="st1 st9 st10">²</text>
		<text transform="matrix(1 0 0 1 219.5286 130.6134)" class="st1 st9 st10">³</text>
	</g>
	<line class="st8" x1="436.6" y1="133" x2="436.6" y2="119.1"/>
	<text transform="matrix(1 0 0 1 437.4915 128.5401)" class="st1 st9 st10">2X</text>
	<text transform="matrix(1 0 0 1 274.2142 210.6861)" class="st1 st9 st10">2½X</text>
	<line class="st8" x1="296" y1="228.9" x2="288.9" y2="228.9"/>
	<line class="st8" x1="299.9" y1="246.9" x2="299.9" y2="232.3"/>
	<line class="st8" x1="303.7" y1="254.3" x2="303.7" y2="246.9"/>
	<line class="st8" x1="288.9" y1="212.4" x2="270.7" y2="212.4"/>
	<text transform="matrix(1 0 0 1 299.8568 210.6861)" class="st1 st9 st10">2½X</text>
	<line class="st8" x1="314.6" y1="212.4" x2="296.3" y2="212.4"/>
	<text transform="matrix(1 0 0 1 300.7567 241.1783)" class="st1 st9 st10">2X</text>
	<text transform="matrix(1 0 0 1 290.8934 227.8746)" class="st1 st9 st10">X</text>
	<line class="st8" x1="369.9" y1="284.5" x2="362.7" y2="284.5"/>
	<text transform="matrix(1 0 0 1 364.7357 282.8755)" class="st1 st9 st10">X</text>
	<text transform="matrix(1 0 0 1 304.8665 252.6627)" class="st1 st9 st10">X</text>
	<polygon class="st1" points="256,210.5 258.3,206.4 258.6,206.4 256.3,210.5 	"/>
	<text transform="matrix(1 0 0 1 252.5091 210.4019)" class="st1 st9 st10">1   X</text>
	<text transform="matrix(1 0 0 1 254.8802 210.3101)" class="st1 st9 st10">²</text>
	<text transform="matrix(1 0 0 1 257.5208 212.0123)" class="st1 st9 st10">³</text>
	<line class="st8" x1="263.6" y1="212" x2="252.1" y2="212"/>
	<polygon class="st1" points="325.5,210.5 327.7,206.4 328.1,206.4 325.8,210.5 	"/>
	<text transform="matrix(1 0 0 1 321.993 210.4019)" class="st1 st9 st10">1   X</text>
	<text transform="matrix(1 0 0 1 324.3631 210.3101)" class="st1 st9 st10">²</text>
	<text transform="matrix(1 0 0 1 327.0042 212.0123)" class="st1 st9 st10">³</text>
	<line class="st8" x1="333.1" y1="212" x2="321.6" y2="212"/>
	<line class="st11" x1="188.5" y1="314.8" x2="188.5" y2="75"/>
	<line class="st11" x1="251.7" y1="314.8" x2="251.7" y2="75"/>
	<line class="st11" x1="263.4" y1="292.2" x2="263.4" y2="184.2"/>
	<line class="st11" x1="270.7" y1="292.2" x2="270.7" y2="184.2"/>
	<line class="st11" x1="288.9" y1="292.2" x2="288.9" y2="184.2"/>
	<line class="st11" x1="296.1" y1="292.2" x2="296.1" y2="184.2"/>
	<line class="st11" x1="314.4" y1="292.2" x2="314.4" y2="184.2"/>
	<line class="st11" x1="321.6" y1="292.2" x2="321.6" y2="184.2"/>
	<line class="st11" x1="362.8" y1="292.2" x2="362.8" y2="93.7"/>
	<line class="st11" x1="370.1" y1="292.2" x2="370.1" y2="93.7"/>
	<line class="st11" x1="333.3" y1="314.8" x2="333.3" y2="75"/>
	<line class="st11" x1="406.7" y1="314.8" x2="406.7" y2="75"/>
	<line class="st11" x1="153.5" y1="133" x2="446.7" y2="133"/>
	<line class="st11" x1="153.4" y1="119.1" x2="446.6" y2="119.1"/>
	<line class="st11" x1="230.6" y1="232.4" x2="348.3" y2="232.4"/>
	<line class="st11" x1="230.6" y1="246.9" x2="348.3" y2="246.9"/>
	<line class="st11" x1="153.3" y1="275.6" x2="446.3" y2="275.6"/>
	<rect x="153.5" y="75" class="st12" width="293.2" height="240"/>
</g>
</svg>
