<?xml version="1.0" encoding="utf-8"?>
<!-- Generator: Adobe Illustrator 26.0.3, SVG Export Plug-In . SVG Version: 6.00 Build 0)  -->
<svg version="1.1" id="Layer_1" xmlns="http://www.w3.org/2000/svg" xmlns:xlink="http://www.w3.org/1999/xlink" x="0px" y="0px"
	 viewBox="0 0 600 320" style="enable-background:new 0 0 600 320;" xml:space="preserve">
<style type="text/css">
	.st0{fill:#808184;}
	.st1{font-family:'MyriadPro-Regular';}
	.st2{font-size:2.3474px;}
	.st3{fill:none;stroke:#808184;stroke-width:7.353100e-02;}
	.st4{fill:none;stroke:#808184;stroke-width:7.353100e-02;stroke-dasharray:0.2102;}
	.st5{fill:#E6E7E8;stroke:#808184;stroke-width:7.353100e-02;}
	.st6{fill:#231F20;}
	.st7{fill:#929497;}
	.st8{fill:#00ADC4;}
	.st9{fill:#6D6E70;}
	.st10{fill:#404041;}
	.st11{fill:#00A0AF;}
	.st12{fill:none;stroke:#808285;stroke-width:0.5;stroke-dasharray:4,4;}
</style>
<g>
	<g id="txt_1_">
		<text transform="matrix(1 0 0 1 483.8563 280.0738)" class="st0 st1 st2">X</text>
		<text transform="matrix(1 0 0 1 486.1962 293.9957)" class="st0 st1 st2">2½X</text>
		<text transform="matrix(1 0 0 1 469.0643 235.3297)" class="st0 st1 st2">19X</text>
		<text transform="matrix(1 0 0 1 460.2245 196.4976)" class="st0 st1 st2">2X</text>
		<text transform="matrix(1 0 0 1 460.2245 270.0504)" class="st0 st1 st2">3X</text>
		<text transform="matrix(1 0 0 1 483.9901 286.8629)" class="st0 st1 st2">X</text>
		<text transform="matrix(1 0 0 1 486.1962 283.0113)" class="st0 st1 st2">½X</text>
		<g>
			<text transform="matrix(1 0 0 1 419.8915 176.1275)" class="st0 st1 st2">7½X</text>
		</g>
		<g>
			<text transform="matrix(1 0 0 1 415.12 185.1822)" class="st0 st1 st2">1½X</text>
		</g>
		<g>
			<text transform="matrix(1 0 0 1 411.1669 181.7857)" class="st0 st1 st2">½X</text>
		</g>
		<g>
			<text transform="matrix(1 0 0 1 406.0673 185.1822)" class="st0 st1 st2">1½X</text>
		</g>
		<g>
			<text transform="matrix(1 0 0 1 402.1132 181.7857)" class="st0 st1 st2">½X</text>
		</g>
		<g>
			<text transform="matrix(1 0 0 1 424.1727 185.1822)" class="st0 st1 st2">1½X</text>
		</g>
		<g>
			<text transform="matrix(1 0 0 1 420.2196 181.7857)" class="st0 st1 st2">½X</text>
		</g>
		<g>
			<text transform="matrix(1 0 0 1 433.2255 185.1822)" class="st0 st1 st2">1½X</text>
		</g>
		<g>
			<text transform="matrix(1 0 0 1 429.2723 181.7857)" class="st0 st1 st2">½X</text>
		</g>
		<g>
			<text transform="matrix(1 0 0 1 438.3251 181.7857)" class="st0 st1 st2">½X</text>
		</g>
	</g>
	<path id="cotas_1_" class="st3" d="M481.7,276.8v4.6 M484,288.2v11.3 M459.1,190.6v9.3 M481.9,283.6v4.6 M484.1,281.1v2.5
		 M405,177.3h33.7 M459.1,263.3V277 M411.6,182.9h2.3 M413.8,186.3h6.8 M402.5,182.9h2.3 M404.8,186.3h6.8 M420.6,182.9h2.3
		 M422.9,186.3h6.8 M429.7,182.9h2.3 M431.9,186.3h6.8 M438.7,182.9h2.3 M468.1,190.8v86"/>
	<path id="elipse-grilla_1_" class="st4" d="M421.5,225.5c-20.9,0-37.9,8-37.9,17.9c0,9.9,17,17.9,37.9,17.9
		c20.9,0,37.9-8,37.9-17.9C459.4,233.5,442.5,225.5,421.5,225.5z M421.6,256.7c-18.4,0-33.2-6.5-33.2-14.4c0-8,14.9-14.4,33.2-14.4
		c18.4,0,33.2,6.5,33.2,14.4C454.8,250.2,439.9,256.7,421.6,256.7z M381.4,243.4l80.3,0 M421.5,259.2v-40.6 M417.1,226.1
		c-20.2,5.2-34.6,17.3-32.2,26.8c2.5,9.6,20.9,13.1,41.1,7.9c20.2-5.2,34.6-17.3,32.2-26.8C455.7,224.4,437.3,220.8,417.1,226.1z
		 M424.9,256.3c-17.8,4.6-33.8,2.1-35.8-5.7c-2-7.7,10.8-17.7,28.6-22.3c17.8-4.6,33.8-2.1,35.8,5.7
		C455.4,241.7,442.7,251.7,424.9,256.3z M382.7,253.5l77.8-20.1 M426.6,258.5l-10.2-39.3"/>
	<path id="grilla_1_" class="st4" d="M404.7,182.1l0.1,97 M402.5,180.9l0.1,97 M440.9,180.7l0.1,97 M411.4,181.8l0.1,97
		 M413.7,182.1l0.1,97 M420.7,181.9l0.1,97 M422.8,181.8l0.1,97 M429.6,181.8l0.1,97 M431.8,181.8l0.1,97 M438.6,181.8l0.1,97
		 M359.6,276.6l126.2,0 M359.8,263.3l126.2,0 M409.3,190.8h58.8 M400.3,199.9h61.1 M359.6,281.2l126.2,0 M359.5,283.6h126.7
		 M359.6,288.3l133.6,0 M359.6,299.4l126.4,0"/>
	<g id="marca_1_">
		<g id="corporatio">
			<path class="st5" d="M374.6,288.6v1.4c-0.6-0.4-1.2-0.7-1.7-0.8c-0.5-0.2-1-0.2-1.7-0.2c-1.5,0-2.7,0.4-3.5,1.3
				c-0.8,0.9-1.1,1.9-1.1,3.3c0,1.4,0.4,2.6,1.3,3.4c0.8,0.8,2,1.3,3.4,1.3c0.6,0,1.2-0.1,1.7-0.3c0.5-0.2,1-0.5,1.6-0.9v1.4
				c-0.7,0.2-1.3,0.4-1.8,0.5c-0.5,0.1-1.1,0.1-1.8,0.1c-2.1,0-3.8-0.5-4.9-1.4c-1.2-1-1.8-2.4-1.8-4.2c0-1.2,0.3-2.1,0.8-2.9
				c1.2-1.7,3.3-2.6,6.4-2.6C372.4,288.2,373.5,288.3,374.6,288.6z"/>
			<path class="st5" d="M382.4,288.2c2.1,0,3.7,0.4,4.9,1.3c1.3,1,2,2.4,2,4.2c0,1.8-0.6,3.2-1.9,4.2c-1.2,0.9-2.9,1.4-5,1.4
				c-2.2,0-3.9-0.5-5.1-1.5c-1.2-1-1.8-2.4-1.8-4.2c0-1.1,0.3-2.1,0.8-2.9C377.4,289,379.4,288.2,382.4,288.2z M382.4,289
				c-1.5,0-2.7,0.4-3.4,1.3c-0.7,0.8-1,1.9-1,3.3c0,3.2,1.5,4.8,4.4,4.8c1.5,0,2.6-0.4,3.3-1.3c0.4-0.4,0.6-0.9,0.8-1.4
				c0.2-0.5,0.2-1.2,0.2-1.9C386.8,290.6,385.3,289,382.4,289z"/>
			<path class="st5" d="M394,294.1v4.5c0,0.2,0,0.4,0.1,0.5h-2.5c0.1-0.1,0.1-0.3,0.1-0.5v-9.7c0-0.2,0-0.3-0.1-0.5h4.2
				c1,0,1.8,0.2,2.5,0.5c0.6,0.2,1,0.6,1.3,1c0.3,0.4,0.5,0.9,0.5,1.4c0,1.2-0.7,2-2.2,2.5c-0.4,0.1-0.9,0.2-1.5,0.3l4.6,4.6
				c0.2,0.2,0.4,0.3,0.6,0.4h-3c-0.1-0.2-0.2-0.3-0.3-0.5L394,294.1z M394,293.5h1.1c0.6,0,1.2-0.1,1.6-0.4c0.7-0.4,1.1-1,1.1-1.8
				c0-0.7-0.3-1.3-0.9-1.7c-0.5-0.3-1.1-0.5-1.9-0.5h-1V293.5z"/>
			<path class="st5" d="M405.2,294.4v4.1c0,0.2,0,0.3,0.1,0.5h-2.5c0.1-0.2,0.1-0.3,0.1-0.5v-9.7c0-0.2,0-0.4-0.1-0.5h4.5
				c1.1,0,2,0.2,2.8,0.5c1.2,0.5,1.7,1.3,1.7,2.5c0,1.2-0.7,2.1-2.1,2.7c-0.8,0.3-1.8,0.5-2.9,0.5H405.2z M405.2,293.6h1.2
				c0.7,0,1.2-0.1,1.6-0.3c0.4-0.2,0.7-0.5,0.9-0.8c0.2-0.4,0.3-0.8,0.3-1.2c0-0.7-0.2-1.2-0.7-1.6c-0.5-0.4-1.2-0.6-2-0.6h-1.4
				V293.6z"/>
			<path class="st5" d="M419.8,288.2c2.1,0,3.7,0.4,4.9,1.3c1.3,1,2,2.4,2,4.2c0,1.8-0.6,3.2-1.9,4.2c-1.2,0.9-2.9,1.4-5,1.4
				c-2.2,0-3.9-0.5-5.1-1.5c-1.2-1-1.8-2.4-1.8-4.2c0-1.1,0.3-2.1,0.8-2.9C414.9,289,416.9,288.2,419.8,288.2z M419.8,289
				c-1.5,0-2.7,0.4-3.4,1.3c-0.7,0.8-1,1.9-1,3.3c0,3.2,1.5,4.8,4.4,4.8c1.5,0,2.6-0.4,3.3-1.3c0.4-0.4,0.6-0.9,0.8-1.4
				c0.2-0.5,0.2-1.2,0.2-1.9C424.2,290.6,422.7,289,419.8,289z"/>
			<path class="st5" d="M431.4,294.1v4.5c0,0.2,0,0.4,0.1,0.5H429c0.1-0.1,0.1-0.3,0.1-0.5v-9.7c0-0.2,0-0.3-0.1-0.5h4.2
				c1,0,1.8,0.2,2.5,0.5c0.6,0.2,1,0.6,1.3,1c0.3,0.4,0.5,0.9,0.5,1.4c0,1.2-0.7,2-2.2,2.5c-0.4,0.1-0.9,0.2-1.6,0.3l4.6,4.6
				c0.2,0.2,0.4,0.3,0.6,0.4h-3c-0.1-0.2-0.2-0.3-0.3-0.5L431.4,294.1z M431.4,293.5h1.1c0.6,0,1.2-0.1,1.6-0.4
				c0.7-0.4,1.1-1,1.1-1.8c0-0.7-0.3-1.3-0.9-1.7c-0.5-0.3-1.1-0.5-1.9-0.5h-1V293.5z"/>
			<path class="st5" d="M441.5,295.7l-1.3,2.9c-0.1,0.1-0.1,0.3-0.1,0.4h-1.3c0.1-0.2,0.2-0.3,0.3-0.4l4.6-9.9
				c0.1-0.1,0.1-0.3,0.1-0.4h2c0,0.1,0,0.2,0.1,0.4l4.7,9.9c0.1,0.1,0.2,0.3,0.3,0.4h-2.7c0-0.1,0-0.3-0.1-0.4l-1.3-2.9H441.5z
				 M441.8,294.9h4.4L444,290L441.8,294.9z"/>
			<path class="st5" d="M449.5,288.3h10.1v1c-0.3,0-0.6-0.1-0.9-0.1h-3v9.3c0,0.2,0,0.4,0.1,0.5h-2.5c0.1-0.2,0.1-0.3,0.1-0.5v-9.3
				h-3c-0.3,0-0.6,0-0.9,0.1V288.3z"/>
			<path class="st5" d="M460.8,288.3h2.5c-0.1,0.1-0.1,0.3-0.1,0.5v9.7c0,0.2,0,0.4,0.1,0.5h-2.5c0.1-0.2,0.1-0.3,0.1-0.5v-9.7
				C460.9,288.6,460.9,288.5,460.8,288.3z"/>
			<path class="st5" d="M472.6,288.2c2.1,0,3.7,0.4,4.9,1.3c1.3,1,2,2.4,2,4.2c0,1.8-0.6,3.2-1.9,4.2c-1.2,0.9-2.9,1.4-5,1.4
				c-2.2,0-3.9-0.5-5.1-1.5c-1.2-1-1.8-2.4-1.8-4.2c0-1.1,0.3-2.1,0.8-2.9C467.7,289,469.7,288.2,472.6,288.2z M472.6,289
				c-1.5,0-2.7,0.4-3.4,1.3c-0.7,0.8-1,1.9-1,3.3c0,3.2,1.5,4.8,4.4,4.8c1.5,0,2.6-0.4,3.3-1.3c0.4-0.4,0.6-0.9,0.8-1.4
				c0.2-0.5,0.2-1.2,0.2-1.9C477,290.6,475.5,289,472.6,289z"/>
		</g>
		<rect id="banda_1_" x="364" y="281.4" class="st5" width="115.4" height="2.3"/>
		<g id="iso_1_">
			<rect x="404.8" y="199.9" class="st5" width="6.8" height="76.9"/>
			<rect x="432.1" y="200.1" class="st5" width="6.6" height="76.2"/>
			<rect x="413.8" y="190.8" class="st5" width="6.7" height="85.8"/>
			<rect x="422.6" y="190.8" class="st5" width="7.2" height="85.8"/>
			<path class="st5" d="M458.2,234c-1.4-5.5-8-9-17.2-10v2.5c6.7,1,11.4,3.6,12.5,7.5c2,7.7-10.8,17.7-28.6,22.3
				c-17.8,4.6-33.8,2.1-35.8-5.7c-1.4-5.3,4.1-11.6,13.4-16.5v-2.6c-12.1,6-19.5,14.4-17.6,21.5c2.5,9.6,20.9,13.1,41.1,7.9
				C446.3,255.6,460.7,243.6,458.2,234z"/>
		</g>
	</g>
</g>
<g>
	<rect id="banda" x="359.8" y="124.9" class="st6" width="133.1" height="2.6"/>
	<g id="iso">
		<rect x="406.8" y="31" class="st7" width="7.9" height="88.7"/>
		<rect x="438.2" y="31.2" class="st7" width="7.6" height="87.9"/>
		<rect x="417.2" y="20.5" class="st8" width="7.7" height="98.9"/>
		<rect x="427.3" y="20.5" class="st8" width="8.3" height="98.9"/>
		<path class="st9" d="M468.4,70.3c-1.6-6.3-9.3-10.3-19.8-11.5v2.8c7.8,1.1,13.2,4.1,14.4,8.7c2.3,8.9-12.4,20.4-32.9,25.7
			c-20.5,5.3-39,2.4-41.3-6.5c-1.6-6.1,4.8-13.4,15.5-19.1v-3c-14,6.9-22.4,16.6-20.3,24.8c2.9,11.1,24.1,15.1,47.5,9.1
			C454.6,95.2,471.2,81.3,468.4,70.3z"/>
	</g>
	<g>
		<path class="st8" d="M373.9,133.3v2.1c-0.9-0.6-1.6-1-2.3-1.2c-0.7-0.2-1.4-0.3-2.3-0.3c-2.1,0-3.7,0.7-4.8,2
			c-1.1,1.2-1.6,2.8-1.6,4.8c0,2.1,0.6,3.7,1.8,5c1.2,1.2,2.7,1.8,4.7,1.8c0.9,0,1.6-0.1,2.3-0.4c0.7-0.2,1.4-0.7,2.2-1.3v2.1
			c-0.9,0.4-1.7,0.6-2.5,0.7c-0.7,0.1-1.6,0.2-2.6,0.2c-3,0-5.3-0.7-6.8-2c-1.7-1.4-2.6-3.5-2.6-6.2c0-1.7,0.3-3.1,1-4.2
			c1.6-2.5,4.5-3.8,8.8-3.8C371,132.6,372.5,132.9,373.9,133.3z"/>
		<path class="st8" d="M381.9,132.6c2.8,0,5.1,0.6,6.8,1.9c1.8,1.4,2.7,3.5,2.7,6.1c0,2.6-0.9,4.7-2.6,6.1c-1.6,1.3-4,2-6.9,2
			c-3.1,0-5.4-0.7-7-2.1c-1.6-1.5-2.4-3.5-2.4-6.1c0-1.6,0.4-3.1,1.2-4.3C375,133.9,377.8,132.7,381.9,132.6z M381.9,133.9
			c-2.1,0-3.7,0.7-4.7,2c-0.9,1.2-1.4,2.8-1.4,4.8c0,4.6,2,7,6.1,7c2,0,3.6-0.7,4.6-2c0.5-0.6,0.9-1.3,1.1-2.1
			c0.2-0.8,0.3-1.7,0.3-2.8C387.9,136.2,385.9,133.9,381.9,133.9z"/>
		<path class="st8" d="M395,141.3v6.5c0,0.3,0,0.5,0.1,0.8h-3.5c0.1-0.2,0.1-0.5,0.1-0.8v-14.2c0-0.3,0-0.5-0.1-0.7h5.9
			c1.3,0,2.5,0.2,3.5,0.7c0.8,0.4,1.4,0.8,1.8,1.4c0.5,0.6,0.7,1.3,0.7,2.1c0,1.8-1,2.9-3,3.6c-0.6,0.2-1.3,0.3-2.1,0.5l6.3,6.8
			c0.3,0.3,0.5,0.5,0.8,0.6h-4.2c-0.1-0.2-0.2-0.5-0.4-0.7L395,141.3z M395,140.4h1.5c0.9,0,1.6-0.2,2.3-0.5c1-0.6,1.5-1.5,1.5-2.6
			c0-1.1-0.4-1.9-1.3-2.5c-0.6-0.5-1.5-0.7-2.7-0.7H395V140.4z"/>
		<path class="st8" d="M407.7,141.8v6c0,0.2,0,0.5,0.1,0.8h-3.5c0.1-0.2,0.1-0.5,0.1-0.8v-14.1c0-0.3,0-0.5-0.1-0.8h6.2
			c1.5,0,2.8,0.2,3.8,0.7c1.6,0.8,2.4,2,2.4,3.6c0,1.8-1,3.1-2.9,3.9c-1.1,0.5-2.5,0.7-4.1,0.7H407.7z M407.7,140.6h1.7
			c0.9,0,1.7-0.1,2.3-0.4c0.5-0.3,1-0.7,1.3-1.2c0.3-0.5,0.5-1.1,0.5-1.8c0-1-0.3-1.8-1-2.3c-0.7-0.6-1.6-0.9-2.8-0.9h-2V140.6z"/>
		<path class="st8" d="M425,132.6c2.8,0,5.1,0.6,6.8,1.9c1.8,1.4,2.7,3.5,2.7,6.1c0,2.6-0.9,4.7-2.6,6.1c-1.6,1.3-4,2-6.9,2
			c-3.1,0-5.4-0.7-7-2.1c-1.6-1.5-2.4-3.5-2.4-6.1c0-1.6,0.4-3.1,1.2-4.3C418.2,133.9,421,132.7,425,132.6z M425,133.9
			c-2.1,0-3.7,0.7-4.7,2c-0.9,1.2-1.4,2.8-1.4,4.8c0,4.6,2,7,6.1,7c2,0,3.6-0.7,4.6-2c0.5-0.6,0.9-1.3,1.1-2.1
			c0.2-0.8,0.3-1.7,0.3-2.8C431.1,136.2,429.1,133.9,425,133.9z"/>
		<path class="st8" d="M438.2,141.3v6.5c0,0.3,0,0.5,0.1,0.8h-3.5c0.1-0.2,0.1-0.5,0.1-0.8v-14.2c0-0.3,0-0.5-0.1-0.7h5.9
			c1.3,0,2.5,0.2,3.5,0.7c0.8,0.4,1.4,0.8,1.8,1.4c0.5,0.6,0.7,1.3,0.7,2.1c0,1.8-1,2.9-3,3.6c-0.6,0.2-1.3,0.3-2.1,0.5l6.3,6.8
			c0.3,0.3,0.5,0.5,0.8,0.6h-4.2c-0.1-0.2-0.2-0.5-0.4-0.7L438.2,141.3z M438.2,140.4h1.5c0.9,0,1.6-0.2,2.3-0.5
			c1-0.6,1.5-1.5,1.5-2.6c0-1.1-0.4-1.9-1.3-2.5c-0.6-0.5-1.5-0.7-2.7-0.7h-1.3V140.4z"/>
		<path class="st8" d="M449.3,143.6l-1.9,4.3c-0.1,0.2-0.1,0.4-0.1,0.7h-1.8c0.2-0.2,0.3-0.4,0.4-0.7l6.3-14.4
			c0.1-0.2,0.1-0.4,0.1-0.6h2.8c0,0.2,0.1,0.3,0.1,0.5l6.5,14.5c0.1,0.2,0.3,0.4,0.5,0.7h-3.8c0-0.2,0-0.4-0.1-0.7l-1.9-4.3H449.3z
			 M449.8,142.5h6.2l-3.1-7.1L449.8,142.5z"/>
		<path class="st8" d="M457.5,132.9h14v1.4c-0.5-0.1-0.9-0.1-1.2-0.1h-4.1v13.6c0,0.3,0,0.5,0.1,0.8h-3.5c0.1-0.2,0.1-0.5,0.1-0.8
			v-13.6h-4.2c-0.4,0-0.8,0-1.2,0.1V132.9z"/>
		<path class="st8" d="M470.2,132.9h3.5c-0.1,0.2-0.1,0.4-0.1,0.7v14.2c0,0.3,0.1,0.6,0.1,0.8h-3.5c0.1-0.2,0.1-0.5,0.1-0.8v-14.2
			C470.4,133.4,470.3,133.1,470.2,132.9z"/>
		<path class="st8" d="M483.7,132.6c2.8,0,5.1,0.6,6.8,1.9c1.8,1.4,2.7,3.5,2.7,6.1c0,2.6-0.9,4.7-2.6,6.1c-1.6,1.3-4,2-6.9,2
			c-3.1,0-5.4-0.7-7-2.1c-1.6-1.5-2.4-3.5-2.4-6.1c0-1.6,0.4-3.1,1.2-4.3C476.9,133.9,479.6,132.7,483.7,132.6z M483.7,133.9
			c-2.1,0-3.7,0.7-4.7,2c-0.9,1.2-1.4,2.8-1.4,4.8c0,4.6,2,7,6.1,7c2,0,3.6-0.7,4.6-2c0.5-0.6,0.9-1.3,1.1-2.1
			c0.2-0.8,0.3-1.7,0.3-2.8C489.8,136.2,487.7,133.9,483.7,133.9z"/>
	</g>
</g>
<g>
	<g id="magma_2_">
		<g>
			<path class="st7" d="M114.8,213.1l-5.9,34.9c0,0.1,0,0.3,0,0.6v0.2c0,0.3,0,0.6,0,0.9h-2.1c0.1-0.6,0.3-1.2,0.5-1.9l6.4-38.8
				c0,0,0-0.1,0-0.2l0-1.6h3.7c0.1,0.7,0.2,1.2,0.3,1.4l12.7,36.8l12.9-37c0.1-0.3,0.1-0.7,0.1-1.2h3.9c0,0.2,0,0.3,0,0.5
				c0,0.4,0,0.7,0,0.7L153,248c0.1,0.6,0.3,1.2,0.4,1.7h-4.2c0.1-0.4,0.1-0.7,0.1-1c0-0.2,0-0.4,0-0.6l-5.5-36.1l-12.4,36
				c-0.2,0.6-0.3,1.2-0.3,1.7h-3.6c0-0.2,0-0.3,0-0.4c0-0.3-0.1-0.6-0.2-1L114.8,213.1z"/>
		</g>
		<g>
			<path class="st9" d="M164,236.5l-4.1,11.5c-0.2,0.5-0.3,1.1-0.2,1.8h-4c0.4-0.6,0.7-1.2,0.9-1.8l13.9-39.1
				c0.2-0.5,0.3-1.1,0.3-1.6h6.2c0,0.4,0.1,0.9,0.3,1.4l14.3,39.3c0.2,0.5,0.6,1.1,1,1.8h-8.3c0-0.6-0.1-1.2-0.3-1.8l-4.1-11.5H164z
				 M165.1,233.4h13.6l-6.9-19.2L165.1,233.4z"/>
		</g>
		<g>
			<path class="st10" d="M231,208.6v8.9c-3.3-3-6.9-4.5-10.8-4.5c-3.3,0-5.9,1.2-7.8,3.5c-1.2,1.5-2,3.2-2.5,5.3
				c-0.5,2.1-0.8,4.7-0.8,7.9c0,4.8,0.6,8.5,1.9,11c1.3,2.6,3.2,3.9,5.8,3.9c0.7,0,1.4-0.2,2-0.7v-15.3c0-1-0.2-1.7-0.4-2.1h14.6
				c-0.3,0.5-0.4,1.3-0.4,2.1v16c0,0.9,0,1.5,0.1,1.8s0.2,0.7,0.4,1.3c-4,1.2-7.1,2-9.1,2.3s-4.6,0.5-7.6,0.5
				c-4.5,0-8.1-0.6-10.8-1.8c-7.4-3.3-11.1-9.7-11.1-19.4c0-7.7,2.5-13.5,7.4-17.6c2.4-2,4.9-3.4,7.7-4.1c2.7-0.7,5.7-1.1,8.9-1.1
				C222.2,206.5,226.5,207.2,231,208.6z"/>
		</g>
		<g>
			<path class="st9" d="M245.2,217.1l-4.9,30.8c0,0.1,0,0.2,0,0.3c0,0.2,0,0.7,0.1,1.6h-3.9c0.3-0.9,0.5-1.5,0.5-2l6.1-38.6
				c0-0.2,0.1-0.4,0.1-0.6c0-0.3,0-0.7-0.1-1.2h6.4c0,0.7,0.1,1.2,0.3,1.6l11.3,33l11.4-33.1c0.1-0.4,0.2-0.8,0.2-1.1
				c0-0.2,0-0.3,0-0.4h6.4c0,0.4,0,0.7,0,0.9c0,0.2,0,0.4,0,0.6l5.6,39.1c0.1,0.4,0.2,1,0.5,1.9h-7.6c0.1-0.4,0.1-0.7,0.1-1
				c0-0.2,0-0.5-0.1-0.8l-4.5-31.6l-10.8,31.5c-0.2,0.6-0.3,1.1-0.3,1.5c0,0.1,0,0.2,0,0.3h-6c0-0.2,0-0.3,0-0.4
				c0-0.3-0.1-0.7-0.3-1.2L245.2,217.1z"/>
		</g>
		<g>
			<path class="st7" d="M294.7,235.3l-4.6,12.8c-0.1,0.4-0.2,0.9-0.2,1.6h-2.4c0.4-0.7,0.6-1.2,0.7-1.6l14.1-39.5
				c0.1-0.3,0.2-0.7,0.3-1.3h3.6c0.1,0.4,0.1,0.8,0.2,1.1l14.6,39.8c0.1,0.4,0.4,0.9,0.9,1.6h-4.8c0-0.5-0.2-1.1-0.3-1.6l-4.7-12.8
				H294.7z M295.2,233.7h16.2l-8.2-22.1L295.2,233.7z"/>
		</g>
	</g>
	<g id="iso_3_">
		<rect x="182.7" y="54.8" class="st7" width="12.8" height="144.3"/>
		<rect x="233.9" y="55.2" class="st7" width="12.3" height="143"/>
		<rect x="199.6" y="37.8" class="st11" width="12.5" height="161"/>
		<rect x="216.1" y="37.8" class="st11" width="13.5" height="161"/>
		<path class="st9" d="M282.9,118.7c-2.7-10.3-15.1-16.8-32.3-18.8v4.6c12.6,1.8,21.5,6.7,23.4,14.1c3.8,14.5-20.3,33.2-53.6,41.9
			c-33.4,8.6-63.4,3.9-67.2-10.6c-2.6-9.9,7.8-21.7,25.2-31V114c-22.7,11.3-36.5,27-33.1,40.3c4.7,18,39.2,24.6,77.2,14.8
			C260.5,159.3,287.5,136.7,282.9,118.7z"/>
	</g>
	<g>
		<path class="st11" d="M131,259.7v3.4c-1.4-0.9-2.6-1.6-3.7-1.9c-1.1-0.4-2.3-0.5-3.8-0.5c-3.4,0-6,1.1-7.8,3.2
			c-1.7,2-2.6,4.6-2.6,7.8c0,3.4,1,6.1,2.9,8.1c1.9,2,4.5,3,7.6,3c1.4,0,2.6-0.2,3.7-0.6c1.1-0.4,2.3-1.1,3.6-2.1v3.4
			c-1.5,0.6-2.8,1-4,1.2c-1.2,0.2-2.6,0.3-4.2,0.3c-4.8,0-8.5-1.1-11.1-3.3c-2.8-2.3-4.2-5.7-4.2-10c0-2.8,0.6-5,1.7-6.8
			c2.6-4.1,7.4-6.1,14.3-6.1C126.2,258.6,128.7,259,131,259.7z"/>
		<path class="st11" d="M143.9,258.6c4.6,0,8.3,1,11,3.1c3,2.3,4.5,5.6,4.5,10c0,4.3-1.4,7.6-4.2,9.9c-2.7,2.2-6.4,3.2-11.3,3.2
			c-5,0-8.9-1.2-11.4-3.5c-2.6-2.4-3.9-5.7-3.9-9.9c0-2.7,0.6-5,1.9-7C132.8,260.6,137.3,258.6,143.9,258.6z M143.9,260.6
			c-3.5,0-6,1.1-7.6,3.2c-1.5,1.9-2.2,4.5-2.2,7.8c0,7.6,3.3,11.3,9.9,11.3c3.3,0,5.8-1.1,7.5-3.2c0.8-1,1.4-2.1,1.8-3.4
			c0.4-1.2,0.5-2.8,0.5-4.5C153.7,264.4,150.5,260.7,143.9,260.6z"/>
		<path class="st11" d="M165.3,272.6v10.6c0,0.4,0.1,0.8,0.2,1.2h-5.7c0.1-0.3,0.2-0.7,0.2-1.2v-23c0-0.4-0.1-0.8-0.2-1.2h9.5
			c2.2,0,4.1,0.4,5.7,1.1c1.3,0.6,2.3,1.4,3,2.4c0.8,1,1.1,2.2,1.1,3.4c0,2.8-1.7,4.8-5,5.8c-0.9,0.3-2.1,0.5-3.5,0.7l10.3,11
			c0.4,0.4,0.9,0.8,1.3,1h-6.8c-0.2-0.4-0.4-0.8-0.7-1.1L165.3,272.6z M165.3,271.2h2.4c1.4,0,2.6-0.3,3.7-0.9
			c1.7-1,2.5-2.4,2.5-4.3c0-1.7-0.7-3.1-2.1-4.1c-1-0.7-2.5-1.1-4.3-1.1h-2.2V271.2z"/>
		<path class="st11" d="M185.9,273.5v9.7c0,0.4,0.1,0.8,0.2,1.2h-5.7c0.1-0.4,0.2-0.8,0.2-1.2v-23c0-0.5-0.1-0.9-0.2-1.2h10
			c2.4,0,4.5,0.4,6.2,1.2c2.6,1.2,3.9,3.2,3.9,5.8c0,2.9-1.6,5-4.8,6.3c-1.9,0.8-4.1,1.1-6.6,1.1H185.9z M185.9,271.5h2.8
			c1.5,0,2.8-0.2,3.7-0.7c0.9-0.4,1.6-1.1,2.1-1.9c0.5-0.9,0.8-1.8,0.8-2.9c0-1.6-0.5-2.9-1.6-3.8c-1.1-0.9-2.6-1.4-4.5-1.4h-3.2
			V271.5z"/>
		<path class="st11" d="M214,258.6c4.6,0,8.3,1,11,3.1c3,2.3,4.5,5.6,4.5,10c0,4.3-1.4,7.6-4.2,9.9c-2.7,2.2-6.4,3.2-11.3,3.2
			c-5,0-8.9-1.2-11.4-3.5c-2.6-2.4-3.9-5.7-3.9-9.9c0-2.7,0.6-5,1.9-7C202.9,260.6,207.4,258.6,214,258.6z M214.1,260.6
			c-3.5,0-6,1.1-7.6,3.2c-1.5,1.9-2.2,4.5-2.2,7.8c0,7.6,3.3,11.3,9.9,11.3c3.3,0,5.8-1.1,7.5-3.2c0.8-1,1.4-2.1,1.8-3.4
			c0.4-1.2,0.5-2.8,0.5-4.5C223.9,264.4,220.6,260.7,214.1,260.6z"/>
		<path class="st11" d="M235.5,272.6v10.6c0,0.4,0.1,0.8,0.2,1.2H230c0.1-0.3,0.2-0.7,0.2-1.2v-23c0-0.4-0.1-0.8-0.2-1.2h9.5
			c2.2,0,4.1,0.4,5.7,1.1c1.3,0.6,2.3,1.4,3,2.4c0.8,1,1.1,2.2,1.1,3.4c0,2.8-1.7,4.8-5,5.8c-0.9,0.3-2.1,0.5-3.5,0.7l10.3,11
			c0.4,0.4,0.8,0.8,1.3,1h-6.8c-0.2-0.4-0.4-0.8-0.7-1.1L235.5,272.6z M235.4,271.2h2.4c1.4,0,2.6-0.3,3.7-0.9
			c1.7-1,2.5-2.4,2.5-4.3c0-1.7-0.7-3.1-2.1-4.1c-1-0.7-2.5-1.1-4.3-1.1h-2.2V271.2z"/>
		<path class="st11" d="M253.5,276.5l-3,6.9c-0.1,0.3-0.2,0.7-0.2,1.1h-3c0.3-0.4,0.5-0.7,0.6-1.1l10.3-23.5
			c0.1-0.3,0.2-0.6,0.2-0.9h4.6c0,0.3,0.1,0.5,0.2,0.8l10.6,23.6c0.2,0.3,0.4,0.7,0.8,1.1h-6.1c0-0.3-0.1-0.7-0.2-1.1l-3-6.9H253.5z
			 M254.3,274.6h10l-5.1-11.5L254.3,274.6z"/>
		<path class="st11" d="M266.8,259h22.7v2.3c-0.7-0.1-1.4-0.2-1.9-0.2h-6.7v22.1c0,0.5,0.1,0.9,0.2,1.2h-5.6
			c0.1-0.4,0.2-0.8,0.2-1.2v-22.1h-6.8c-0.6,0-1.3,0.1-2,0.2V259z"/>
		<path class="st11" d="M287.6,259h5.6c-0.1,0.3-0.2,0.7-0.2,1.2v23c0,0.5,0.1,0.9,0.2,1.2h-5.6c0.1-0.4,0.2-0.8,0.2-1.2v-23
			C287.8,259.8,287.7,259.4,287.6,259z"/>
		<path class="st11" d="M309.4,258.6c4.6,0,8.3,1,11,3.1c3,2.3,4.5,5.6,4.5,10c0,4.3-1.4,7.6-4.2,9.9c-2.7,2.2-6.4,3.2-11.3,3.2
			c-5,0-8.9-1.2-11.4-3.5c-2.6-2.4-3.9-5.7-3.9-9.9c0-2.7,0.6-5,1.9-7C298.3,260.6,302.9,258.6,309.4,258.6z M309.5,260.6
			c-3.5,0-6,1.1-7.6,3.2c-1.5,1.9-2.2,4.5-2.2,7.8c0,7.6,3.3,11.3,9.9,11.3c3.3,0,5.8-1.1,7.5-3.2c0.8-1,1.4-2.1,1.8-3.4
			c0.4-1.2,0.5-2.8,0.5-4.5C319.3,264.4,316,260.7,309.5,260.6z"/>
	</g>
</g>
<line class="st12" x1="386.4" y1="161.3" x2="346.4" y2="161.3"/>
<line class="st12" x1="346.4" y1="135.6" x2="346.4" y2="185.6"/>
</svg>
