<?xml version="1.0" encoding="utf-8"?>
<!-- Generator: Adobe Illustrator 26.0.3, SVG Export Plug-In . SVG Version: 6.00 Build 0)  -->
<svg version="1.1" id="Layer_1" xmlns="http://www.w3.org/2000/svg" xmlns:xlink="http://www.w3.org/1999/xlink" x="0px" y="0px"
	 viewBox="0 0 600 320" style="enable-background:new 0 0 600 320;" xml:space="preserve">
<style type="text/css">
	.st0{fill:#808184;}
	.st1{font-family:'MyriadPro-Regular';}
	.st2{font-size:2.4115px;}
	.st3{fill:none;stroke:#808184;stroke-width:7.353100e-02;}
	.st4{fill:none;stroke:#808184;stroke-width:7.353100e-02;stroke-dasharray:0.2102;}
	.st5{fill:#E6E7E8;stroke:#808184;stroke-width:7.353100e-02;}
	.st6{fill:#E6E7E8;stroke:#808184;stroke-width:6.673700e-02;}
	.st7{fill:#6D6E70;}
	.st8{fill:#929497;}
	.st9{fill:#FFC629;}
	.st10{fill:#404041;}
	.st11{fill:none;stroke:#808285;stroke-width:0.5;stroke-dasharray:4,4;}
</style>
<g>
	<g>
		<g id="txt_2_">
			<text transform="matrix(1 0 0 1 486.4922 281.9004)" class="st0 st1 st2">X</text>
			<text transform="matrix(1 0 0 1 488.8174 296.7744)" class="st0 st1 st2">2½X</text>
			<text transform="matrix(1 0 0 1 472.3232 235.332)" class="st0 st1 st2">19X</text>
			<text transform="matrix(1 0 0 1 463.2402 202.4141)" class="st0 st1 st2">5X</text>
			<text transform="matrix(1 0 0 1 463.5469 272.167)" class="st0 st1 st2">3X</text>
			<text transform="matrix(1 0 0 1 486.4922 288.875)" class="st0 st1 st2">X</text>
			<text transform="matrix(1 0 0 1 488.8174 285.3877)" class="st0 st1 st2">½X</text>
			<g>
				<text transform="matrix(1 0 0 1 421.8047 174.5146)" class="st0 st1 st2">7½X</text>
			</g>
			<g>
				<text transform="matrix(1 0 0 1 416.9033 183.8145)" class="st0 st1 st2">1½X</text>
			</g>
			<g>
				<text transform="matrix(1 0 0 1 412.8428 180.3291)" class="st0 st1 st2">½X</text>
			</g>
			<g>
				<text transform="matrix(1 0 0 1 407.6045 183.8145)" class="st0 st1 st2">1½X</text>
			</g>
			<g>
				<text transform="matrix(1 0 0 1 403.542 180.3291)" class="st0 st1 st2">½X</text>
			</g>
			<g>
				<text transform="matrix(1 0 0 1 426.2051 183.8145)" class="st0 st1 st2">1½X</text>
			</g>
			<g>
				<text transform="matrix(1 0 0 1 422.1426 180.3291)" class="st0 st1 st2">½X</text>
			</g>
			<g>
				<text transform="matrix(1 0 0 1 435.5049 183.8145)" class="st0 st1 st2">1½X</text>
			</g>
			<g>
				<text transform="matrix(1 0 0 1 431.4434 180.3291)" class="st0 st1 st2">½X</text>
			</g>
			<g>
				<text transform="matrix(1 0 0 1 440.7432 180.3291)" class="st0 st1 st2">½X</text>
			</g>
		</g>
		<path id="cotas_2_" class="st3" d="M485.3,278.7v4.6 M487.7,290.3l-0.1,11.8 M462.1,190.1v23.5 M485.3,285.7v4.6 M487.7,285.7
			v-2.4 M406.5,176.5h34.6 M462.1,264.8v14.1 M413.3,182.2h2.4 M415.6,185.7h7 M404,182.2h2.4 M406.3,185.7h7 M422.5,182.2h2.4
			 M424.9,185.7h7 M431.9,182.2h2.4 M434.2,185.7h7 M441.1,182.2h2.4 M471.3,190.4v88.3"/>
		<path id="elipse-grilla_2_" class="st4" d="M423.5,226c-21.5,0-38.9,8.2-38.9,18.4s17.5,18.4,38.9,18.4c21.5,0,38.9-8.2,38.9-18.4
			S444.9,226,423.5,226z M423.6,258.1c-18.9,0-34.1-6.7-34.1-14.8c0-8.2,15.3-14.8,34.1-14.8c18.9,0,34.1,6.7,34.1,14.8
			S442.4,258.1,423.6,258.1z M382.3,244.4h82.5 M423.5,260.6v-41.7 M418.8,226.6c-20.8,5.3-35.5,17.8-33.1,27.5
			c2.6,9.9,21.5,13.5,42.2,8.1c20.8-5.3,35.5-17.8,33.1-27.5C458.6,224.9,439.7,221.2,418.8,226.6z M427,257.5
			c-18.3,4.7-34.7,2.2-36.8-5.9c-2.1-7.9,11.1-18.2,29.4-22.9s34.7-2.2,36.8,5.9C458.3,242.6,445.1,252.9,427,257.5z M383.5,254.8
			l79.9-20.6 M428.7,259.9l-10.5-40.4"/>
		<path id="grilla_2_" class="st4" d="M406.1,181.3l0.1,99.6 M404,180.2l0.1,99.6 M443.4,179.9l0.1,99.6 M413.1,181.1l0.1,99.6
			 M415.5,181.3l0.1,99.6 M422.5,181.2l0.1,99.6 M424.8,181.1l0.1,99.6 M431.7,181.1l0.1,99.6 M434.1,181.1l0.1,99.6 M441,181.1
			l0.1,99.6 M359.9,278.5h129.6 M360,264.8h129.6 M410.9,190.4h60.4 M401.6,213.7h62.8 M359.6,283.4h130 M359.9,285.6l130.2,0.1
			 M360.8,290.4l128.3-0.1 M360.9,301.9l128.2,0.1"/>
		<g id="marca_2_">
			<g id="spiritus">
				<path class="st5" d="M364.4,301.1l0.5-1.3c0.4,0.2,0.7,0.4,0.9,0.6c0.7,0.4,1.5,0.6,2.4,0.6c0.8,0,1.5-0.2,2.1-0.6
					c0.4-0.3,0.6-0.8,0.6-1.3c0-0.6-0.3-1-0.9-1.4c-0.3-0.2-1-0.4-2.2-0.9c-1.1-0.4-2.1-0.8-2.5-1.2c-0.6-0.5-0.8-1.1-0.8-1.7
					s0.2-1.1,0.6-1.6c0.8-0.9,2.2-1.4,4-1.4c1,0,2.2,0.2,3.3,0.6l-0.4,1.1c-1.1-0.6-2.1-0.8-3-0.8c-0.7,0-1.3,0.2-1.7,0.5
					c-0.4,0.3-0.6,0.7-0.6,1.1c0,0.4,0.2,0.8,0.6,1.1c0.4,0.3,1.1,0.6,2.4,1c1.3,0.4,2.2,0.9,2.7,1.3c0.6,0.5,0.8,1.2,0.8,2
					c0,0.6-0.2,1.2-0.6,1.7c-0.8,1-2.3,1.6-4.2,1.6c-0.7,0-1.3-0.1-2-0.2C365.8,301.7,365.1,301.4,364.4,301.1z"/>
				<path class="st5" d="M383.8,297.2v4.1c0,0.2,0,0.3,0.1,0.5h-2.6c0.1-0.2,0.1-0.3,0.1-0.5v-9.8c0-0.2,0-0.4-0.1-0.5h4.5
					c1.1,0,2.1,0.2,2.8,0.5c1.1,0.5,1.7,1.3,1.7,2.5c0,1.2-0.7,2.2-2.2,2.7c-0.8,0.3-1.8,0.5-3,0.5H383.8z M383.8,296.3h1.2
					c0.7,0,1.2-0.1,1.6-0.3c0.4-0.2,0.7-0.4,0.9-0.8c0.2-0.4,0.3-0.7,0.3-1.2c0-0.7-0.2-1.2-0.7-1.6c-0.5-0.4-1.1-0.6-2.1-0.6h-1.4
					v4.6H383.8z"/>
				<path class="st5" d="M398.5,290.9h2.6c-0.1,0.1-0.1,0.3-0.1,0.5v9.9c0,0.2,0,0.4,0.1,0.5h-2.6c0.1-0.2,0.1-0.3,0.1-0.5v-9.9
					C398.6,291.3,398.5,291.1,398.5,290.9z"/>
				<path class="st5" d="M412.7,296.8v4.5c0,0.2,0,0.4,0.1,0.5h-2.6c0.1-0.1,0.1-0.3,0.1-0.5v-9.9c0-0.2,0-0.3-0.1-0.5h4.3
					c1,0,1.8,0.2,2.6,0.5c0.6,0.2,1,0.6,1.3,1c0.3,0.4,0.5,0.9,0.5,1.4c0,1.2-0.7,2.1-2.3,2.5c-0.4,0.1-0.9,0.2-1.5,0.3l4.6,4.7
					c0.2,0.2,0.4,0.3,0.6,0.4h-3.1c-0.1-0.2-0.2-0.3-0.3-0.5L412.7,296.8z M412.7,296.2h1.1c0.6,0,1.2-0.1,1.6-0.4
					c0.7-0.4,1.1-1,1.1-1.8c0-0.7-0.3-1.3-0.9-1.7c-0.4-0.3-1.1-0.5-2-0.5h-0.9v4.5H412.7z"/>
				<path class="st5" d="M427.9,290.9h2.6c-0.1,0.1-0.1,0.3-0.1,0.5v9.9c0,0.2,0,0.4,0.1,0.5h-2.6c0.1-0.2,0.1-0.3,0.1-0.5v-9.9
					C428,291.3,428,291.1,427.9,290.9z"/>
				<path class="st5" d="M437.8,290.9H448v1c-0.3,0-0.6-0.1-0.9-0.1h-3v9.5c0,0.2,0,0.4,0.1,0.5h-2.6c0.1-0.2,0.1-0.3,0.1-0.5v-9.5
					h-3.1c-0.3,0-0.6,0-0.9,0.1L437.8,290.9L437.8,290.9z"/>
				<path class="st5" d="M466.4,290.9c-0.1,0.1-0.1,0.3-0.1,0.5v6.8c0,0.8-0.3,1.6-0.8,2.2c-0.5,0.6-1.2,1-2.2,1.2
					c-0.8,0.2-1.7,0.3-2.8,0.3c-1.4,0-2.6-0.2-3.4-0.6c-0.6-0.3-1.1-0.7-1.5-1.3c-0.4-0.5-0.5-1.1-0.5-1.7v-6.8c0-0.2,0-0.4-0.1-0.5
					h2.6c-0.1,0.2-0.1,0.3-0.1,0.5v6.9c0,0.6,0.2,1.2,0.6,1.6c0.6,0.7,1.7,1.1,3.2,1.1c1.2,0,2.3-0.3,3-0.8c0.7-0.5,1-1.2,1-2.3
					v-6.6c0-0.2,0-0.4-0.1-0.5L466.4,290.9L466.4,290.9z"/>
				<path class="st5" d="M474.4,301.1l0.5-1.3c0.4,0.2,0.7,0.4,0.9,0.6c0.7,0.4,1.5,0.6,2.4,0.6s1.5-0.2,2.1-0.6
					c0.4-0.3,0.6-0.8,0.6-1.3c0-0.6-0.3-1-0.9-1.4c-0.3-0.2-1-0.4-2.2-0.9c-1.1-0.4-2.1-0.8-2.5-1.2c-0.6-0.5-0.8-1.1-0.8-1.7
					s0.2-1.1,0.6-1.6c0.8-0.9,2.2-1.4,4-1.4c1,0,2.2,0.2,3.3,0.6l-0.4,1.1c-1.1-0.6-2.1-0.8-3-0.8c-0.7,0-1.3,0.2-1.7,0.5
					c-0.4,0.3-0.5,0.7-0.5,1.1c0,0.4,0.2,0.8,0.6,1.1c0.4,0.3,1.1,0.6,2.4,1c1.3,0.4,2.2,0.9,2.7,1.3c0.6,0.5,0.8,1.2,0.8,2
					c0,0.6-0.2,1.2-0.6,1.7c-0.8,1-2.3,1.6-4.2,1.6c-0.7,0-1.3-0.1-2-0.2C475.9,301.7,475.1,301.4,474.4,301.1z"/>
			</g>
			<rect id="banda_2_" x="364.4" y="283.4" class="st5" width="118.6" height="2.4"/>
			<g id="iso_00000005950778146144090140000007645788807175751059_">
				<rect x="406.3" y="213.7" class="st6" width="7" height="65"/>
				<rect x="434.4" y="213.8" class="st6" width="6.7" height="64.5"/>
				<rect x="415.6" y="190.4" class="st5" width="6.9" height="88.1"/>
				<rect x="424.6" y="190.4" class="st5" width="7.4" height="88.1"/>
				<path class="st5" d="M461.2,234.7c-1.4-5.7-8.2-9.2-17.7-10.3v2.6c6.9,1,11.7,3.7,12.8,7.7c2.1,7.9-11.1,18.2-29.4,22.9
					c-18.3,4.7-34.7,2.2-36.8-5.9c-1.4-5.4,4.2-11.9,13.8-17v-2.7c-12.4,6.2-20,14.8-18.1,22.1c2.6,9.9,21.5,13.5,42.2,8.1
					C448.9,256.9,463.7,244.5,461.2,234.7z"/>
			</g>
		</g>
	</g>
</g>
<g>
	<g>
		<rect id="banda_1_" x="359.5" y="124.4" class="st7" width="133.7" height="2.6"/>
		<g id="iso_1_">
			<rect x="406.7" y="45.8" class="st8" width="7.9" height="73.4"/>
			<rect x="438.3" y="46" class="st8" width="7.6" height="72.7"/>
			<rect x="417.1" y="19.6" class="st9" width="7.7" height="99.4"/>
			<rect x="427.3" y="19.6" class="st9" width="8.3" height="99.4"/>
			<path class="st7" d="M468.5,69.5c-1.6-6.3-9.3-10.4-19.9-11.6v2.9c7.8,1.1,13.2,4.1,14.4,8.7c2.3,8.9-12.5,20.5-33.1,25.8
				s-39.1,2.4-41.5-6.6c-1.6-6.1,4.8-13.4,15.5-19.1v-3c-14,7-22.5,16.7-20.4,24.9c2.9,11.1,24.2,15.2,47.7,9.1
				C454.7,94.6,471.4,80.6,468.5,69.5z"/>
		</g>
		<g>
			<path class="st9" d="M359.9,147.8l0.7-1.9c0.5,0.4,1,0.6,1.3,0.8c1,0.6,2.1,0.9,3.3,0.9c1.2,0,2.1-0.3,2.8-0.9
				c0.6-0.5,0.9-1.1,0.9-1.9c0-0.9-0.4-1.6-1.3-2.1c-0.4-0.2-1.4-0.7-2.9-1.3c-1.6-0.6-2.8-1.2-3.4-1.9c-0.8-0.7-1.2-1.6-1.2-2.5
				s0.3-1.6,0.9-2.3c1.1-1.3,3-2,5.6-2c1.5,0,3,0.3,4.5,0.8l-0.6,1.7c-1.5-0.8-2.9-1.3-4.1-1.3c-1,0-1.8,0.3-2.4,0.8
				c-0.5,0.4-0.8,1-0.8,1.6s0.3,1.2,0.8,1.6c0.5,0.4,1.6,0.9,3.2,1.5c1.8,0.7,3,1.3,3.6,2c0.8,0.8,1.2,1.7,1.2,2.8
				c0,0.9-0.3,1.7-0.9,2.5c-1.2,1.5-3.1,2.3-5.8,2.3c-1,0-1.9-0.1-2.7-0.3C361.8,148.6,360.9,148.3,359.9,147.8z"/>
			<path class="st9" d="M382.1,142v6c0,0.2,0,0.5,0.1,0.8h-3.5c0.1-0.2,0.1-0.5,0.1-0.8v-14.2c0-0.3,0-0.5-0.1-0.8h6.2
				c1.5,0,2.8,0.2,3.9,0.7c1.6,0.8,2.4,2,2.4,3.6c0,1.8-1,3.1-2.9,3.9c-1.1,0.5-2.5,0.7-4.1,0.7h-2.1V142z M382.1,140.8h1.7
				c0.9,0,1.7-0.1,2.3-0.4c0.5-0.3,1-0.7,1.3-1.2s0.5-1.1,0.5-1.8c0-1-0.3-1.8-1-2.4c-0.7-0.6-1.6-0.9-2.8-0.9h-2V140.8z"/>
			<path class="st9" d="M397.9,133.1h3.5c-0.1,0.2-0.1,0.4-0.1,0.7v14.3c0,0.3,0.1,0.6,0.1,0.8h-3.5c0.1-0.2,0.1-0.5,0.1-0.8v-14.3
				C398.1,133.5,398,133.3,397.9,133.1z"/>
			<path class="st9" d="M413.1,141.5v6.5c0,0.3,0,0.5,0.1,0.8h-3.5c0.1-0.2,0.1-0.5,0.1-0.8v-14.2c0-0.3,0-0.5-0.1-0.7h5.9
				c1.3,0,2.5,0.2,3.5,0.7c0.8,0.4,1.4,0.8,1.9,1.5c0.5,0.6,0.7,1.3,0.7,2.1c0,1.8-1,3-3.1,3.6c-0.6,0.2-1.3,0.3-2.2,0.5l6.4,6.8
				c0.3,0.3,0.5,0.5,0.8,0.6h-4.2c-0.1-0.2-0.2-0.5-0.4-0.7L413.1,141.5z M413.1,140.6h1.5c0.9,0,1.6-0.2,2.3-0.5
				c1-0.6,1.5-1.5,1.5-2.6s-0.4-1.9-1.3-2.6c-0.6-0.5-1.5-0.7-2.7-0.7H413v6.4H413.1z"/>
			<path class="st9" d="M429.6,133.1h3.5c-0.1,0.2-0.1,0.4-0.1,0.7v14.3c0,0.3,0.1,0.6,0.1,0.8h-3.5c0.1-0.2,0.1-0.5,0.1-0.8v-14.3
				C429.7,133.5,429.7,133.3,429.6,133.1z"/>
			<path class="st9" d="M438.8,133.1h14.1v1.4c-0.5-0.1-0.9-0.1-1.2-0.1h-4.2v13.7c0,0.3,0,0.5,0.1,0.8h-3.5
				c0.1-0.2,0.1-0.5,0.1-0.8v-13.7H440c-0.4,0-0.8,0-1.2,0.1L438.8,133.1L438.8,133.1z"/>
			<path class="st9" d="M473.7,133.1c-0.1,0.2-0.1,0.5-0.1,0.8v9.8c0,1.3-0.4,2.3-1.1,3.2s-1.7,1.5-2.9,1.8
				c-1.1,0.3-2.4,0.5-3.8,0.5c-2,0-3.5-0.3-4.6-0.9c-0.9-0.5-1.6-1.1-2.1-1.9c-0.5-0.8-0.8-1.6-0.8-2.6v-10c0-0.3,0-0.5-0.1-0.8h3.5
				c-0.1,0.2-0.1,0.5-0.1,0.7v10c0,0.9,0.3,1.7,0.8,2.4c0.9,1.1,2.3,1.6,4.4,1.6c1.7,0,3.1-0.4,4-1.1c0.9-0.8,1.4-1.8,1.4-3.2v-9.6
				c0-0.3-0.1-0.6-0.1-0.8h1.6V133.1z"/>
			<path class="st9" d="M480.4,147.8l0.7-1.9c0.5,0.4,1,0.6,1.3,0.8c1,0.6,2.1,0.9,3.3,0.9c1.2,0,2.1-0.3,2.8-0.9
				c0.6-0.5,0.9-1.1,0.9-1.9c0-0.9-0.4-1.6-1.3-2.1c-0.4-0.2-1.4-0.7-2.9-1.3c-1.6-0.6-2.8-1.2-3.4-1.9c-0.8-0.7-1.2-1.6-1.2-2.5
				s0.3-1.6,0.9-2.3c1.1-1.3,3-2,5.6-2c1.5,0,3,0.3,4.5,0.8l-0.6,1.7c-1.5-0.8-2.9-1.3-4.1-1.3c-1,0-1.8,0.3-2.4,0.8
				c-0.5,0.4-0.8,1-0.8,1.6s0.3,1.2,0.8,1.6c0.5,0.4,1.6,0.9,3.2,1.5c1.8,0.7,3,1.3,3.6,2c0.8,0.8,1.2,1.7,1.2,2.8
				c0,0.9-0.3,1.7-0.9,2.5c-1.2,1.5-3.1,2.3-5.8,2.3c-1,0-1.9-0.1-2.7-0.3C482.3,148.6,481.4,148.3,480.4,147.8z"/>
		</g>
	</g>
</g>
<g>
	<g>
		<g id="magma_1_">
			<g>
				<path class="st8" d="M115,214.1l-6,35.4c0,0.1,0,0.3,0,0.6v0.2c0,0.3,0,0.6,0,0.9h-2.1c0.1-0.6,0.3-1.2,0.5-1.9l6.5-39.3
					c0,0,0-0.1,0-0.2v-1.6h3.7c0.1,0.7,0.2,1.2,0.3,1.4l12.9,37.3l13.1-37.5c0.1-0.3,0.1-0.7,0.1-1.2h3.9c0,0.2,0,0.3,0,0.5
					c0,0.4,0,0.7,0,0.8l6,40c0.1,0.6,0.3,1.2,0.4,1.8H150c0.1-0.4,0.1-0.7,0.1-1c0-0.2,0-0.4,0-0.6l-5.6-36.6l-12.6,36.5
					c-0.2,0.6-0.3,1.2-0.3,1.8H128c0-0.2,0-0.3,0-0.4c0-0.3-0.1-0.6-0.2-1L115,214.1z"/>
			</g>
			<g>
				<path class="st7" d="M164.8,237.8l-4.2,11.7c-0.2,0.5-0.3,1.1-0.3,1.8h-4c0.4-0.6,0.7-1.2,0.9-1.8l14.1-39.7
					c0.2-0.5,0.3-1.1,0.3-1.6h6.3c0,0.4,0.1,0.9,0.3,1.4l14.5,39.8c0.2,0.5,0.6,1.1,1,1.8h-8.4c0-0.6-0.1-1.2-0.3-1.8l-4.1-11.7
					h-16.1V237.8z M165.9,234.7h13.7l-7-19.5L165.9,234.7z"/>
			</g>
			<g>
				<path class="st10" d="M232.7,209.6v9c-3.4-3-7-4.6-11-4.6c-3.4,0-6,1.2-7.9,3.6c-1.2,1.5-2,3.2-2.6,5.3c-0.5,2.1-0.8,4.7-0.8,8
					c0,4.9,0.7,8.6,2,11.2c1.3,2.6,3.3,3.9,5.9,3.9c0.7,0,1.4-0.2,2-0.7v-15.5c0-1-0.2-1.7-0.4-2.2h14.8c-0.3,0.5-0.4,1.3-0.4,2.2
					V246c0,1,0,1.6,0.1,1.8c0,0.3,0.2,0.7,0.4,1.3c-4.1,1.2-7.2,2-9.3,2.3c-2.1,0.4-4.7,0.5-7.8,0.5c-4.5,0-8.2-0.6-11-1.9
					c-7.5-3.3-11.3-9.9-11.3-19.6c0-7.8,2.5-13.7,7.5-17.9c2.4-2,5-3.4,7.8-4.2c2.7-0.7,5.7-1.1,9-1.1
					C223.8,207.5,228.2,208.2,232.7,209.6z"/>
			</g>
			<g>
				<path class="st7" d="M247.1,218.2l-5,31.2c0,0.1,0,0.2,0,0.3c0,0.2,0,0.7,0.1,1.6h-3.9c0.3-0.9,0.5-1.6,0.5-2l6.2-39.2
					c0-0.2,0.1-0.4,0.1-0.6c0-0.3,0-0.7-0.1-1.2h6.5c0,0.7,0.1,1.2,0.3,1.6l11.4,33.4l11.5-33.5c0.1-0.4,0.2-0.8,0.2-1.1
					c0-0.2,0-0.3,0-0.4h6.5c0,0.4,0,0.7,0,0.9s0,0.4,0,0.6l5.7,39.6c0.1,0.4,0.2,1,0.5,1.9h-7.7c0.1-0.4,0.1-0.7,0.1-1
					c0-0.2,0-0.5-0.1-0.8l-4.6-32.1l-10.9,31.9c-0.2,0.6-0.3,1.1-0.3,1.5c0,0.1,0,0.2,0,0.3h-6c0-0.2,0-0.3,0-0.4
					c0-0.3-0.1-0.7-0.3-1.2L247.1,218.2z"/>
			</g>
			<g>
				<path class="st8" d="M297.3,236.7l-4.7,13c-0.1,0.4-0.2,0.9-0.2,1.6h-2.5c0.4-0.7,0.6-1.3,0.8-1.6l14.3-40
					c0.1-0.3,0.2-0.7,0.3-1.3h3.7c0.1,0.4,0.1,0.8,0.3,1.1l14.8,40.3c0.1,0.4,0.4,0.9,0.9,1.6h-4.9c0-0.5-0.2-1.1-0.3-1.6l-4.7-13
					h-17.8V236.7z M297.8,234.9h16.4l-8.3-22.4L297.8,234.9z"/>
			</g>
		</g>
		<g id="iso_2_">
			<rect x="183.8" y="79.6" class="st8" width="13" height="120.5"/>
			<rect x="235.6" y="79.8" class="st8" width="12.5" height="119.4"/>
			<rect x="200.9" y="36.5" class="st9" width="12.7" height="163.1"/>
			<rect x="217.6" y="36.5" class="st9" width="13.7" height="163.1"/>
			<path class="st7" d="M285.3,118.5c-2.7-10.4-15.3-17.1-32.7-19v4.7c12.8,1.9,21.7,6.8,23.7,14.3c3.8,14.7-20.5,33.7-54.3,42.4
				c-33.8,8.7-64.3,3.9-68.1-10.8c-2.6-10,7.9-22,25.5-31.4v-5c-23,11.4-37,27.4-33.5,40.9c4.7,18.2,39.7,24.9,78.2,15
				C262.6,159.6,290,136.7,285.3,118.5z"/>
		</g>
		<g>
			<path class="st9" d="M106.7,285.1l1.1-3.1c0.9,0.6,1.6,1,2.1,1.4c1.7,1,3.5,1.4,5.4,1.4c2,0,3.5-0.5,4.6-1.4
				c1-0.8,1.5-1.9,1.5-3.1c0-1.4-0.7-2.6-2.1-3.4c-0.7-0.4-2.3-1.1-4.8-2.1c-2.7-1-4.5-2-5.6-3.1c-1.3-1.2-1.9-2.6-1.9-4.2
				c0-1.4,0.5-2.7,1.4-3.8c1.9-2.2,4.9-3.3,9.1-3.3c2.4,0,4.9,0.5,7.4,1.4l-1,2.8c-2.4-1.4-4.7-2.1-6.7-2.1c-1.6,0-3,0.4-4,1.3
				c-0.9,0.7-1.3,1.6-1.3,2.6s0.4,1.9,1.3,2.6c0.9,0.7,2.6,1.5,5.3,2.5c2.9,1.1,4.9,2.2,6,3.2c1.3,1.3,2,2.8,2,4.6
				c0,1.5-0.5,2.8-1.4,4.1c-1.9,2.5-5.1,3.8-9.5,3.8c-1.6,0-3.1-0.1-4.4-0.4C109.9,286.4,108.4,285.9,106.7,285.1z"/>
			<path class="st9" d="M143.3,275.6v9.9c0,0.4,0.1,0.8,0.2,1.3h-5.8c0.1-0.4,0.2-0.8,0.2-1.3v-23.4c0-0.5-0.1-0.9-0.2-1.3h10.2
				c2.5,0,4.6,0.4,6.3,1.2c2.6,1.3,4,3.2,4,5.9c0,3-1.6,5.1-4.8,6.4c-1.9,0.8-4.1,1.2-6.7,1.2L143.3,275.6L143.3,275.6z
				 M143.3,273.6h2.8c1.6,0,2.8-0.2,3.8-0.7c0.9-0.4,1.6-1.1,2.1-2s0.8-1.8,0.8-2.9c0-1.6-0.6-2.9-1.7-3.9c-1.1-0.9-2.6-1.4-4.6-1.4
				h-3.2V273.6z"/>
			<path class="st9" d="M169.2,260.9h5.7c-0.1,0.3-0.2,0.7-0.2,1.2v23.4c0,0.5,0.1,1,0.2,1.3h-5.7c0.1-0.4,0.2-0.8,0.2-1.3v-23.4
				C169.4,261.6,169.4,261.2,169.2,260.9z"/>
			<path class="st9" d="M194.1,274.7v10.7c0,0.4,0.1,0.9,0.2,1.3h-5.8c0.1-0.3,0.2-0.7,0.2-1.3V262c0-0.4-0.1-0.8-0.2-1.2h9.7
				c2.2,0,4.1,0.4,5.8,1.1c1.3,0.6,2.3,1.4,3.1,2.4s1.1,2.2,1.1,3.5c0,2.9-1.7,4.9-5,5.9c-0.9,0.3-2.1,0.5-3.5,0.8l10.4,11.2
				c0.4,0.5,0.9,0.8,1.3,1h-7c-0.2-0.4-0.4-0.8-0.7-1.1L194.1,274.7z M194.1,273.3h2.5c1.4,0,2.7-0.3,3.7-0.9c1.7-1,2.5-2.4,2.5-4.3
				c0-1.8-0.7-3.2-2.1-4.2c-1-0.8-2.5-1.1-4.4-1.1h-2.2V273.3z"/>
			<path class="st9" d="M221.2,260.9h5.7c-0.1,0.3-0.2,0.7-0.2,1.2v23.4c0,0.5,0.1,1,0.2,1.3h-5.7c0.1-0.4,0.2-0.8,0.2-1.3v-23.4
				C221.4,261.6,221.3,261.2,221.2,260.9z"/>
			<path class="st9" d="M236.3,260.9h23.1v2.4c-0.8-0.1-1.4-0.2-2-0.2h-6.9v22.4c0,0.5,0.1,0.9,0.2,1.3h-5.7
				c0.1-0.4,0.2-0.8,0.2-1.3v-22.4h-6.9c-0.7,0-1.3,0.1-2,0.2V260.9z"/>
			<path class="st9" d="M293.7,260.9c-0.1,0.3-0.2,0.8-0.2,1.2v16.1c0,2.1-0.6,3.8-1.8,5.3c-1.2,1.4-2.8,2.4-4.8,2.9
				c-1.9,0.5-3.9,0.8-6.2,0.8c-3.2,0-5.8-0.5-7.6-1.4c-1.5-0.8-2.6-1.8-3.4-3.1c-0.8-1.3-1.2-2.7-1.2-4.2v-16.3
				c0-0.5-0.1-0.9-0.2-1.2h5.7c-0.1,0.4-0.2,0.8-0.2,1.2v16.4c0,1.5,0.4,2.8,1.3,3.9c1.5,1.8,3.8,2.7,7.2,2.7c2.9,0,5.1-0.6,6.6-1.9
				c1.6-1.2,2.3-3,2.3-5.3v-15.8c0-0.5-0.1-0.9-0.2-1.2h2.7V260.9z"/>
			<path class="st9" d="M304.6,285.1l1.1-3.1c0.9,0.6,1.6,1,2.1,1.4c1.7,1,3.5,1.4,5.4,1.4c2,0,3.5-0.5,4.6-1.4
				c1-0.8,1.5-1.9,1.5-3.1c0-1.4-0.7-2.6-2.1-3.4c-0.7-0.4-2.3-1.1-4.8-2.1c-2.7-1-4.5-2-5.6-3.1c-1.3-1.2-1.9-2.6-1.9-4.2
				c0-1.4,0.5-2.7,1.4-3.8c1.9-2.2,4.9-3.3,9.1-3.3c2.4,0,4.9,0.5,7.4,1.4l-1,2.8c-2.4-1.4-4.7-2.1-6.7-2.1c-1.6,0-3,0.4-4,1.3
				c-0.9,0.7-1.3,1.6-1.3,2.6s0.4,1.9,1.3,2.6s2.6,1.5,5.3,2.5c2.9,1.1,4.9,2.2,6,3.2c1.3,1.3,2,2.8,2,4.6c0,1.5-0.5,2.8-1.4,4.1
				c-1.9,2.5-5.1,3.8-9.5,3.8c-1.6,0-3.1-0.1-4.4-0.4C307.8,286.4,306.3,285.9,304.6,285.1z"/>
		</g>
	</g>
</g>
<line class="st11" x1="386.3" y1="161.8" x2="346.3" y2="161.8"/>
<line class="st11" x1="346.3" y1="136.1" x2="346.3" y2="186.1"/>
</svg>
