<?xml version="1.0" encoding="utf-8"?>
<!-- Generator: Adobe Illustrator 26.0.3, SVG Export Plug-In . SVG Version: 6.00 Build 0)  -->
<svg version="1.1" id="Layer_1" xmlns="http://www.w3.org/2000/svg" xmlns:xlink="http://www.w3.org/1999/xlink" x="0px" y="0px"
	 viewBox="0 0 600 350" style="enable-background:new 0 0 600 350;" xml:space="preserve">
<style type="text/css">
	.st0{fill:#BF311A;}
	.st1{fill:#929497;}
	.st2{fill:#6D6E70;}
	.st3{fill:#404041;}
</style>
<g id="iso">
	<g>
		<rect x="295.5" y="15.2" class="st0" width="13.6" height="204.9"/>
		<rect x="313.4" y="49.5" class="st1" width="11.1" height="168.8"/>
		<rect x="280.2" y="83.8" class="st1" width="11" height="139.8"/>
	</g>
	<path class="st2" d="M394.2,158.6c-4.6-17.6-30.5-27.2-64.1-25.9v6.2c24.4-0.3,42.6,6.3,45.8,18.5c4.7,18-25.4,41.4-67.2,52.2
		c-41.8,10.8-79.4,5-84-13.1c-4-15.4,17.5-34.8,50-46.8v-6.2c-42.6,14.8-71,41.3-65.4,63c6.3,24.2,52.7,33.1,103.8,19.9
		C364.1,213.1,400.4,182.8,394.2,158.6z"/>
</g>
<g>
	<g id="group">
		<path class="st2" d="M176.2,313.5v2c-2.7-1.3-5.3-2-7.8-2c-2.9,0-5.3,0.8-7.2,2.4c-1.1,0.9-1.9,2-2.3,3.1c-0.5,1.4-0.8,3-0.8,4.7
			c0,1.2,0.2,2.4,0.5,3.5c0.3,1.2,0.7,2.1,1.3,2.8c1.1,1.5,2.6,2.6,4.7,3.3c1.3,0.4,2.7,0.6,4.3,0.6c2,0,3.9-0.4,5.7-1.2v-9
			c0-0.3,0-0.7-0.1-1.1h2.8c-0.1,0.4-0.1,0.7-0.1,1.1v8.7c0,0.4,0.1,0.8,0.3,1.2c-2.2,0.6-3.9,1-5.1,1.3c-1.2,0.2-2.6,0.3-4.1,0.3
			c-3.9,0-7-1-9.2-3c-2.4-2.2-3.7-5-3.7-8.6c0-3.9,1.5-6.8,4.4-8.9c2.3-1.7,5.4-2.5,9.3-2.5c1.3,0,2.4,0.1,3.5,0.3
			C173.4,312.7,174.7,313,176.2,313.5z"/>
		<path class="st2" d="M227.7,324.3v9.6c0,0.3,0,0.7,0.1,1.1h-2.9c0.1-0.4,0.1-0.7,0.1-1.1v-20.3c0-0.3,0-0.7-0.1-1h6.1
			c1.7,0,3.3,0.2,4.6,0.7c1.2,0.4,2.2,1.1,3,1.9c0.8,0.9,1.2,2,1.2,3.2c0,1.8-0.8,3.2-2.3,4.2c-1.5,1-3.7,1.6-6.6,1.7l10.9,9.9
			c0.3,0.3,0.7,0.5,1.2,0.8h-4c-0.1-0.3-0.4-0.6-0.8-0.9L227.7,324.3z M227.7,323.4h2.8c1.4,0,2.7-0.3,3.9-0.8
			c1.9-0.9,2.8-2.3,2.8-4.1c0-0.8-0.2-1.6-0.6-2.3c-0.4-0.7-1-1.3-1.8-1.7c-1.1-0.6-2.7-0.9-4.7-0.9h-2.4V323.4z"/>
		<path class="st2" d="M298.8,312.2c4.1,0,7.3,1,9.6,2.9c2.4,2,3.6,4.9,3.6,8.5c0,3.7-1.2,6.6-3.6,8.6c-2.3,2-5.5,2.9-9.6,2.9
			c-4.4,0-7.7-1-9.9-3.1c-2.3-2.1-3.4-4.9-3.4-8.6c0-3.5,1.2-6.3,3.6-8.3C291.4,313.3,294.6,312.3,298.8,312.2z M298.6,313.4
			c-3.5,0-6.1,1-7.9,3.1c-1.6,1.8-2.3,4.2-2.3,7.1c0,3.1,0.8,5.6,2.3,7.5c1.7,2,4.4,3.1,8.1,3.1c3.4,0,6-1,7.8-2.9
			c1.7-1.8,2.5-4.3,2.5-7.5c0-3.2-0.8-5.7-2.5-7.5c-1-1-2-1.7-3.3-2.2C302,313.6,300.5,313.4,298.6,313.4z"/>
		<path class="st2" d="M379.9,312.5c-0.1,0.3-0.1,0.6-0.1,1.1v14.2c0,1.7-0.5,3.1-1.4,4.2c-1,1.3-2.4,2.2-4.1,2.6
			c-1.6,0.4-3.3,0.6-5.1,0.6c-2.9,0-5.1-0.4-6.7-1.3c-1.1-0.6-2-1.4-2.6-2.4c-0.6-1-0.9-2.1-0.9-3.3v-14.6c0-0.3,0-0.7-0.1-1.1h2.9
			c-0.1,0.4-0.1,0.7-0.1,1.1v14.5c0,1.3,0.4,2.4,1.1,3.4c1.4,1.8,3.8,2.7,7.3,2.7c3.3,0,5.7-0.8,7.2-2.5c1-1.1,1.5-2.5,1.5-4.2
			v-13.9c0-0.4,0-0.7-0.1-1.1H379.9z"/>
		<path class="st2" d="M430.7,324.6v9.2c0,0.4,0,0.7,0.1,1.1H428c0.1-0.4,0.1-0.7,0.1-1.1v-20.3c0-0.3,0-0.7-0.1-1.1h7.3
			c1.9,0,3.5,0.3,5.1,1c2.4,1,3.6,2.6,3.6,4.9c0,1.8-0.8,3.2-2.3,4.3c-1.8,1.3-4.3,1.9-7.5,1.9H430.7z M430.7,323.6h3.3
			c1.6,0,2.9-0.2,3.9-0.5c1-0.4,1.9-1,2.5-1.7c0.7-0.9,1-1.8,1-2.9c0-1.5-0.6-2.7-1.8-3.6c-1.2-0.9-2.9-1.3-5-1.3h-3.8V323.6z"/>
	</g>
	<g>
		<path class="st1" d="M166.5,251.5l-8,47c0,0.2,0,0.5,0,0.8v0.3c0,0.4,0.1,0.8,0.1,1.3h-2.8c0.2-0.8,0.4-1.6,0.6-2.5l8.6-52.2
			c0-0.1,0-0.1,0-0.3l0-2.1h5c0.2,1,0.3,1.6,0.4,1.9l17.1,49.5l17.3-49.8c0.1-0.4,0.2-0.9,0.2-1.6h5.2c0,0.3,0,0.5,0,0.6
			c0,0.6,0,0.9,0,1l7.9,53.1c0.2,0.9,0.4,1.6,0.5,2.3h-5.7c0.1-0.5,0.2-1,0.2-1.3c0-0.3,0-0.6,0-0.8l-7.4-48.6l-16.7,48.4
			c-0.3,0.8-0.4,1.6-0.4,2.3h-4.8c0-0.2,0-0.4,0-0.5c0-0.4-0.1-0.9-0.3-1.4L166.5,251.5z"/>
	</g>
	<g>
		<path class="st2" d="M232.5,282.9l-5.5,15.5c-0.3,0.7-0.4,1.5-0.3,2.4h-5.4c0.5-0.8,0.9-1.6,1.2-2.4l18.7-52.6
			c0.3-0.7,0.4-1.4,0.4-2.1h8.3c0,0.6,0.2,1.2,0.4,1.9l19.3,52.8c0.3,0.7,0.7,1.5,1.4,2.4h-11.2c0-0.8-0.1-1.5-0.4-2.4l-5.5-15.5
			H232.5z M234,278.8h18.2l-9.2-25.8L234,278.8z"/>
	</g>
	<g>
		<path class="st3" d="M322.6,245.5v11.9c-4.5-4-9.3-6.1-14.6-6.1c-4.5,0-8,1.6-10.5,4.8c-1.6,2-2.7,4.3-3.4,7.1
			c-0.7,2.8-1,6.3-1,10.6c0,6.5,0.9,11.4,2.6,14.8c1.7,3.5,4.3,5.2,7.8,5.2c1,0,1.9-0.3,2.6-0.9v-20.6c0-1.3-0.2-2.2-0.6-2.9h19.6
			c-0.4,0.7-0.6,1.7-0.6,2.9v21.5c0,1.3,0,2.1,0.1,2.4c0.1,0.4,0.2,0.9,0.5,1.8c-5.4,1.6-9.5,2.6-12.3,3.1
			c-2.8,0.5-6.2,0.7-10.3,0.7c-6,0-10.9-0.8-14.6-2.5c-10-4.4-15-13.1-15-26c0-10.3,3.3-18.2,9.9-23.7c3.2-2.7,6.6-4.5,10.4-5.5
			c3.6-0.9,7.6-1.4,11.9-1.4C310.8,242.7,316.6,243.6,322.6,245.5z"/>
	</g>
	<g>
		<path class="st2" d="M341.6,256.9l-6.6,41.4c0,0.1,0,0.3,0,0.4c0,0.2,0.1,0.9,0.2,2.1H330c0.4-1.2,0.6-2.1,0.7-2.6l8.2-51.9
			c0.1-0.2,0.1-0.5,0.1-0.8c0-0.4,0-1-0.1-1.6h8.6c0.1,0.9,0.2,1.6,0.4,2.2l15.2,44.3l15.3-44.5c0.2-0.6,0.3-1.1,0.3-1.5
			c0-0.2,0-0.4,0-0.5h8.6c0,0.5,0,0.9,0,1.2c0,0.3,0,0.5,0,0.8l7.6,52.5c0.1,0.5,0.3,1.3,0.7,2.5h-10.2c0.1-0.5,0.2-0.9,0.2-1.3
			c0-0.3,0-0.7-0.1-1l-6-42.5l-14.5,42.4c-0.3,0.8-0.4,1.5-0.4,2c0,0.1,0,0.3,0,0.5h-8c0-0.2,0-0.4,0-0.5c0-0.4-0.1-0.9-0.3-1.6
			L341.6,256.9z"/>
	</g>
	<g>
		<path class="st1" d="M408.2,281.4l-6.2,17.2c-0.2,0.5-0.3,1.2-0.3,2.2h-3.3c0.5-0.9,0.8-1.7,1-2.2l19-53.1
			c0.1-0.4,0.3-0.9,0.4-1.8h4.8c0.1,0.6,0.2,1,0.3,1.4l19.7,53.4c0.2,0.5,0.6,1.3,1.2,2.2h-6.4c-0.1-0.7-0.2-1.4-0.5-2.2l-6.3-17.2
			H408.2z M408.9,279.1h21.7l-11.1-29.8L408.9,279.1z"/>
	</g>
	<rect id="banda" x="155.2" y="305.3" class="st2" width="290.6" height="2.8"/>
	<g>
		<path class="st1" d="M440.5,243.8c0.9,0,1.7,0.2,2.5,0.6c0.8,0.4,1.5,1,1.9,1.7c0.5,0.7,0.7,1.5,0.7,2.4c0,0.8-0.2,1.6-0.7,2.4
			c-0.5,0.7-1.1,1.3-1.9,1.7c-0.8,0.4-1.7,0.6-2.6,0.6c-0.9,0-1.8-0.2-2.6-0.6c-0.8-0.4-1.5-1-1.9-1.7c-0.5-0.7-0.7-1.5-0.7-2.4
			c0-1.4,0.6-2.5,1.7-3.5C437.8,244.2,439,243.8,440.5,243.8z M440.4,244.5c-1.4,0-2.5,0.4-3.4,1.3c-0.8,0.8-1.1,1.7-1.1,2.7
			c0,1.2,0.5,2.2,1.5,3c0.8,0.7,1.8,1,3,1c0.8,0,1.5-0.2,2.2-0.5c0.7-0.4,1.2-0.9,1.6-1.5c0.4-0.6,0.6-1.3,0.6-2
			c0-1.2-0.5-2.2-1.5-3C442.5,244.8,441.6,244.5,440.4,244.5z M439.8,248.9v2c0,0.1,0,0.2,0.1,0.3H438c0.1-0.1,0.1-0.2,0.1-0.3v-4.7
			c0-0.1,0-0.2-0.1-0.3h2.7c0.5,0,1,0.1,1.3,0.3c0.5,0.3,0.7,0.7,0.7,1.2c0,0.7-0.4,1.1-1.3,1.4l1.5,2.1c0.1,0.1,0.2,0.2,0.3,0.3
			h-2.1c0-0.1,0-0.2-0.1-0.3L439.8,248.9z M439.8,248.3h0.3c0.3,0,0.5-0.1,0.7-0.2c0.2-0.2,0.2-0.4,0.2-0.7c0-0.3-0.1-0.5-0.2-0.7
			c-0.2-0.2-0.4-0.2-0.7-0.2h-0.3V248.3z"/>
	</g>
</g>
</svg>
