<?xml version="1.0" encoding="utf-8"?>
<!-- Generator: Adobe Illustrator 26.0.3, SVG Export Plug-In . SVG Version: 6.00 Build 0)  -->
<svg version="1.1" id="Layer_1" xmlns="http://www.w3.org/2000/svg" xmlns:xlink="http://www.w3.org/1999/xlink" x="0px" y="0px"
	 viewBox="0 0 600 320" style="enable-background:new 0 0 600 320;" xml:space="preserve">
<style type="text/css">
	.st0{fill:#808184;}
	.st1{font-family:'MyriadPro-Regular';}
	.st2{font-size:6.6774px;}
	.st3{fill:none;stroke:#808184;stroke-width:0.288;}
	.st4{fill:none;stroke:#808184;stroke-width:0.288;stroke-dasharray:0.8234;}
	.st5{fill:#E6E7E8;stroke:#808184;stroke-width:0.288;}
	.st6{fill:none;stroke:#808184;stroke-width:0.1856;stroke-dasharray:0.5307;}
	.st7{fill:none;stroke:#808184;stroke-width:0.1856;}
	.st8{font-size:4.3036px;}
	.st9{fill:#E6E7E8;stroke:#808184;stroke-width:0.1856;}
	.st10{fill:#E6E7E8;}
</style>
<g id="master-elipse-grilla">
	<g>
		<text transform="matrix(1 0 0 1 184.3486 155.6138)" class="st0 st1 st2">14.5º</text>
		<text transform="matrix(1 0 0 1 41.3936 94.2651)" class="st0 st1 st2">1½X</text>
		<text transform="matrix(1 0 0 1 236.3086 94.2651)" class="st0 st1 st2">1½X</text>
		<text transform="matrix(1 0 0 1 137.5479 229.9131)" class="st0 st1 st2">16½X</text>
		<text transform="matrix(1 0 0 1 262.957 113.2612)" class="st0 st1 st2">½X</text>
		<text transform="matrix(1 0 0 1 262.957 202.208)" class="st0 st1 st2">1½X</text>
	</g>
	<g>
		<path class="st3" d="M171.2,142.3c11.5,6.3,10.6,16,6.4,25.2"/>
		<line class="st3" x1="37.5" y1="97.1" x2="57.1" y2="97.1"/>
		<line class="st3" x1="37.4" y1="220.1" x2="252.8" y2="220.1"/>
		<line class="st3" x1="233.4" y1="97.1" x2="253" y2="97.1"/>
		<line class="st3" x1="260.4" y1="107.1" x2="260.4" y2="113.6"/>
		<line class="st3" x1="260.4" y1="189.9" x2="260.4" y2="209.7"/>
	</g>
	<path class="st4" d="M25,107.1h238.6 M25,113.6h238.6 M25,189.7h238.6 M25,209.3h238.6 M37.5,91.2v132 M57.1,91.2v132 M233.3,91.2
		v132 M252.8,91.2v132 M145.2,209.3c59.5,0,107.7-22.8,107.7-51c0-28.2-48.2-51-107.7-51c-59.5,0-107.7,22.8-107.7,51
		C37.5,186.5,85.7,209.3,145.2,209.3z M145.2,189.7c48.6,0,88.1-17,88.1-38c0-21-39.4-38-88.1-38c-48.6,0-88.1,17-88.1,38
		C57.1,172.7,96.5,189.7,145.2,189.7z M30.9,158.3l228.5,0 M145.2,216.1V100.5 M34.5,186.9l221.2-57.2 M159.6,214.3l-28.9-111.9"/>
	<path class="st5" d="M249.4,131.3c-7.1-27.3-59.5-37.3-117-22.4c-57.6,14.9-98.5,49.1-91.5,76.4c7.1,27.3,59.5,37.3,117,22.4
		C215.5,192.8,256.5,158.6,249.4,131.3z M153,188.7c-47.1,12.2-89.5,5.6-94.8-14.7c-5.3-20.3,28.7-46.6,75.7-58.8
		c47.1-12.2,89.5-5.6,94.8,14.7C234,150.2,200.1,176.6,153,188.7z"/>
</g>
<g id="grilla">
	<path class="st6" d="M370.7,177.9c0-18.2,31.1-32.9,69.4-32.9c38.3,0,69.4,14.7,69.4,32.9c0,18.2-31.1,32.9-69.4,32.9
		C401.7,210.8,370.7,196.1,370.7,177.9z M383.3,173.7c0-13.5,25.4-24.5,56.8-24.5c31.3,0,56.8,11,56.8,24.5
		c0,13.5-25.4,24.5-56.8,24.5C408.7,198.2,383.3,187.3,383.3,173.7z"/>
	<path class="st6" d="M366.4,177.9h147.3 M440.1,215.2v-74.5"/>
	<path class="st6" d="M368.8,196.4l142.6-36.9 M449.4,214l-18.7-72.1"/>
	<line class="st6" x1="325.2" y1="214" x2="556.7" y2="214"/>
	<line class="st6" x1="409.9" y1="106.1" x2="510.8" y2="106.1"/>
	<line class="st6" x1="428.4" y1="81.3" x2="498" y2="81.3"/>
	<line class="st6" x1="410.7" y1="56.4" x2="523.2" y2="56.4"/>
	<line class="st6" x1="325.2" y1="222.4" x2="556.7" y2="222.3"/>
	<line class="st6" x1="325.2" y1="264.1" x2="570.2" y2="264"/>
	<line class="st6" x1="325.2" y1="272.4" x2="570.2" y2="272.3"/>
	<line class="st6" x1="325.2" y1="269.2" x2="553.1" y2="269.2"/>
	<line class="st6" x1="325.2" y1="267.2" x2="553.1" y2="267.2"/>
	<line class="st6" x1="325.2" y1="289" x2="557" y2="288.9"/>
	<line class="st6" x1="550.4" y1="267.2" x2="550.4" y2="269.2"/>
	<line class="st6" x1="420.4" y1="222.7" x2="420.4" y2="35.9"/>
	<line class="st6" x1="424.4" y1="222.7" x2="424.4" y2="35.9"/>
	<line class="st6" x1="432.5" y1="222.7" x2="432.5" y2="35.9"/>
	<line class="st6" x1="436.5" y1="222.7" x2="436.5" y2="35.9"/>
	<line class="st6" x1="444.6" y1="222.7" x2="444.6" y2="35.9"/>
	<line class="st6" x1="448.6" y1="222.7" x2="448.6" y2="35.9"/>
	<line class="st6" x1="456.6" y1="222.7" x2="456.6" y2="35.9"/>
	<line class="st6" x1="460.7" y1="222.7" x2="460.7" y2="35.9"/>
	<line class="st6" x1="456.7" y1="36.8" x2="460.7" y2="36.8"/>
	<line class="st6" x1="444.7" y1="36.8" x2="448.7" y2="36.8"/>
	<line class="st6" x1="432.6" y1="36.8" x2="436.6" y2="36.8"/>
	<line class="st6" x1="420.5" y1="36.8" x2="424.5" y2="36.8"/>
</g>
<g id="cotas">
	<line class="st7" x1="550.4" y1="214" x2="550.4" y2="222.4"/>
	<line class="st7" x1="553.5" y1="222.3" x2="553.5" y2="263.9"/>
	<line class="st7" x1="522.1" y1="56.4" x2="522.1" y2="214.3"/>
	<line class="st7" x1="506.4" y1="56.4" x2="506.4" y2="106.2"/>
	<line class="st7" x1="490.6" y1="56.4" x2="490.6" y2="81.3"/>
	<line class="st7" x1="568.7" y1="264" x2="568.7" y2="272.4"/>
	<line class="st7" x1="553.5" y1="272.4" x2="553.5" y2="288.9"/>
	<line class="st7" x1="424.4" y1="43.1" x2="456.6" y2="43.1"/>
	<line class="st7" x1="436.5" y1="52.3" x2="444.6" y2="52.3"/>
	<line class="st7" x1="448.7" y1="52.3" x2="456.7" y2="52.3"/>
	<line class="st7" x1="424.4" y1="52.3" x2="432.4" y2="52.3"/>
</g>
<g id="txt">
	<text transform="matrix(1 0 0 1 554.3525 219.9395)" class="st0 st1 st8">X</text>
	<text transform="matrix(1 0 0 1 557.4033 245.9219)" class="st0 st1 st8">5X</text>
	<text transform="matrix(1 0 0 1 525.9922 138.3657)" class="st0 st1 st8">18X</text>
	<text transform="matrix(1 0 0 1 510.334 84.5708)" class="st0 st1 st8">6X</text>
	<text transform="matrix(1 0 0 1 494.459 71.3423)" class="st0 st1 st8">3X</text>
	<text transform="matrix(1 0 0 1 554.3525 269.8945)" class="st0 st1 st8">½X</text>
	<text transform="matrix(1 0 0 1 572.6504 269.8945)" class="st0 st1 st8">X</text>
	<text transform="matrix(1 0 0 1 557.4033 286.4434)" class="st0 st1 st8">2X</text>
	<g>
		<text transform="matrix(1 0 0 1 437.6045 41.8726)" class="st0 st1 st8">4X</text>
	</g>
	<g>
		<text transform="matrix(1 0 0 1 439.2607 51.0845)" class="st0 st1 st8">X</text>
	</g>
	<g>
		<text transform="matrix(1 0 0 1 451.4209 51.0845)" class="st0 st1 st8">X</text>
	</g>
	<g>
		<text transform="matrix(1 0 0 1 455.8018 35.6704)" class="st0 st1 st8">½X</text>
	</g>
	<g>
		<text transform="matrix(1 0 0 1 443.8193 35.6704)" class="st0 st1 st8">½X</text>
	</g>
	<g>
		<text transform="matrix(1 0 0 1 431.6582 35.6704)" class="st0 st1 st8">½X</text>
	</g>
	<g>
		<text transform="matrix(1 0 0 1 419.5879 35.6704)" class="st0 st1 st8">½X</text>
	</g>
	<g>
		<text transform="matrix(1 0 0 1 427.0996 51.0845)" class="st0 st1 st8">X</text>
	</g>
</g>
<g id="marca">
	<g id="logo">
		<g id="group_00000123434339918279171660000009023452264871876231_">
			<path class="st9" d="M348.9,273.1v1.4c-2-0.9-3.9-1.4-5.7-1.4c-2.1,0-3.8,0.6-5.2,1.7c-0.8,0.7-1.4,1.4-1.7,2.3
				c-0.4,1-0.6,2.2-0.6,3.4c0,0.9,0.1,1.7,0.3,2.6c0.2,0.8,0.5,1.5,0.9,2.1c0.8,1.1,1.9,1.9,3.4,2.4c0.9,0.3,2,0.5,3.1,0.5
				c1.5,0,2.8-0.3,4.1-0.9v-6.6c0-0.2,0-0.5-0.1-0.8h2.1c-0.1,0.3-0.1,0.5-0.1,0.8v6.3c0,0.3,0.1,0.6,0.2,0.9
				c-1.6,0.5-2.8,0.8-3.7,0.9c-0.9,0.2-1.9,0.2-3,0.2c-2.9,0-5.1-0.7-6.7-2.1c-1.8-1.6-2.7-3.7-2.7-6.3c0-2.8,1.1-5,3.2-6.5
				c1.7-1.2,3.9-1.8,6.7-1.8c0.9,0,1.8,0.1,2.5,0.2C346.8,272.5,347.8,272.8,348.9,273.1z"/>
			<path class="st9" d="M386.3,281v7c0,0.2,0,0.5,0.1,0.8h-2.1c0.1-0.3,0.1-0.5,0.1-0.8v-14.8c0-0.2,0-0.5-0.1-0.8h4.4
				c1.3,0,2.4,0.2,3.4,0.5c0.9,0.3,1.6,0.8,2.2,1.4c0.6,0.7,0.9,1.5,0.9,2.3c0,1.3-0.5,2.3-1.6,3c-1.1,0.7-2.7,1.1-4.8,1.3l7.9,7.2
				c0.2,0.2,0.5,0.4,0.9,0.6h-2.9c-0.1-0.2-0.3-0.4-0.6-0.7L386.3,281z M386.3,280.3h2c1,0,2-0.2,2.8-0.6c1.4-0.6,2.1-1.6,2.1-3
				c0-0.6-0.2-1.2-0.5-1.7c-0.3-0.5-0.8-0.9-1.3-1.3c-0.8-0.5-1.9-0.7-3.4-0.7h-1.7V280.3z"/>
			<path class="st9" d="M438,272.2c3,0,5.3,0.7,7,2.1c1.7,1.5,2.6,3.5,2.6,6.2c0,2.7-0.9,4.8-2.6,6.2c-1.7,1.4-4,2.1-6.9,2.1
				c-3.2,0-5.6-0.7-7.2-2.2c-1.6-1.5-2.5-3.6-2.5-6.3c0-2.6,0.9-4.6,2.6-6.1C432.6,272.9,434.9,272.2,438,272.2z M437.9,273
				c-2.5,0-4.5,0.7-5.7,2.2c-1.1,1.3-1.7,3-1.7,5.2c0,2.3,0.6,4.1,1.7,5.4c1.3,1.5,3.2,2.2,5.9,2.2c2.5,0,4.4-0.7,5.7-2.1
				c1.2-1.3,1.8-3.1,1.8-5.4c0-2.3-0.6-4.2-1.8-5.4c-0.7-0.7-1.5-1.3-2.4-1.6C440.3,273.2,439.2,273,437.9,273z"/>
			<path class="st9" d="M496.9,272.4c-0.1,0.2-0.1,0.5-0.1,0.8v10.3c0,1.2-0.3,2.2-1,3.1c-0.7,0.9-1.7,1.6-3,1.9
				c-1.1,0.3-2.4,0.4-3.7,0.4c-2.1,0-3.7-0.3-4.9-1c-0.8-0.5-1.4-1-1.9-1.8c-0.5-0.7-0.7-1.5-0.7-2.4v-10.6c0-0.2,0-0.5-0.1-0.8h2.1
				c-0.1,0.3-0.1,0.5-0.1,0.8v10.5c0,0.9,0.3,1.8,0.8,2.5c1,1.3,2.8,2,5.3,2c2.4,0,4.2-0.6,5.2-1.8c0.7-0.8,1.1-1.8,1.1-3.1v-10.1
				c0-0.3,0-0.5-0.1-0.8H496.9z"/>
			<path class="st9" d="M533.8,281.2v6.7c0,0.3,0,0.5,0.1,0.8h-2.1c0.1-0.3,0.1-0.5,0.1-0.8v-14.7c0-0.3,0-0.5-0.1-0.8h5.3
				c1.4,0,2.6,0.2,3.7,0.7c1.7,0.7,2.6,1.9,2.6,3.5c0,1.3-0.6,2.4-1.7,3.1c-1.3,0.9-3.1,1.4-5.5,1.4H533.8z M533.8,280.5h2.4
				c1.2,0,2.1-0.1,2.8-0.4c0.8-0.3,1.4-0.7,1.8-1.3c0.5-0.6,0.7-1.3,0.7-2.1c0-1.1-0.4-2-1.3-2.6c-0.9-0.6-2.1-1-3.6-1h-2.8V280.5z"
				/>
		</g>
		<g id="magma">
			<g>
				<path class="st10" d="M375.2,264l0-0.1c0.1-0.4,0.1-0.7,0.1-0.9c0-0.2,0-0.4,0-0.6l-5.3-34.9l-12,34.8c-0.2,0.6-0.3,1.2-0.3,1.7
					v0.1H354v-0.5c0-0.3-0.1-0.6-0.2-1l-12-34.1l-5.7,33.8c0,0.1,0,0.3,0,0.6v0.2c0,0.3,0,0.6,0,0.9v0.1h-2.3c0,0,0.3-1.3,0.5-2
					l6.2-37.9l0-1.8h3.8l0,0.1c0.1,0.7,0.2,1.2,0.3,1.4l12.3,35.7l12.5-35.9c0.1-0.3,0.1-0.7,0.1-1.2v-0.1h4v1.3l5.7,38.5
					c0.1,0.6,0.3,1.2,0.4,1.7l0,0.1H375.2z"/>
				<path class="st0" d="M373.4,222.4c0,0.2,0,0.3,0,0.5c0,0.4,0,0.7,0,0.7l5.7,38.6c0.1,0.6,0.3,1.2,0.4,1.7h-4.1
					c0.1-0.4,0.1-0.7,0.1-0.9c0-0.2,0-0.4,0-0.6l-5.4-35.3l-12.1,35.2c-0.2,0.6-0.3,1.2-0.3,1.7h-3.5c0-0.2,0-0.3,0-0.4
					c0-0.3-0.1-0.6-0.2-1L341.8,228l-5.8,34.1c0,0.1,0,0.3,0,0.6v0.2c0,0.3,0,0.6,0,0.9H334c0.1-0.6,0.3-1.2,0.5-1.9l6.2-37.9
					c0,0,0-0.1,0-0.2l0-1.5h3.6c0.1,0.7,0.2,1.2,0.3,1.4l12.4,36l12.6-36.2c0.1-0.3,0.1-0.7,0.1-1.2H373.4 M373.6,222.2h-0.2h-3.8
					h-0.2v0.2c0,0.5,0,0.9-0.1,1.1l-12.4,35.6l-12.2-35.5c-0.1-0.2-0.1-0.6-0.3-1.3l0-0.2h-0.2h-3.6h-0.2l0,0.2l0,1.5l0,0.2
					l-6.2,37.9c-0.2,0.7-0.3,1.3-0.5,1.8l-0.1,0.2h0.2h2.1h0.2v-0.2c0-0.3,0-0.6,0-0.9l0-0.2c0-0.2,0-0.4,0-0.6l5.7-33.4l11.8,33.8
					c0.1,0.4,0.2,0.7,0.2,0.9v0.4v0.2h0.2h3.5h0.2v-0.2c0-0.5,0.1-1.1,0.3-1.6l11.9-34.4l5.3,34.6c0,0.2,0,0.4,0,0.6
					c0,0.2,0,0.5-0.1,0.9l0,0.2h0.2h4.1h0.2l0-0.2c-0.1-0.5-0.2-1.1-0.4-1.7l-5.7-38.5l0-0.7v-0.5V222.2L373.6,222.2z"/>
			</g>
			<g>
				<path class="st10" d="M409.5,264L409.5,264c0-0.6-0.1-1.2-0.3-1.8l-4-11.2h-15.3l-4,11.2c-0.2,0.5-0.3,1.1-0.2,1.7l0,0.1h-4.2
					l0.1-0.1c0.4-0.6,0.7-1.2,0.8-1.7l13.6-38.2c0.2-0.5,0.3-1,0.3-1.5v-0.1h6.2l0,0.1c0,0.4,0.1,0.9,0.3,1.3l14,38.3
					c0.2,0.5,0.5,1,1,1.7l0.1,0.1H409.5z M404,247.8l-6.6-18.4l-6.4,18.4H404z"/>
				<path class="st0" d="M402.4,222.4c0,0.4,0.1,0.9,0.3,1.4l14,38.4c0.2,0.5,0.5,1.1,1,1.7h-8.1c0-0.5-0.1-1.1-0.3-1.7l-4-11.3
					h-15.5l-4,11.3c-0.2,0.5-0.3,1.1-0.2,1.7h-3.9c0.4-0.6,0.7-1.2,0.8-1.7l13.6-38.2c0.2-0.5,0.3-1,0.3-1.5H402.4 M390.9,247.9
					h13.2l-6.7-18.8L390.9,247.9 M402.6,222.2h-0.2h-6h-0.2v0.2c0,0.5-0.1,1-0.3,1.5l-13.6,38.2c-0.2,0.5-0.5,1.1-0.8,1.7l-0.2,0.3
					h0.3h3.9h0.2l0-0.2c0-0.6,0.1-1.2,0.2-1.7l4-11.1h15.2l3.9,11.1c0.2,0.6,0.3,1.1,0.3,1.7v0.2h0.2h8.1h0.4l-0.2-0.3
					c-0.5-0.7-0.8-1.2-1-1.7l-14-38.3c-0.2-0.5-0.2-0.9-0.3-1.3L402.6,222.2L402.6,222.2z M391.1,247.7l6.3-18l6.4,18H391.1
					L391.1,247.7z"/>
			</g>
			<g>
				<path class="st10" d="M440.7,264.7c-4.3,0-7.9-0.6-10.6-1.8c-7.3-3.2-10.9-9.6-10.9-19c0-7.5,2.4-13.3,7.2-17.3
					c2.3-1.9,4.9-3.3,7.6-4c2.6-0.7,5.6-1,8.7-1c4,0,8.3,0.7,12.6,2.1l0.1,0v8.9l-0.2-0.1c-3.2-2.9-6.8-4.4-10.5-4.4
					c-3.2,0-5.7,1.2-7.6,3.4c-1.1,1.4-1.9,3.1-2.4,5.1c-0.5,2-0.8,4.6-0.8,7.7c0,4.7,0.6,8.3,1.9,10.7c1.2,2.5,3.1,3.7,5.6,3.7
					c0.7,0,1.3-0.2,1.9-0.6l0-14.9c0-0.9-0.2-1.6-0.4-2l-0.1-0.1h14.6l-0.1,0.1c-0.3,0.5-0.4,1.2-0.4,2.1v15.7c0,0.9,0,1.5,0.1,1.7
					s0.2,0.7,0.4,1.3l0,0.1l-0.1,0c-3.9,1.2-6.9,1.9-8.9,2.3C446.1,264.6,443.6,264.7,440.7,264.7z"/>
				<path class="st0" d="M442.6,221.6c4,0,8.3,0.7,12.6,2.1v8.7c-3.2-2.9-6.8-4.4-10.6-4.4c-3.2,0-5.8,1.2-7.6,3.5
					c-1.1,1.4-2,3.1-2.5,5.1c-0.5,2-0.8,4.6-0.8,7.7c0,4.7,0.6,8.3,1.9,10.8c1.3,2.5,3.1,3.8,5.7,3.8c0.7,0,1.4-0.2,1.9-0.6v-15
					c0-0.9-0.2-1.6-0.4-2.1h14.2c-0.3,0.5-0.4,1.2-0.4,2.1v15.7c0,0.9,0,1.5,0.1,1.8c0,0.3,0.2,0.7,0.4,1.3
					c-3.9,1.2-6.9,1.9-8.9,2.3c-2,0.3-4.5,0.5-7.5,0.5c-4.4,0-7.9-0.6-10.6-1.8c-7.2-3.2-10.9-9.5-10.9-18.9
					c0-7.5,2.4-13.2,7.2-17.2c2.3-1.9,4.8-3.3,7.6-4C436.6,222,439.5,221.6,442.6,221.6 M442.6,221.5c-3.1,0-6.1,0.4-8.7,1
					c-2.7,0.7-5.3,2.1-7.6,4c-4.8,4-7.3,9.9-7.3,17.4c0,9.5,3.7,15.9,11,19.1c2.7,1.2,6.3,1.8,10.7,1.8c2.9,0,5.5-0.2,7.5-0.5
					c2-0.3,5-1.1,8.9-2.3l0.2-0.1l-0.1-0.2c-0.2-0.6-0.3-1-0.4-1.2c0-0.2-0.1-0.8-0.1-1.7v-15.7c0-0.8,0.2-1.5,0.4-2l0.1-0.3h-0.3
					h-14.2h-0.3l0.2,0.3c0.2,0.4,0.4,1.1,0.4,2l0,14.9c-0.5,0.4-1.1,0.5-1.7,0.5c-2.5,0-4.3-1.2-5.5-3.7c-1.2-2.4-1.9-6-1.9-10.7
					c0-3.1,0.3-5.7,0.8-7.6c0.5-2,1.3-3.7,2.4-5.1c1.8-2.3,4.3-3.4,7.5-3.4c3.7,0,7.3,1.5,10.5,4.3l0.3,0.3v-0.4v-8.7v-0.1l-0.1,0
					C450.9,222.2,446.7,221.5,442.6,221.5L442.6,221.5z"/>
			</g>
			<g>
				<path class="st10" d="M500.7,264l0-0.1c0.1-0.4,0.1-0.7,0.1-0.9c0-0.2,0-0.5-0.1-0.7l-4.3-30.5l-10.4,30.4
					c-0.2,0.6-0.3,1.1-0.3,1.5c0,0.1,0,0.2,0,0.3v0.1h-6l0-0.1c0-0.2,0-0.3,0-0.4c0-0.3-0.1-0.7-0.2-1.2l-10.4-30l-4.7,29.7
					c0,0.1,0,0.2,0,0.3c0,0.2,0,0.6,0.1,1.5l0,0.1h-4l0-0.1c0.3-0.9,0.5-1.5,0.5-1.9l5.9-37.7c0-0.2,0.1-0.4,0.1-0.6
					c0-0.3,0-0.7-0.1-1.2l0-0.1h6.4l0,0.1c0,0.7,0.1,1.2,0.3,1.6l10.9,32l11-32.1c0.1-0.4,0.2-0.8,0.2-1.1c0-0.2,0-0.5,0-0.5h6.4
					l0,0.1c0,0.3,0,0.6,0,0.9c0,0.2,0,0.4,0,0.6l5.5,38.2c0.1,0.4,0.2,1,0.5,1.8l0,0.1H500.7z"/>
				<path class="st0" d="M502.3,222.4c0,0.3,0,0.6,0,0.9c0,0.2,0,0.4,0,0.6l5.5,38.2c0.1,0.4,0.2,1,0.5,1.8h-7.4
					c0.1-0.4,0.1-0.7,0.1-0.9c0-0.2,0-0.5-0.1-0.8l-4.4-30.9L486,262c-0.2,0.6-0.3,1.1-0.3,1.5c0,0.1,0,0.2,0,0.3h-5.8
					c0-0.2,0-0.3,0-0.4c0-0.3-0.1-0.7-0.2-1.2L469.1,232l-4.8,30.1c0,0.1,0,0.2,0,0.3c0,0.2,0,0.7,0.1,1.5h-3.8
					c0.3-0.9,0.5-1.5,0.5-1.9l5.9-37.7c0-0.2,0.1-0.4,0.1-0.6c0-0.3,0-0.7-0.1-1.2h6.3c0,0.7,0.1,1.2,0.3,1.6l11,32.2l11.1-32.3
					c0.1-0.4,0.2-0.8,0.2-1.1c0-0.2,0-0.3,0-0.4H502.3 M502.5,222.2h-0.2H496h-0.2v0.2c0,0.1,0,0.2,0,0.3c0,0.3-0.1,0.7-0.2,1.1
					l-11,31.8l-10.8-31.7c-0.1-0.4-0.2-0.9-0.3-1.5l0-0.2h-0.2h-6.3h-0.2l0,0.2c0,0.5,0.1,0.9,0.1,1.2c0,0.2,0,0.4-0.1,0.6
					l-5.9,37.8c-0.1,0.4-0.2,1-0.5,1.9l-0.1,0.2h0.3h3.8h0.2l0-0.2c-0.1-0.9-0.1-1.3-0.1-1.5c0-0.1,0-0.2,0-0.3l4.7-29.4l10.3,29.6
					c0.2,0.5,0.2,0.9,0.2,1.1c0,0.1,0,0.2,0,0.4l0,0.2h0.2h5.8h0.2v-0.2c0-0.1,0-0.2,0-0.3c0-0.4,0.1-0.9,0.3-1.5l10.3-30l4.3,30.1
					c0,0.3,0.1,0.5,0.1,0.7c0,0.2,0,0.5-0.1,0.9l-0.1,0.2h0.2h7.4h0.3l-0.1-0.2c-0.3-0.8-0.4-1.4-0.5-1.8l-5.5-38.2
					c0-0.2,0-0.4,0-0.6c0-0.2,0-0.5,0-0.9L502.5,222.2L502.5,222.2z"/>
			</g>
			<g>
				<path class="st10" d="M539.3,264L539.3,264c0-0.6-0.2-1.1-0.3-1.6l-4.5-12.4h-16.9l-4.5,12.4c-0.1,0.3-0.2,0.9-0.2,1.6l0,0.1
					h-2.6l0.1-0.1c0.3-0.7,0.6-1.2,0.7-1.6l13.8-38.6c0.1-0.3,0.2-0.7,0.3-1.3l0-0.1h3.7l0,0.1c0.1,0.4,0.1,0.7,0.2,1l14.3,38.8
					c0.1,0.4,0.4,0.9,0.8,1.6l0.1,0.1H539.3z M533.7,248l-7.9-21.3l-7.6,21.3H533.7z"/>
				<path class="st0" d="M528.7,222.4c0.1,0.4,0.1,0.8,0.2,1l14.3,38.8c0.1,0.4,0.4,0.9,0.8,1.6h-4.7c0-0.5-0.2-1-0.3-1.6l-4.6-12.5
					h-17l-4.5,12.5c-0.1,0.3-0.2,0.9-0.2,1.6h-2.4c0.3-0.7,0.6-1.2,0.7-1.6l13.8-38.6c0.1-0.3,0.2-0.7,0.3-1.3H528.7 M518,248.1
					h15.8l-8-21.6L518,248.1 M528.9,222.2h-0.2h-3.5H525l0,0.2c-0.1,0.6-0.2,1-0.3,1.2l-13.8,38.6c-0.1,0.3-0.4,0.9-0.7,1.6
					l-0.1,0.3h0.3h2.4h0.2l0-0.2c0-0.7,0.1-1.2,0.2-1.5l4.5-12.4h16.8l4.5,12.4c0.2,0.5,0.3,1,0.3,1.5l0,0.2h0.2h4.7h0.3l-0.2-0.3
					c-0.4-0.7-0.7-1.2-0.8-1.5l-14.3-38.8c-0.1-0.3-0.2-0.6-0.2-1L528.9,222.2L528.9,222.2z M518.3,247.9l7.5-20.9l7.8,20.9H518.3
					L518.3,247.9z"/>
			</g>
		</g>
	</g>
	<rect id="banda_00000091722372180494775470000004872744080656299681_" x="333.6" y="267.2" class="st9" width="211.2" height="2"/>
	<g id="iso_00000011007595664542376970000004322153041052400048_">
		<g>
			<rect x="436.5" y="56.4" class="st9" width="8" height="148.9"/>
			<rect x="448.6" y="81.3" class="st9" width="8" height="122.6"/>
			<rect x="424.4" y="106.2" class="st9" width="8" height="101.6"/>
		</g>
		<path class="st9" d="M507.3,160.6c-3.3-12.8-22.2-19.7-46.6-18.8v4.5c17.7-0.2,31,4.6,33.2,13.4c3.4,13.1-18.5,30.1-48.8,37.9
			c-30.3,7.8-57.7,3.6-61.1-9.5c-2.9-11.2,12.7-25.3,36.4-34v-4.5c-30.9,10.8-51.6,30-47.6,45.8c4.5,17.6,38.3,24,75.4,14.5
			C485.4,200.2,511.8,178.1,507.3,160.6z"/>
	</g>
</g>
</svg>
