<?xml version="1.0" encoding="utf-8"?>
<!-- Generator: Adobe Illustrator 26.0.3, SVG Export Plug-In . SVG Version: 6.00 Build 0)  -->
<svg version="1.1" id="Layer_1" xmlns="http://www.w3.org/2000/svg" xmlns:xlink="http://www.w3.org/1999/xlink" x="0px" y="0px"
	 viewBox="0 0 600 350" style="enable-background:new 0 0 600 350;" xml:space="preserve">
<style type="text/css">
	.st0{fill:#4D4D4D;}
	.st1{fill:#929497;}
	.st2{fill:#6D6E70;}
	.st3{fill:#404041;}
	.st4{fill:#B2292E;}
	.st5{fill:#626366;}
	.st6{fill:none;stroke:#808285;stroke-width:0.5;}
	.st7{fill:none;stroke:#808285;stroke-width:0.5;stroke-dasharray:5.9518,5.9518;}
</style>
<g>
	<g>
		<g>
			<g id="group">
				<path class="st0" d="M241.9,142.7v1.9c-2.6-1.2-5.1-1.9-7.5-1.9c-2.8,0-5.1,0.8-6.9,2.3c-1.1,0.9-1.8,1.9-2.2,3
					c-0.5,1.4-0.8,2.9-0.8,4.5c0,1.1,0.1,2.3,0.4,3.4c0.3,1.1,0.7,2,1.2,2.7c1,1.4,2.5,2.5,4.5,3.1c1.2,0.4,2.6,0.6,4.1,0.6
					c1.9,0,3.7-0.4,5.4-1.2v-8.7c0-0.3,0-0.6-0.1-1h2.7c-0.1,0.4-0.1,0.7-0.1,1v8.3c0,0.4,0.1,0.8,0.3,1.2c-2.1,0.6-3.7,1-4.9,1.2
					s-2.5,0.3-3.9,0.3c-3.8,0-6.7-0.9-8.8-2.8c-2.3-2.1-3.5-4.8-3.5-8.2c0-3.7,1.4-6.6,4.2-8.6c2.2-1.6,5.2-2.4,8.9-2.4
					c1.2,0,2.3,0.1,3.3,0.3C239.1,142,240.4,142.3,241.9,142.7z"/>
				<path class="st0" d="M291.1,153v9.2c0,0.3,0,0.7,0.1,1h-2.7c0.1-0.3,0.1-0.7,0.1-1v-19.4c0-0.3,0-0.7-0.1-1h5.8
					c1.7,0,3.1,0.2,4.4,0.7c1.2,0.4,2.1,1,2.9,1.8c0.8,0.9,1.2,1.9,1.2,3.1c0,1.7-0.7,3-2.2,4c-1.4,1-3.5,1.5-6.3,1.7l10.4,9.5
					c0.3,0.3,0.7,0.5,1.1,0.8H302c-0.1-0.3-0.4-0.5-0.7-0.9L291.1,153z M291.1,152.2h2.7c1.4,0,2.6-0.3,3.7-0.8
					c1.8-0.9,2.7-2.2,2.7-3.9c0-0.8-0.2-1.5-0.6-2.2s-1-1.2-1.7-1.7c-1.1-0.6-2.5-0.9-4.5-0.9h-2.3L291.1,152.2L291.1,152.2z"/>
				<path class="st0" d="M359.2,141.5c4,0,7,0.9,9.2,2.8c2.3,1.9,3.4,4.7,3.4,8.2s-1.1,6.3-3.4,8.2c-2.2,1.9-5.2,2.8-9.1,2.8
					c-4.2,0-7.3-1-9.5-3s-3.2-4.7-3.2-8.3c0-3.4,1.1-6,3.4-8C352.1,142.5,355.2,141.5,359.2,141.5z M359.1,142.6c-3.4,0-5.9,1-7.6,3
					c-1.5,1.7-2.2,4-2.2,6.8c0,3,0.7,5.4,2.2,7.2c1.7,2,4.2,2.9,7.7,2.9c3.3,0,5.7-0.9,7.5-2.8c1.6-1.7,2.4-4.1,2.4-7.2
					c0-3.1-0.8-5.5-2.4-7.2c-0.9-1-2-1.7-3.1-2.1C362.3,142.8,360.8,142.6,359.1,142.6z"/>
				<path class="st0" d="M436.8,141.8c-0.1,0.3-0.1,0.6-0.1,1v13.6c0,1.6-0.4,2.9-1.3,4c-1,1.2-2.3,2.1-4,2.5
					c-1.5,0.4-3.1,0.6-4.9,0.6c-2.8,0-4.9-0.4-6.4-1.3c-1.1-0.6-1.9-1.4-2.5-2.3c-0.6-1-0.9-2-0.9-3.1v-14c0-0.3,0-0.7-0.1-1h2.7
					c-0.1,0.3-0.1,0.7-0.1,1v13.9c0,1.2,0.4,2.3,1.1,3.2c1.3,1.8,3.7,2.6,7,2.6c3.2,0,5.5-0.8,6.9-2.4c1-1.1,1.4-2.4,1.4-4.1v-13.3
					c0-0.4,0-0.7-0.1-1h1.3V141.8z"/>
				<path class="st0" d="M485.5,153.4v8.8c0,0.3,0,0.7,0.1,1h-2.7c0.1-0.3,0.1-0.7,0.1-1v-19.4c0-0.3,0-0.7-0.1-1h7
					c1.8,0,3.4,0.3,4.8,0.9c2.3,1,3.5,2.5,3.5,4.7c0,1.7-0.7,3.1-2.2,4.2c-1.7,1.2-4.1,1.9-7.2,1.9L485.5,153.4L485.5,153.4z
					 M485.5,152.4h3.1c1.5,0,2.8-0.2,3.7-0.5c1-0.4,1.8-0.9,2.4-1.7s0.9-1.7,0.9-2.8c0-1.5-0.6-2.6-1.7-3.5
					c-1.2-0.9-2.7-1.3-4.7-1.3h-3.6L485.5,152.4L485.5,152.4z"/>
			</g>
			<g>
				<path class="st1" d="M232.5,83.3l-7.7,45c0,0.2,0,0.4,0,0.8v0.3c0,0.3,0.1,0.7,0.1,1.2h-2.7c0.2-0.7,0.4-1.6,0.6-2.4l8.2-49.9
					c0-0.1,0-0.1,0-0.2v-2h4.8c0.2,0.9,0.3,1.5,0.4,1.8l16.4,47.4L269,77.5c0.1-0.4,0.2-0.9,0.2-1.6h5c0,0.2,0,0.4,0,0.6
					c0,0.6,0,0.9,0,1l7.6,50.8c0.2,0.8,0.3,1.6,0.5,2.2h-5.4c0.1-0.5,0.2-0.9,0.2-1.2s0-0.6,0-0.8L269.7,82l-16,46.3
					c-0.3,0.8-0.4,1.5-0.4,2.2h-4.6c0-0.2,0-0.4,0-0.5c0-0.4-0.1-0.8-0.3-1.3L232.5,83.3z"/>
			</g>
			<g>
				<path class="st2" d="M295.8,113.4l-5.3,14.8c-0.2,0.7-0.3,1.4-0.3,2.3H285c0.5-0.8,0.9-1.6,1.1-2.3L304,77.9
					c0.2-0.7,0.4-1.4,0.4-2h8c0,0.6,0.1,1.2,0.4,1.8l18.4,50.5c0.3,0.6,0.7,1.4,1.3,2.3h-10.7c0-0.7-0.1-1.5-0.4-2.3l-5.2-14.8
					C316.2,113.4,295.8,113.4,295.8,113.4z M297.2,109.5h17.4l-8.8-24.7L297.2,109.5z"/>
			</g>
			<g>
				<path class="st3" d="M382,77.6V89c-4.3-3.9-8.9-5.8-13.9-5.8c-4.3,0-7.6,1.5-10.1,4.6c-1.5,1.9-2.6,4.1-3.2,6.8
					c-0.7,2.6-1,6-1,10.1c0,6.2,0.8,10.9,2.5,14.2c1.7,3.3,4.1,5,7.5,5c0.9,0,1.8-0.3,2.5-0.8v-19.7c0-1.2-0.2-2.1-0.6-2.8h18.8
					c-0.3,0.7-0.5,1.6-0.6,2.8V124c0,1.2,0,2,0.1,2.3c0.1,0.4,0.2,0.9,0.5,1.7c-5.2,1.5-9.1,2.5-11.8,3c-2.7,0.5-5.9,0.7-9.8,0.7
					c-5.7,0-10.4-0.8-14-2.4c-9.6-4.2-14.3-12.5-14.3-24.9c0-9.9,3.2-17.4,9.5-22.7c3-2.6,6.4-4.3,10-5.3c3.5-0.9,7.3-1.4,11.4-1.4
					C370.7,74.9,376.2,75.8,382,77.6z"/>
			</g>
			<g>
				<path class="st2" d="M400.2,88.5l-6.3,39.6c0,0.1,0,0.3,0,0.4c0,0.2,0.1,0.9,0.2,2h-5c0.4-1.1,0.6-2,0.7-2.5l7.8-49.7
					c0.1-0.2,0.1-0.5,0.1-0.8c0-0.4,0-0.9-0.1-1.6h8.2c0.1,0.9,0.2,1.5,0.4,2.1l14.5,42.5l14.7-42.6c0.2-0.6,0.3-1,0.3-1.4
					c0-0.2,0-0.4,0-0.5h8.2c0,0.5,0,0.8,0,1.2c0,0.3,0,0.5,0,0.8l7.2,50.3c0.1,0.5,0.3,1.3,0.6,2.4H442c0.1-0.5,0.2-0.9,0.2-1.2
					s0-0.6-0.1-1l-5.8-40.7l-13.9,40.6c-0.3,0.8-0.4,1.4-0.4,2c0,0.1,0,0.3,0,0.4h-7.7c0-0.2,0-0.4,0-0.5c0-0.4-0.1-0.9-0.3-1.6
					L400.2,88.5z"/>
			</g>
			<g>
				<path class="st1" d="M464,112l-6,16.5c-0.2,0.5-0.3,1.1-0.3,2.1h-3.1c0.4-0.9,0.8-1.6,1-2.1l18.2-50.9c0.1-0.3,0.3-0.9,0.4-1.7
					h4.6c0.1,0.5,0.2,1,0.3,1.4l18.8,51.2c0.2,0.5,0.6,1.2,1.1,2.1h-6.2c-0.1-0.7-0.2-1.4-0.4-2.1l-6-16.5H464z M464.7,109.8h20.8
					l-10.6-28.5L464.7,109.8z"/>
			</g>
			<rect id="banda" x="221.7" y="134.9" class="st0" width="278.3" height="2.6"/>
			<g>
				<path class="st1" d="M494.9,76c0.9,0,1.7,0.2,2.4,0.6c0.8,0.4,1.4,1,1.8,1.7s0.7,1.4,0.7,2.3c0,0.8-0.2,1.6-0.7,2.3
					c-0.4,0.7-1.1,1.3-1.8,1.7c-0.8,0.4-1.6,0.6-2.5,0.6s-1.7-0.2-2.5-0.6s-1.4-1-1.8-1.7s-0.7-1.5-0.7-2.3c0-1.3,0.6-2.4,1.7-3.3
					C492.4,76.4,493.5,76,494.9,76z M494.8,76.6c-1.3,0-2.4,0.4-3.2,1.3c-0.7,0.7-1.1,1.6-1.1,2.6c0,1.2,0.5,2.1,1.4,2.9
					c0.8,0.7,1.8,1,2.8,1c0.8,0,1.5-0.2,2.1-0.5c0.7-0.3,1.2-0.8,1.6-1.4s0.6-1.2,0.6-1.9c0-1.1-0.5-2.1-1.4-2.9
					C496.9,77,495.9,76.7,494.8,76.6z M494.3,80.8v1.9c0,0.1,0,0.2,0.1,0.3h-1.8c0-0.1,0.1-0.2,0.1-0.3v-4.5c0-0.1,0-0.2-0.1-0.3
					h2.5c0.5,0,0.9,0.1,1.3,0.3c0.5,0.3,0.7,0.6,0.7,1.2s-0.4,1.1-1.3,1.3l1.5,2c0.1,0.1,0.2,0.2,0.3,0.3h-2c0-0.1,0-0.2-0.1-0.3
					L494.3,80.8z M494.3,80.3h0.2c0.3,0,0.5-0.1,0.7-0.2c0.2-0.2,0.2-0.4,0.2-0.6c0-0.3-0.1-0.5-0.2-0.7c-0.2-0.2-0.4-0.2-0.7-0.2
					h-0.2V80.3z"/>
			</g>
		</g>
		<g id="iso">
			<g>
				<rect x="150.9" y="50.8" class="st4" width="7.8" height="116.7"/>
				<rect x="161.1" y="70.4" class="st1" width="6.3" height="96.1"/>
				<rect x="142.2" y="89.9" class="st1" width="6.3" height="79.6"/>
			</g>
			<path class="st2" d="M207.1,132.5c-2.6-10-17.4-15.5-36.5-14.7v3.5c13.9-0.2,24.3,3.6,26.1,10.5c2.7,10.3-14.5,23.6-38.3,29.7
				c-23.8,6.1-45.2,2.8-47.9-7.4c-2.3-8.8,10-19.8,28.5-26.7v-3.5c-24.3,8.4-40.4,23.5-37.3,35.9c3.6,13.8,30,18.8,59.1,11.3
				C190,163.5,210.7,146.3,207.1,132.5z"/>
		</g>
	</g>
	<g>
		<path class="st5" d="M107.4,270.5l-4.2,26.5c0,0.1,0,0.2,0,0.3c0,0.1,0,0.6,0.1,1.3H100c0.2-0.8,0.4-1.3,0.5-1.7l5.2-33.2
			c0-0.2,0.1-0.3,0.1-0.5c0-0.3,0-0.6,0-1h5.5c0,0.6,0.1,1,0.2,1.4l9.7,28.3l9.8-28.4c0.1-0.4,0.2-0.7,0.2-1c0-0.1,0-0.2,0-0.3h5.5
			c0,0.3,0,0.6,0,0.8c0,0.2,0,0.3,0,0.5l4.8,33.6c0.1,0.3,0.2,0.9,0.4,1.6h-6.5c0.1-0.3,0.1-0.6,0.1-0.8c0-0.2,0-0.4-0.1-0.7
			l-3.9-27.2l-9.3,27.1c-0.2,0.5-0.3,1-0.3,1.3c0,0.1,0,0.2,0,0.3h-5.1c0-0.1,0-0.3,0-0.3c0-0.2-0.1-0.6-0.2-1L107.4,270.5z"/>
		<path class="st5" d="M150.5,287.2l-3.5,9.9c-0.2,0.4-0.2,1-0.2,1.5h-3.4c0.3-0.5,0.6-1,0.7-1.5l11.9-33.6c0.2-0.5,0.2-0.9,0.2-1.3
			h5.3c0,0.4,0.1,0.8,0.2,1.2l12.3,33.7c0.2,0.4,0.5,0.9,0.9,1.5h-7.1c0-0.5-0.1-1-0.3-1.5l-3.5-9.9L150.5,287.2L150.5,287.2z
			 M151.4,284.5H163l-5.9-16.5L151.4,284.5z"/>
		<path class="st5" d="M204.5,263.6v4.5c-3.3-2.3-6.7-3.4-9.9-3.4c-3.6,0-6.4,1.2-8.6,3.6c-1.4,1.5-2.3,3.2-2.8,5
			c-0.6,2.2-0.9,4.6-0.9,7.3c0,5.5,1.2,9.5,3.7,12.2c2.1,2.3,4.8,3.4,8.1,3.4c2,0,3.8-0.5,5.6-1.5v-14.2c0-0.7-0.1-1.2-0.2-1.8h6.4
			c-0.1,0.6-0.2,1.1-0.2,1.8v14c0,0.8,0.1,1.6,0.3,2.2c-3.3,1.1-5.7,1.7-7.2,2s-3.3,0.5-5.4,0.5c-3.8,0-6.9-0.7-9.3-2
			c-2.9-1.6-5-4-6.5-7.1c-1.3-2.7-1.9-5.9-1.9-9.5c0-6.4,2-11.3,5.9-14.7c3.2-2.8,7.4-4.2,12.7-4.2
			C197.5,261.6,200.9,262.2,204.5,263.6z"/>
		<path class="st5" d="M217.8,270.5l-4.2,26.5c0,0.1,0,0.2,0,0.3c0,0.1,0,0.6,0.1,1.3h-3.3c0.2-0.8,0.4-1.3,0.5-1.7l5.2-33.2
			c0-0.2,0.1-0.3,0.1-0.5c0-0.3,0-0.6,0-1h5.5c0,0.6,0.1,1,0.2,1.4l9.7,28.3l9.8-28.4c0.1-0.4,0.2-0.7,0.2-1c0-0.1,0-0.2,0-0.3h5.5
			c0,0.3,0,0.6,0,0.8c0,0.2,0,0.3,0,0.5l4.8,33.6c0.1,0.3,0.2,0.9,0.4,1.6h-6.5c0.1-0.3,0.1-0.6,0.1-0.8c0-0.2,0-0.4-0.1-0.7
			l-3.9-27.2l-9.3,27.1c-0.2,0.5-0.3,1-0.3,1.3c0,0.1,0,0.2,0,0.3h-5.1c0-0.1,0-0.3,0-0.3c0-0.2-0.1-0.6-0.2-1L217.8,270.5z"/>
		<path class="st5" d="M260.9,287.2l-3.5,9.9c-0.2,0.4-0.2,1-0.2,1.5h-3.4c0.3-0.5,0.6-1,0.7-1.5l11.9-33.6c0.2-0.5,0.2-0.9,0.2-1.3
			h5.3c0,0.4,0.1,0.8,0.2,1.2l12.3,33.7c0.2,0.4,0.5,0.9,0.9,1.5h-7.1c0-0.5-0.1-1-0.3-1.5l-3.5-9.9L260.9,287.2L260.9,287.2z
			 M261.8,284.5h11.6l-5.9-16.5L261.8,284.5z"/>
		<path class="st5" d="M293.4,292.6c1.1,0,2,0.3,2.6,0.9c0.7,0.6,1,1.4,1,2.3s-0.3,1.7-1,2.3c-0.7,0.6-1.6,0.9-2.6,0.9
			c-1.1,0-1.9-0.3-2.6-0.9s-1-1.4-1-2.3s0.3-1.6,1-2.2C291.5,293,292.3,292.7,293.4,292.6z"/>
		<path class="st3" d="M332.6,263.4v6c-3.1-2.4-6.3-3.7-9.7-3.7c-3.2,0-5.8,1.1-7.7,3.3c-1.1,1.3-2,2.9-2.5,4.8s-0.8,4.2-0.8,6.9
			c0,4.8,0.9,8.5,2.7,11c0.7,1.1,1.7,1.9,2.9,2.5c1.2,0.6,2.4,0.9,3.8,0.9c1.3,0,2.5-0.4,3.7-1.1v-13.7c0-0.7-0.1-1.3-0.3-1.8h9.4
			c-0.2,0.5-0.3,1.1-0.3,1.8v13.9c0,1,0.1,1.8,0.4,2.4c-3.4,1-5.9,1.7-7.5,2s-3.6,0.4-6,0.4c-3.8,0-6.9-0.6-9.3-1.8
			c-3.1-1.5-5.4-3.8-6.9-6.9c-1.4-2.7-2.1-6-2.1-9.8c0-6.4,2-11.4,6.1-14.9c3.3-2.9,7.8-4.3,13.4-4.3
			C325.3,261.5,328.9,262.1,332.6,263.4z"/>
		<path class="st3" d="M349.2,282.1v14.6c0,0.7,0.1,1.3,0.3,1.8h-9.7c0.2-0.4,0.3-1,0.3-1.8v-32.9c0-0.7-0.1-1.2-0.3-1.8h14.6
			c2.9,0,5.3,0.7,7.3,2.1c2.6,1.9,4,4.6,4,8c0,2.4-0.7,4.4-2,6c-1.1,1.3-3,2.4-5.8,3.4l9.4,15.4c0.5,0.8,0.9,1.3,1.3,1.6h-11
			c-0.1-0.6-0.3-1.1-0.5-1.7L349.2,282.1z M349.1,279.3h1.9c1.4,0,2.5-0.4,3.3-1.2c1.3-1.3,2-3.1,2-5.4c0-2.1-0.5-3.7-1.4-5
			c-1-1.2-2.3-1.8-3.9-1.8h-1.8v13.4H349.1z"/>
		<path class="st3" d="M388,261.5c5.4,0,9.7,1.4,12.9,4.1c3.8,3.2,5.7,8.1,5.7,14.7c0,6.3-1.7,11.1-5.2,14.3
			c-3.3,3-7.8,4.5-13.7,4.5c-4.1,0-7.4-0.7-9.9-2c-3.2-1.7-5.5-4.3-7-7.8c-1.1-2.6-1.6-5.8-1.6-9.4c0-4.1,0.8-7.6,2.5-10.4
			C374.7,264.3,380.1,261.6,388,261.5z M388,265.5c-6.1,0-9.1,4.9-9.1,14.6c0,2.6,0.2,4.8,0.5,6.5s0.8,3.3,1.6,4.6
			c1.5,2.7,3.8,4.1,7.1,4.1c3,0,5.3-1.2,6.8-3.7s2.3-6.1,2.3-11s-0.7-8.6-2.1-11.1C393.5,266.8,391.1,265.5,388,265.5z"/>
		<path class="st3" d="M442.5,262.1c-0.2,0.5-0.3,1.1-0.3,1.8V286c0,3.2-0.8,5.8-2.4,8c-2.6,3.4-6.9,5.1-13.1,5.1
			c-3.7,0-6.6-0.6-8.8-1.9c-4.1-2.3-6.2-6.1-6.2-11.4v-22c0-0.7-0.1-1.3-0.3-1.8h9.7c-0.2,0.5-0.3,1.1-0.3,1.8v22.5
			c0,2.3,0.5,4.1,1.6,5.5c1.5,1.9,3.8,2.9,6.8,2.9c2.9,0,5-0.8,6.6-2.4c1.5-1.6,2.3-3.8,2.3-6.8v-21.7c0-0.8-0.1-1.4-0.3-1.8
			L442.5,262.1L442.5,262.1z"/>
		<path class="st3" d="M457.9,284.1v12.7c0,0.5,0.1,1.1,0.4,1.8h-9.8c0.2-0.5,0.3-1.1,0.3-1.8v-32.9c0-0.7-0.1-1.4-0.3-1.8h14
			c3.3,0,6,0.6,8,1.9c2.9,1.9,4.3,4.8,4.3,8.8c0,4.2-1.6,7.3-4.9,9.2c-1.2,0.7-2.5,1.3-3.9,1.6c-1.3,0.3-3,0.5-4.9,0.5L457.9,284.1
			L457.9,284.1z M457.9,280h2.1c1.5,0,2.6-0.4,3.5-1.1c1.4-1.2,2.1-3.3,2.1-6.1c0-2.2-0.5-3.8-1.4-5s-2.2-1.8-3.9-1.8h-2.4
			L457.9,280L457.9,280z"/>
		<path class="st5" d="M487.7,258.7c1.9,0,3.7,0.5,5.4,1.5c1.7,1,3.1,2.4,4.1,4c1,1.7,1.5,3.5,1.5,5.5s-0.5,3.8-1.5,5.5
			s-2.3,3.1-4.1,4c-1.7,1-3.6,1.5-5.5,1.5s-3.8-0.5-5.5-1.5s-3.1-2.3-4.1-4s-1.5-3.6-1.5-5.6c0-3.2,1.2-5.9,3.7-8.1
			C482.2,259.6,484.7,258.7,487.7,258.7z M487.7,260c-2.9,0-5.4,1.1-7.3,3.2c-1.7,1.8-2.5,4-2.5,6.5c0,2.9,1.1,5.4,3.2,7.3
			c1.8,1.7,4,2.5,6.4,2.5c1.7,0,3.3-0.4,4.8-1.3s2.7-2.1,3.5-3.6c0.9-1.5,1.3-3.1,1.3-4.9c0-2.8-1.1-5.3-3.2-7.2
			C492.3,260.9,490.2,260,487.7,260z M485.9,270.5v4.8c0,0.2,0,0.5,0.1,0.7h-2.8c0.1-0.2,0.1-0.5,0.1-0.7v-11.2c0-0.2,0-0.5-0.1-0.7
			h4.3c0.9,0,1.8,0.2,2.5,0.5c1.2,0.6,1.8,1.6,1.8,3c0,1.8-1.2,2.9-3.5,3.2l4.2,5.2c0.2,0.2,0.4,0.4,0.7,0.7h-3.3
			c-0.1-0.2-0.2-0.4-0.3-0.6L485.9,270.5z M485.9,269.3h0.9c0.6,0,1.1-0.1,1.5-0.4c0.7-0.4,1-1.1,1-2c0-0.8-0.2-1.4-0.7-1.8
			s-1.1-0.6-1.9-0.6h-0.8V269.3z"/>
	</g>
	<g>
		<g>
			<line class="st6" x1="50" y1="216.9" x2="53" y2="216.9"/>
			<line class="st7" x1="59" y1="216.9" x2="544" y2="216.9"/>
			<line class="st6" x1="547" y1="216.9" x2="550" y2="216.9"/>
		</g>
	</g>
</g>
</svg>
