<?xml version="1.0" encoding="utf-8"?>
<!-- Generator: Adobe Illustrator 26.0.3, SVG Export Plug-In . SVG Version: 6.00 Build 0)  -->
<svg version="1.1" id="Layer_1" xmlns="http://www.w3.org/2000/svg" xmlns:xlink="http://www.w3.org/1999/xlink" x="0px" y="0px"
	 viewBox="0 0 600 320" style="enable-background:new 0 0 600 320;" xml:space="preserve">
<style type="text/css">
	.st0{fill:#6D6E70;}
	.st1{fill:#929497;}
	.st2{fill:#C2D500;}
	.st3{fill:none;stroke:#808285;stroke-width:0.5;stroke-dasharray:4,4;}
	.st4{fill:#404041;}
	.st5{fill:#808184;}
	.st6{font-family:'MyriadPro-Regular';}
	.st7{font-size:2.4145px;}
	.st8{fill:none;stroke:#808184;stroke-width:7.353100e-02;}
	.st9{fill:none;stroke:#808184;stroke-width:7.353100e-02;stroke-dasharray:0.2102;}
	.st10{fill:#E6E7E8;stroke:#808184;stroke-width:7.353100e-02;}
	.st11{fill:#E6E7E8;stroke:#808184;stroke-width:6.907600e-02;}
</style>
<g>
	<g>
		<rect id="banda" x="359.9" y="124.8" class="st0" width="132.8" height="2.6"/>
		<g id="iso">
			<rect x="406" y="41.5" class="st1" width="7.9" height="78.1"/>
			<rect x="437.3" y="31.3" class="st1" width="7.5" height="87.7"/>
			<rect x="416.3" y="20.6" class="st2" width="7.7" height="98.7"/>
			<rect x="426.4" y="20.6" class="st2" width="8.3" height="98.7"/>
			<path class="st0" d="M467.4,70.2c-1.6-6.3-9.2-10.3-19.8-11.5v2.8c7.7,1.1,13.2,4.1,14.3,8.7c2.3,8.9-12.4,20.4-32.9,25.7
				c-20.5,5.3-38.9,2.4-41.2-6.5c-1.6-6.1,4.8-13.3,15.5-19v-3C389.4,74.3,380.9,84,383,92.1c2.9,11,24.1,15.1,47.4,9.1
				C453.6,95.1,470.2,81.3,467.4,70.2z"/>
		</g>
		<g>
			<path class="st2" d="M359.5,147.5l0.6-1.9c0.5,0.4,0.9,0.6,1.3,0.8c1,0.6,2.1,0.9,3.3,0.9c1.2,0,2.1-0.3,2.8-0.9
				c0.6-0.5,0.9-1.1,0.9-1.9c0-0.9-0.4-1.6-1.3-2.1c-0.4-0.2-1.4-0.7-2.9-1.3c-1.6-0.6-2.7-1.2-3.4-1.8c-0.8-0.7-1.2-1.6-1.2-2.5
				s0.3-1.6,0.9-2.3c1.1-1.3,3-2,5.5-2c1.5,0,2.9,0.3,4.5,0.8l-0.6,1.7c-1.5-0.8-2.8-1.3-4.1-1.3c-1,0-1.8,0.3-2.4,0.8
				c-0.5,0.4-0.8,1-0.8,1.6s0.3,1.2,0.8,1.6c0.5,0.4,1.6,0.9,3.2,1.5c1.8,0.7,3,1.3,3.6,1.9c0.8,0.8,1.2,1.7,1.2,2.8
				c0,0.9-0.3,1.7-0.9,2.5c-1.2,1.5-3.1,2.3-5.8,2.3c-1,0-1.9-0.1-2.6-0.3C361.4,148.2,360.5,147.9,359.5,147.5z"/>
			<path class="st2" d="M376.1,132.8h14v1.4c-0.5-0.1-0.9-0.1-1.2-0.1h-4.1v13.6c0,0.3,0,0.5,0.1,0.8h-3.6c0.1-0.2,0.1-0.5,0.1-0.8
				v-13.6h-4.1c-0.4,0-0.8,0-1.2,0.1V132.8z"/>
			<path class="st2" d="M395.9,143.5l-1.9,4.3c-0.1,0.2-0.1,0.4-0.1,0.7h-1.8c0.2-0.2,0.3-0.4,0.4-0.7l6.3-14.4
				c0.1-0.2,0.1-0.4,0.1-0.6h2.8c0,0.2,0.1,0.3,0.1,0.5l6.5,14.5c0.1,0.2,0.2,0.4,0.5,0.7H405c0-0.2,0-0.4-0.1-0.7l-1.8-4.3H395.9z
				 M396.4,142.4h6.2l-3.1-7.1L396.4,142.4z"/>
			<path class="st2" d="M414.7,132.8h5.9c2.2,0,4.1,0.4,5.6,1.1c1.4,0.7,2.5,1.6,3.2,2.7c0.7,1.2,1.1,2.5,1.1,3.9
				c0,2.2-0.7,4-2.1,5.4c-1.8,1.7-4.1,2.6-6.9,2.6h-6.8c0.1-0.2,0.1-0.5,0.1-0.8v-14.2C414.8,133.2,414.8,133,414.7,132.8z
				 M418.1,147.1h2.6c1.7,0,3.1-0.4,4.1-1.2c0.7-0.6,1.2-1.2,1.6-2c0.5-1.1,0.7-2.2,0.7-3.4c0-2.4-1-4.2-2.9-5.4
				c-1.1-0.7-2.5-1-4.1-1H418L418.1,147.1L418.1,147.1z"/>
			<path class="st2" d="M437.7,132.8h3.5c-0.1,0.2-0.1,0.4-0.1,0.7v14.2c0,0.3,0.1,0.6,0.1,0.8h-3.5c0.1-0.2,0.1-0.5,0.1-0.8v-14.2
				C437.9,133.3,437.8,133,437.7,132.8z"/>
			<path class="st2" d="M464.6,132.8c-0.1,0.2-0.1,0.5-0.1,0.8v9.7c0,1.3-0.4,2.3-1.1,3.2s-1.7,1.5-2.9,1.8
				c-1.1,0.3-2.4,0.5-3.8,0.5c-2,0-3.5-0.3-4.6-0.9c-0.9-0.5-1.6-1.1-2.1-1.9c-0.5-0.8-0.7-1.6-0.7-2.6v-9.9c0-0.3,0-0.5-0.1-0.8
				h3.5c-0.1,0.2-0.1,0.5-0.1,0.7v9.9c0,0.9,0.3,1.7,0.8,2.4c0.9,1.1,2.3,1.6,4.3,1.6c1.7,0,3.1-0.4,4-1.1c0.9-0.8,1.4-1.8,1.4-3.2
				v-9.5c0-0.3-0.1-0.6-0.1-0.8h1.6V132.8z"/>
			<path class="st2" d="M475,136.4l-2.2,11.4v0.1c0,0.1,0,0.3,0.1,0.6h-1.8c0.1-0.3,0.2-0.6,0.2-0.7l2.8-14.3c0-0.1,0-0.1,0-0.2
				c0-0.1,0-0.3,0-0.4h2.9c0,0.2,0.1,0.4,0.1,0.6l5.1,12.2l5.2-12.2c0.1-0.2,0.1-0.3,0.1-0.4c0-0.1,0-0.1,0-0.1h2.9
				c0,0.1,0,0.2,0,0.3s0,0.1,0,0.2l2.6,14.4c0,0.1,0.1,0.4,0.2,0.7h-3.4c0-0.1,0.1-0.3,0.1-0.4c0-0.1,0-0.2,0-0.3l-2-11.7l-4.9,11.6
				c-0.1,0.2-0.1,0.4-0.1,0.6v0.1h-2.7c0-0.1,0-0.1,0-0.1c0-0.1,0-0.3-0.1-0.4L475,136.4z"/>
		</g>
	</g>
	<line class="st3" x1="386.3" y1="161.3" x2="346.3" y2="161.3"/>
</g>
<g>
	<g>
		<g id="magma_00000174582830276577301240000016490181319959242374_">
			<path class="st1" d="M115.5,212.3l-6,35c0,0.1,0,0.3,0,0.6v0.2c0,0.3,0,0.6,0,0.9h-2.1c0.1-0.6,0.3-1.2,0.5-1.9l6.4-38.8
				c0,0,0-0.1,0-0.2v-1.6h3.7c0.1,0.7,0.2,1.2,0.3,1.4l12.7,36.9l12.9-37.1c0.1-0.3,0.1-0.7,0.1-1.2h3.9c0,0.2,0,0.3,0,0.5
				c0,0.4,0,0.7,0,0.7l5.9,39.5c0.1,0.6,0.3,1.2,0.4,1.7H150c0.1-0.4,0.1-0.7,0.1-1c0-0.2,0-0.4,0-0.6l-5.5-36.2l-12.4,36
				c-0.2,0.6-0.3,1.2-0.3,1.7h-3.6c0-0.2,0-0.3,0-0.4c0-0.3-0.1-0.6-0.2-1L115.5,212.3z"/>
			<path class="st0" d="M164.7,235.7l-4.1,11.5c-0.2,0.5-0.3,1.1-0.2,1.8h-4c0.4-0.6,0.7-1.2,0.9-1.8l13.9-39.2
				c0.2-0.5,0.3-1.1,0.3-1.6h6.2c0,0.4,0.1,0.9,0.3,1.4l14.3,39.3c0.2,0.5,0.5,1.1,1,1.8H185c0-0.6-0.1-1.2-0.3-1.8l-4.1-11.5h-15.9
				V235.7z M165.8,232.6h13.5l-6.9-19.2L165.8,232.6z"/>
			<path class="st4" d="M231.7,207.9v8.9c-3.3-3-6.9-4.5-10.9-4.5c-3.3,0-5.9,1.2-7.8,3.5c-1.2,1.5-2,3.2-2.5,5.3s-0.8,4.7-0.8,7.9
				c0,4.8,0.6,8.5,1.9,11c1.3,2.6,3.2,3.9,5.8,3.9c0.7,0,1.4-0.2,2-0.7v-15.3c0-1-0.2-1.7-0.4-2.1h14.6c-0.3,0.5-0.4,1.3-0.4,2.1v16
				c0,0.9,0,1.5,0.1,1.8c0,0.3,0.2,0.7,0.4,1.3c-4,1.2-7.1,2-9.2,2.3c-2.1,0.4-4.6,0.5-7.7,0.5c-4.5,0-8.1-0.6-10.9-1.8
				c-7.4-3.3-11.1-9.7-11.1-19.4c0-7.7,2.5-13.6,7.4-17.7c2.4-2,5-3.4,7.8-4.1c2.7-0.7,5.7-1.1,8.9-1.1
				C223,205.7,227.3,206.5,231.7,207.9z"/>
			<path class="st0" d="M245.9,216.3l-4.9,30.8c0,0.1,0,0.2,0,0.3c0,0.2,0,0.7,0.1,1.6h-3.8c0.3-0.9,0.5-1.5,0.5-2l6.1-38.7
				c0-0.2,0.1-0.4,0.1-0.6c0-0.3,0-0.7-0.1-1.2h6.4c0,0.7,0.1,1.2,0.3,1.6l11.3,33l11.4-33.1c0.1-0.4,0.2-0.8,0.2-1.1
				c0-0.2,0-0.3,0-0.4h6.4c0,0.4,0,0.7,0,0.9s0,0.4,0,0.6l5.6,39.1c0.1,0.4,0.2,1,0.5,1.9h-7.6c0.1-0.4,0.1-0.7,0.1-1
				c0-0.2,0-0.5-0.1-0.8l-4.5-31.7l-10.7,31.7c-0.2,0.6-0.3,1.1-0.3,1.5c0,0.1,0,0.2,0,0.3h-6c0-0.2,0-0.3,0-0.4
				c0-0.3-0.1-0.7-0.3-1.2L245.9,216.3z"/>
			<path class="st1" d="M295.5,234.6l-4.6,12.8c-0.1,0.4-0.2,0.9-0.2,1.6h-2.4c0.4-0.7,0.6-1.2,0.7-1.6l14.1-39.6
				c0.1-0.3,0.2-0.7,0.3-1.3h3.6c0.1,0.4,0.1,0.8,0.2,1.1l14.7,39.8c0.1,0.4,0.4,0.9,0.9,1.6H318c0-0.5-0.2-1.1-0.3-1.6l-4.7-12.8
				L295.5,234.6L295.5,234.6z M296.1,232.9h16.2l-8.2-22.2L296.1,232.9z"/>
		</g>
		<g id="iso_00000093892366981579854090000011003445356638962353_">
			<rect x="183" y="70.9" class="st1" width="12.9" height="127.5"/>
			<rect x="234.1" y="54.2" class="st1" width="12.3" height="143.2"/>
			<rect x="199.8" y="36.8" class="st2" width="12.5" height="161.2"/>
			<rect x="216.3" y="36.8" class="st2" width="13.5" height="161.2"/>
			<path class="st0" d="M283.2,117.8c-2.7-10.3-15.1-16.9-32.3-18.8v4.6c12.6,1.8,21.5,6.7,23.4,14.1c3.8,14.5-20.3,33.3-53.7,41.9
				c-33.4,8.6-63.5,3.9-67.3-10.6c-2.6-9.9,7.8-21.8,25.2-31.1v-4.9c-22.7,11.3-36.6,27.1-33.1,40.4c4.7,18,39.3,24.6,77.3,14.8
				C260.8,158.4,287.9,135.8,283.2,117.8z"/>
		</g>
		<g>
			<path class="st2" d="M106.8,282.1l1.1-3c0.8,0.6,1.5,1,2.1,1.4c1.7,0.9,3.4,1.4,5.4,1.4c1.9,0,3.5-0.5,4.6-1.4
				c1-0.8,1.5-1.9,1.5-3c0-1.4-0.7-2.5-2.1-3.4c-0.6-0.4-2.2-1.1-4.8-2.1c-2.6-1-4.5-2-5.6-3c-1.3-1.2-1.9-2.5-1.9-4.1
				c0-1.4,0.5-2.7,1.4-3.8c1.9-2.2,4.9-3.3,9-3.3c2.4,0,4.8,0.5,7.3,1.4l-1,2.7c-2.4-1.4-4.6-2-6.6-2c-1.6,0-2.9,0.4-3.9,1.2
				c-0.8,0.7-1.3,1.6-1.3,2.6s0.4,1.9,1.3,2.5c0.9,0.7,2.6,1.5,5.2,2.5c2.9,1.1,4.9,2.1,5.9,3.2c1.3,1.3,1.9,2.8,1.9,4.5
				c0,1.5-0.5,2.8-1.4,4c-1.9,2.5-5,3.7-9.4,3.7c-1.6,0-3-0.1-4.3-0.4C109.9,283.4,108.4,282.9,106.8,282.1z"/>
			<path class="st2" d="M133.8,258.2h22.8v2.3c-0.8-0.1-1.4-0.2-2-0.2h-6.8v22.2c0,0.4,0.1,0.9,0.2,1.2h-5.7
				c0.1-0.4,0.2-0.8,0.2-1.2v-22.2h-6.8c-0.6,0-1.3,0.1-2,0.2v-2.3H133.8z"/>
			<path class="st2" d="M166.2,275.8l-3,6.9c-0.1,0.3-0.2,0.7-0.2,1.1h-3c0.3-0.4,0.5-0.7,0.6-1.1l10.3-23.6
				c0.1-0.3,0.2-0.6,0.2-0.9h4.6c0,0.3,0.1,0.5,0.2,0.8l10.6,23.7c0.2,0.3,0.4,0.7,0.8,1.1h-6.2c0-0.3-0.1-0.7-0.2-1.1l-3-6.9H166.2
				z M167,273.9h10l-5.1-11.6L167,273.9z"/>
			<path class="st2" d="M196.9,258.2h9.7c3.6,0,6.6,0.6,9.2,1.8c2.3,1.1,4,2.6,5.2,4.4c1.2,1.9,1.8,4,1.8,6.3c0,3.5-1.2,6.5-3.5,8.8
				c-2.9,2.8-6.6,4.2-11.2,4.2H197c0.1-0.4,0.2-0.8,0.2-1.2v-23.1C197.1,258.9,197,258.5,196.9,258.2z M202.3,281.5h4.3
				c2.8,0,5-0.7,6.7-2c1.2-0.9,2-2,2.6-3.3c0.8-1.8,1.2-3.6,1.2-5.5c0-4-1.5-6.9-4.7-8.7c-1.9-1.1-4.1-1.7-6.6-1.7h-3.5V281.5z"/>
			<path class="st2" d="M234.4,258.2h5.7c-0.1,0.3-0.2,0.7-0.2,1.2v23.1c0,0.5,0.1,0.9,0.2,1.2h-5.7c0.1-0.4,0.2-0.8,0.2-1.2v-23.1
				C234.6,258.9,234.6,258.5,234.4,258.2z"/>
			<path class="st2" d="M278.2,258.2c-0.1,0.3-0.2,0.8-0.2,1.2v15.9c0,2.1-0.6,3.8-1.8,5.2c-1.2,1.4-2.8,2.4-4.7,2.9
				c-1.9,0.5-3.9,0.8-6.1,0.8c-3.2,0-5.7-0.5-7.5-1.4c-1.5-0.7-2.6-1.8-3.4-3s-1.2-2.7-1.2-4.2v-16.1c0-0.4-0.1-0.9-0.2-1.2h5.7
				c-0.1,0.4-0.2,0.8-0.2,1.2v16.2c0,1.5,0.4,2.8,1.3,3.9c1.4,1.7,3.8,2.6,7.1,2.6c2.8,0,5-0.6,6.5-1.8c1.5-1.2,2.3-3,2.3-5.2v-15.6
				c0-0.5-0.1-0.9-0.2-1.2h2.6V258.2z"/>
			<path class="st2" d="M295.2,264l-3.6,18.6c0,0.1,0,0.1,0,0.2s0,0.4,0.1,0.9h-2.9c0.2-0.5,0.3-0.9,0.4-1.2l4.5-23.3
				c0-0.1,0.1-0.2,0.1-0.4c0-0.2,0-0.4-0.1-0.7h4.7c0,0.4,0.1,0.7,0.2,1L307,279l8.4-19.9c0.1-0.3,0.2-0.5,0.2-0.7
				c0-0.1,0-0.2,0-0.2h4.7c0,0.2,0,0.4,0,0.5s0,0.2,0,0.4l4.2,23.5c0,0.2,0.2,0.6,0.4,1.1h-5.6c0.1-0.2,0.1-0.4,0.1-0.6
				c0-0.1,0-0.3,0-0.5l-3.3-19.1l-8,19c-0.2,0.4-0.2,0.7-0.2,0.9c0,0.1,0,0.1,0,0.2h-4.6c0-0.1,0-0.2,0-0.2c0-0.2-0.1-0.4-0.2-0.7
				L295.2,264z"/>
		</g>
	</g>
	<line class="st3" x1="346.3" y1="135.5" x2="346.3" y2="185.5"/>
</g>
<g>
	<g>
		<g id="txt_3_">
			<text transform="matrix(1 0 0 1 487.6201 281.4111)" class="st5 st6 st7">X</text>
			<text transform="matrix(1 0 0 1 487.6221 288.3945)" class="st5 st6 st7">X</text>
			<text transform="matrix(1 0 0 1 472.2695 235.2188)" class="st5 st6 st7">19X</text>
			<text transform="matrix(1 0 0 1 446.8818 195.2754)" class="st5 st6 st7">2X</text>
			<text transform="matrix(1 0 0 1 463.1768 198.7695)" class="st5 st6 st7">4X</text>
			<text transform="matrix(1 0 0 1 463.1768 270.9316)" class="st5 st6 st7">3X</text>
			<text transform="matrix(1 0 0 1 488.7793 295.3789)" class="st5 st6 st7">2½X</text>
			<text transform="matrix(1 0 0 1 488.8193 284.6172)" class="st5 st6 st7">½X</text>
			<g>
				<text transform="matrix(1 0 0 1 421.6895 174.3232)" class="st5 st6 st7">7½X</text>
			</g>
			<g>
				<text transform="matrix(1 0 0 1 416.7822 183.6367)" class="st5 st6 st7">1½X</text>
			</g>
			<g>
				<text transform="matrix(1 0 0 1 412.7158 180.1426)" class="st5 st6 st7">½X</text>
			</g>
			<g>
				<text transform="matrix(1 0 0 1 407.4707 183.6367)" class="st5 st6 st7">1½X</text>
			</g>
			<g>
				<text transform="matrix(1 0 0 1 403.4043 180.1426)" class="st5 st6 st7">½X</text>
			</g>
			<g>
				<text transform="matrix(1 0 0 1 426.0947 183.6367)" class="st5 st6 st7">1½X</text>
			</g>
			<g>
				<text transform="matrix(1 0 0 1 422.0273 180.1426)" class="st5 st6 st7">½X</text>
			</g>
			<g>
				<text transform="matrix(1 0 0 1 435.4062 183.6367)" class="st5 st6 st7">1½X</text>
			</g>
			<g>
				<text transform="matrix(1 0 0 1 431.3389 180.1426)" class="st5 st6 st7">½X</text>
			</g>
			<g>
				<text transform="matrix(1 0 0 1 440.6504 180.1426)" class="st5 st6 st7">½X</text>
			</g>
		</g>
		<path id="cotas_3_" class="st8" d="M485.3,278v4.7 M487.6,282.6v2.4 M445.7,189.4v9.4 M485.3,284.7v4.7 M487.6,289.5v11.6
			 M406.4,175.4h34.7 M462,263.9V278 M413.1,181.3h2.4 M415.5,184.8h7 M403.8,181.3h2.4 M406.1,184.8h7 M422.5,181.3h2.4
			 M424.8,184.8h7 M431.7,181.3h2.4 M434.1,184.8h7 M441.1,181.3h2.4 M471.4,189.4v88.5 M460.9,208.1v-18.6"/>
		<path id="elipse-grilla_3_" class="st9" d="M423.4,225.1c-21.5,0-39,8.2-39,18.4c0,10.2,17.5,18.4,39,18.4c21.5,0,39-8.2,39-18.4
			C462.3,233.4,444.9,225.1,423.4,225.1z M423.4,257.2c-18.9,0-34.1-6.7-34.1-14.8c0-8.2,15.3-14.8,34.1-14.8
			c18.9,0,34.1,6.7,34.1,14.8C457.6,250.5,442.3,257.2,423.4,257.2z M382.1,243.5h82.6 M423.4,259.8V218 M418.8,225.7
			c-20.8,5.3-35.6,17.8-33.1,27.6c2.6,9.9,21.5,13.5,42.3,8.1c20.8-5.3,35.6-17.8,33.1-27.6C458.5,224,439.6,220.3,418.8,225.7z
			 M426.8,256.7c-18.3,4.7-34.8,2.2-36.8-5.9c-2.1-7.9,11.1-18.2,29.4-22.9s34.8-2.2,36.8,5.9C458.3,241.8,445.1,252,426.8,256.7z
			 M383.4,253.9l80-20.7 M428.7,259.1l-10.5-40.4"/>
		<path id="grilla_3_" class="st9" d="M406,180.4l0.1,99.8 M403.8,179.3l0.1,99.8 M443.3,178.9l0.1,99.8 M413,180.2l0.1,99.8
			 M415.3,180.4l0.1,99.8 M422.5,180.3l0.1,99.8 M424.7,180.2l0.1,99.8 M431.6,180.2l0.1,99.8 M433.9,180.2L434,280 M440.9,180.2
			L441,280 M359.6,277.7h129.8 M359.9,264h129.8 M410.8,189.4h60.5 M415.9,198.7h32.2 M359.5,282.6h130.3 M359.5,284.9h130.3
			 M359.5,301.2h130.3 M359.5,289.5h130.3 M401.5,208.1H462"/>
		<g id="marca_3_">
			<g id="stadium">
				<path class="st10" d="M364,300.3l0.5-1.3c0.4,0.3,0.7,0.4,0.9,0.6c0.7,0.4,1.5,0.6,2.5,0.6c0.9,0,1.5-0.2,2.1-0.6
					c0.4-0.4,0.6-0.8,0.6-1.3c0-0.6-0.3-1.1-0.9-1.5c-0.3-0.2-1-0.5-2.2-0.9c-1.2-0.4-2.1-0.9-2.5-1.3c-0.6-0.5-0.8-1.1-0.8-1.9
					c0-0.6,0.2-1.1,0.6-1.6c0.8-0.9,2.2-1.4,4.1-1.4c1,0,2.2,0.2,3.3,0.6l-0.4,1.2c-1.1-0.6-2.1-0.9-3-0.9c-0.7,0-1.3,0.2-1.7,0.5
					c-0.4,0.3-0.6,0.7-0.6,1.1s0.2,0.8,0.6,1.1c0.4,0.3,1.1,0.6,2.4,1.1c1.3,0.5,2.2,0.9,2.7,1.4c0.6,0.6,0.9,1.2,0.9,2
					c0,0.6-0.2,1.2-0.6,1.7c-0.8,1.1-2.3,1.6-4.2,1.6c-0.7,0-1.3-0.1-2-0.2C365.4,300.8,364.7,300.6,364,300.3z"/>
				<path class="st10" d="M379.6,289.7h10.3v1c-0.3,0-0.6-0.1-0.9-0.1h-3.1v9.8c0,0.2,0,0.4,0.1,0.5h-2.6c0.1-0.2,0.1-0.3,0.1-0.5
					v-9.8h-3.1c-0.3,0-0.6,0-0.9,0.1v-1H379.6z"/>
				<path class="st10" d="M397.6,297.4l-1.3,3.1c-0.1,0.1-0.1,0.3-0.1,0.5h-1.3c0.1-0.2,0.2-0.3,0.3-0.5l4.6-10.4
					c0.1-0.1,0.1-0.3,0.1-0.4h2.1c0,0.1,0,0.2,0.1,0.4l4.8,10.4c0.1,0.1,0.2,0.3,0.3,0.5h-2.8c0-0.1,0-0.3-0.1-0.5l-1.3-3.1H397.6z
					 M398,296.6h4.5l-2.3-5L398,296.6z"/>
				<path class="st10" d="M414.9,289.7h4.4c1.6,0,3,0.3,4.1,0.8c1,0.5,1.9,1.1,2.4,2c0.5,0.8,0.8,1.7,0.8,2.8c0,1.5-0.5,2.9-1.5,3.9
					c-1.3,1.2-3,1.9-5,1.9h-5c0.1-0.2,0.1-0.3,0.1-0.5v-10.2C415,290,414.9,289.9,414.9,289.7z M417.3,300h2c1.2,0,2.3-0.3,3.1-0.9
					c0.5-0.4,0.9-0.9,1.1-1.4c0.3-0.7,0.5-1.5,0.5-2.5c0-1.7-0.7-3.1-2.1-3.8c-0.8-0.5-1.9-0.7-3-0.7h-1.5v9.4H417.3z"/>
				<path class="st10" d="M435.1,289.7h2.6c-0.1,0.1-0.1,0.3-0.1,0.5v10.2c0,0.2,0,0.4,0.1,0.5h-2.6c0.1-0.2,0.1-0.3,0.1-0.5v-10.2
					C435.2,290,435.2,289.9,435.1,289.7z"/>
				<path class="st10" d="M458.4,289.7c-0.1,0.1-0.1,0.3-0.1,0.5v7c0,0.9-0.3,1.6-0.8,2.3c-0.5,0.6-1.2,1-2.2,1.2
					c-0.8,0.2-1.7,0.3-2.8,0.3c-1.4,0-2.6-0.2-3.4-0.6c-0.6-0.3-1.1-0.8-1.5-1.3c-0.4-0.5-0.5-1.1-0.5-1.9v-7.1c0-0.2,0-0.4-0.1-0.5
					h2.6c-0.1,0.2-0.1,0.3-0.1,0.5v7.1c0,0.7,0.2,1.2,0.6,1.7c0.6,0.8,1.7,1.1,3.2,1.1c1.2,0,2.3-0.3,3-0.8c0.7-0.5,1-1.3,1-2.3
					v-6.9c0-0.2,0-0.4-0.1-0.5h1.2V289.7z"/>
				<path class="st10" d="M469.4,292.3l-1.6,8.2v0.1c0,0,0,0.2,0,0.4h-1.3c0.1-0.2,0.2-0.4,0.2-0.5l2.1-10.3c0,0,0-0.1,0-0.2
					s0-0.2,0-0.3h2.2c0,0.2,0,0.3,0.1,0.4l3.8,8.7l3.8-8.7c0-0.1,0.1-0.2,0.1-0.3v-0.1h2.2c0,0.1,0,0.2,0,0.2c0,0.1,0,0.1,0,0.2
					l1.9,10.4c0,0.1,0.1,0.3,0.2,0.5h-2.6c0-0.1,0-0.2,0-0.2c0-0.1,0-0.1,0-0.2l-1.5-8.4l-3.6,8.3c-0.1,0.2-0.1,0.3-0.1,0.4v0.1h-2
					v-0.1c0-0.1,0-0.2-0.1-0.3L469.4,292.3z"/>
			</g>
			<rect id="banda_3_" x="364.3" y="282.6" class="st10" width="118.7" height="2.4"/>
			<g id="iso_3_">
				<rect x="406.2" y="208.2" class="st11" width="7" height="69.8"/>
				<rect x="434.2" y="199" class="st10" width="6.8" height="78.4"/>
				<rect x="415.5" y="189.4" class="st10" width="6.9" height="88.3"/>
				<rect x="424.4" y="189.4" class="st10" width="7.4" height="88.3"/>
				<path class="st10" d="M461.1,233.8c-1.4-5.7-8.2-9.3-17.7-10.3v2.6c6.9,1,11.7,3.7,12.9,7.7c2.1,7.9-11.1,18.2-29.4,22.9
					c-18.3,4.7-34.8,2.2-36.8-5.9c-1.4-5.5,4.2-11.9,13.8-17v-2.7c-12.4,6.2-20.1,14.8-18.1,22.1c2.6,9.9,21.5,13.5,42.3,8.1
					C448.8,256.1,463.6,243.6,461.1,233.8z"/>
			</g>
		</g>
	</g>
</g>
</svg>
