<?xml version="1.0" encoding="utf-8"?>
<!-- Generator: Adobe Illustrator 26.0.3, SVG Export Plug-In . SVG Version: 6.00 Build 0)  -->
<svg version="1.1" id="Layer_1" xmlns="http://www.w3.org/2000/svg" xmlns:xlink="http://www.w3.org/1999/xlink" x="0px" y="0px"
	 viewBox="0 0 600 320" style="enable-background:new 0 0 600 320;" xml:space="preserve">
<style type="text/css">
	.st0{fill:#929497;}
	.st1{fill:#6D6E70;}
	.st2{fill:#404041;}
	.st3{fill:#005D83;}
	.st4{fill:#007697;}
	.st5{fill:none;stroke:#808285;stroke-width:0.5;stroke-dasharray:4,4;}
	.st6{fill:#808184;}
	.st7{font-family:'MyriadPro-Regular';}
	.st8{font-size:2.348px;}
	.st9{fill:none;stroke:#808184;stroke-width:7.353100e-02;}
	.st10{fill:none;stroke:#808184;stroke-width:7.353100e-02;stroke-dasharray:0.2102;}
	.st11{fill:#E6E7E8;stroke:#808184;stroke-width:7.493100e-02;}
	.st12{fill:#E6E7E8;stroke:#808184;stroke-width:7.353100e-02;}
</style>
<g>
	<g>
		<g id="magma_3_">
			<path class="st0" d="M111.7,210.8l-6,35.4c0,0.2,0,0.3,0,0.6v0.2c0,0.3,0,0.6,0,0.9h-2.1c0.1-0.6,0.3-1.2,0.5-1.9l6.5-39.3
				c0,0,0-0.1,0-0.2v-1.6h3.7c0.1,0.7,0.2,1.2,0.3,1.4l12.9,37.3l13.1-37.5c0.1-0.3,0.1-0.7,0.1-1.2h3.9c0,0.2,0,0.3,0,0.5
				c0,0.4,0,0.7,0,0.8l6,40c0.1,0.7,0.3,1.2,0.4,1.8h-4.3c0.1-0.4,0.1-0.7,0.1-1c0-0.2,0-0.4,0-0.6l-5.6-36.6l-12.8,36.4
				c-0.2,0.6-0.3,1.2-0.3,1.8h-3.6c0-0.2,0-0.3,0-0.4c0-0.3-0.1-0.6-0.2-1L111.7,210.8z"/>
			<path class="st1" d="M161.5,234.5l-4.2,11.7c-0.2,0.5-0.3,1.1-0.3,1.8h-4.1c0.4-0.6,0.7-1.2,0.9-1.8l14.1-39.6
				c0.2-0.5,0.3-1.1,0.3-1.6h6.3c0,0.4,0.1,0.9,0.3,1.4l14.5,39.8c0.2,0.5,0.6,1.1,1,1.8h-8.4c0-0.6-0.1-1.2-0.3-1.8l-4.1-11.7
				L161.5,234.5L161.5,234.5z M162.6,231.4h13.7l-7-19.5L162.6,231.4z"/>
			<path class="st2" d="M229.4,206.3v9c-3.4-3-7-4.6-11-4.6c-3.4,0-6,1.2-7.9,3.6c-1.2,1.5-2,3.2-2.6,5.3c-0.5,2.1-0.8,4.7-0.8,8
				c0,4.9,0.7,8.6,2,11.2c1.3,2.6,3.3,3.9,5.9,3.9c0.7,0,1.4-0.2,2-0.7v-15.5c0-1-0.2-1.7-0.4-2.2h14.8c-0.3,0.5-0.4,1.3-0.4,2.2
				v16.2c0,0.9,0,1.6,0.1,1.8c0,0.3,0.2,0.7,0.4,1.3c-4.1,1.2-7.2,2-9.3,2.3c-2.1,0.4-4.7,0.5-7.8,0.5c-4.5,0-8.2-0.6-11-1.9
				c-7.5-3.3-11.3-9.9-11.3-19.6c0-7.8,2.5-13.7,7.5-17.9c2.4-2,5-3.4,7.8-4.2c2.7-0.7,5.7-1.1,9-1.1
				C220.5,204.2,224.9,204.9,229.4,206.3z"/>
			<path class="st1" d="M243.8,214.9l-5,31.2c0,0.1,0,0.2,0,0.3c0,0.2,0,0.7,0.1,1.6h-3.9c0.3-0.9,0.5-1.6,0.5-2l6.2-39.2
				c0-0.2,0.1-0.4,0.1-0.6c0-0.3,0-0.7-0.1-1.2h6.5c0,0.7,0.1,1.2,0.3,1.6L260,240l11.5-33.6c0.1-0.4,0.2-0.8,0.2-1.1
				c0-0.2,0-0.3,0-0.4h6.5c0,0.4,0,0.7,0,0.9s0,0.4,0,0.6l5.7,39.6c0.1,0.4,0.2,1,0.5,1.9h-7.7c0.1-0.4,0.2-0.7,0.2-1
				c0-0.2,0-0.5-0.1-0.8l-4.6-32.1l-10.9,31.9c-0.2,0.6-0.3,1.1-0.3,1.5c0,0.1,0,0.2,0,0.3h-6c0-0.2,0-0.3,0-0.4
				c0-0.3-0.1-0.7-0.3-1.2L243.8,214.9z"/>
			<path class="st0" d="M294,233.3l-4.7,13c-0.1,0.4-0.2,0.9-0.2,1.6h-2.5c0.4-0.7,0.6-1.3,0.8-1.6l14.3-40c0.1-0.3,0.2-0.7,0.3-1.3
				h3.7c0.1,0.4,0.1,0.8,0.2,1.1l14.8,40.3c0.1,0.4,0.4,0.9,0.9,1.6h-4.8c0-0.5-0.2-1.1-0.3-1.6l-4.7-13H294V233.3z M294.5,231.6
				h16.4l-8.3-22.4L294.5,231.6z"/>
		</g>
		<g id="iso_4_">
			<rect x="180.5" y="33.2" class="st0" width="13" height="163.5"/>
			<rect x="232.3" y="33.5" class="st0" width="12.5" height="162.1"/>
			<rect x="197.6" y="33.1" class="st3" width="12.7" height="163.2"/>
			<rect x="214.3" y="33.1" class="st3" width="13.7" height="163.2"/>
			<path class="st1" d="M282,115.1c-2.7-10.4-15.3-17.1-32.7-19v4.7c12.8,1.9,21.7,6.8,23.7,14.3c3.8,14.7-20.5,33.7-54.3,42.4
				s-64.3,3.9-68.1-10.8c-2.6-10,7.9-22,25.5-31.4v-5c-23,11.4-37,27.4-33.5,40.9c4.7,18.2,39.8,25,78.3,15
				C259.4,156.2,286.8,133.4,282,115.1z"/>
		</g>
		<g>
			<path class="st3" d="M103.8,256.9H120v2.1c-0.6-0.1-1.1-0.2-1.7-0.2h-9v10h7.7c0.6,0,1.1-0.1,1.7-0.2v2.1c-0.5-0.1-1-0.2-1.6-0.2
				h-7.7v11c0,0.4,0.1,0.9,0.2,1.3h-5.8c0.1-0.4,0.2-0.8,0.2-1.3v-23.4C104,257.8,103.9,257.4,103.8,256.9z"/>
			<path class="st3" d="M154,256.5c4.7,0,8.4,1.1,11.2,3.2c3,2.3,4.5,5.7,4.5,10.2c0,4.4-1.4,7.8-4.3,10.1
				c-2.7,2.2-6.6,3.3-11.5,3.3c-5.1,0-9-1.2-11.6-3.5c-2.7-2.4-4-5.8-4-10.1c0-2.7,0.6-5.1,1.9-7.1
				C142.8,258.5,147.3,256.5,154,256.5z M154,258.5c-3.5,0-6.1,1.1-7.8,3.2c-1.5,2-2.3,4.6-2.3,7.9c0,7.7,3.4,11.5,10.1,11.5
				c3.4,0,5.9-1.1,7.6-3.2c0.8-1,1.4-2.2,1.8-3.4c0.4-1.3,0.6-2.8,0.6-4.6C164.1,262.4,160.8,258.6,154,258.5z"/>
			<path class="st3" d="M196.2,270.9v10.8c0,0.4,0.1,0.9,0.2,1.3h-5.8c0.1-0.3,0.2-0.7,0.2-1.3v-23.5c0-0.4-0.1-0.8-0.2-1.2h9.7
				c2.2,0,4.2,0.4,5.8,1.1c1.3,0.6,2.3,1.4,3.1,2.4s1.1,2.2,1.1,3.5c0,2.9-1.7,4.9-5,5.9c-0.9,0.3-2.1,0.5-3.6,0.8l10.5,11.2
				c0.4,0.5,0.9,0.8,1.3,1h-7c-0.2-0.4-0.4-0.8-0.7-1.1L196.2,270.9z M196.1,269.4h2.5c1.4,0,2.7-0.3,3.7-0.9c1.7-1,2.5-2.4,2.5-4.3
				c0-1.8-0.7-3.2-2.1-4.2c-1-0.7-2.5-1.1-4.4-1.1h-2.2V269.4z"/>
			<path class="st3" d="M227.6,256.9h23.2v2.4c-0.8-0.1-1.4-0.2-2-0.2h-6.9v22.5c0,0.5,0.1,0.9,0.2,1.3h-5.8
				c0.1-0.4,0.2-0.8,0.2-1.3v-22.5h-6.9c-0.7,0-1.3,0.1-2,0.2V256.9z"/>
			<path class="st3" d="M269.1,256.9h5.8c-0.1,0.3-0.2,0.7-0.2,1.2v23.5c0,0.5,0.1,1,0.2,1.3h-5.8c0.1-0.4,0.2-0.8,0.2-1.3v-23.5
				C269.4,257.6,269.2,257.2,269.1,256.9z"/>
			<path class="st3" d="M300.2,274.8l-3.1,7c-0.1,0.3-0.2,0.7-0.2,1.1h-3c0.3-0.4,0.5-0.7,0.7-1.1l10.5-23.9c0.1-0.3,0.2-0.6,0.2-1
				h4.7c0,0.3,0.1,0.6,0.2,0.9l10.8,24c0.2,0.3,0.4,0.7,0.8,1.1h-6.2c0-0.3-0.1-0.7-0.2-1.1l-3.1-7H300.2z M301,272.9h10.2
				l-5.2-11.7L301,272.9z"/>
		</g>
	</g>
</g>
<g>
	
		<rect id="banda_00000038376241291762921680000003924368941943490715_" x="356.4" y="121.8" class="st1" width="133.7" height="2.6"/>
	<g id="iso_00000038379842958410579940000001255754303494361246_">
		<rect x="403.5" y="17.1" class="st0" width="7.9" height="99.5"/>
		<rect x="435.1" y="17.3" class="st0" width="7.6" height="98.7"/>
		<rect x="413.9" y="17" class="st4" width="7.7" height="99.4"/>
		<rect x="424.1" y="17" class="st4" width="8.3" height="99.4"/>
		<path class="st1" d="M465.4,66.8c-1.6-6.3-9.3-10.4-19.9-11.6v2.9c7.8,1.1,13.2,4.1,14.4,8.7c2.3,8.9-12.5,20.5-33.1,25.8
			c-20.6,5.4-39.1,2.5-41.4-6.5c-1.6-6.1,4.8-13.4,15.5-19.1v-3c-14,7-22.5,16.7-20.4,24.9c2.9,11.1,24.2,15.2,47.7,9.1
			C451.5,92,468.2,78.1,465.4,66.8z"/>
	</g>
	<g>
		<path class="st4" d="M356.9,129.9h9.9v1.3c-0.3-0.1-0.7-0.1-1-0.1h-5.5v6.1h4.7c0.4,0,0.7,0,1-0.1v1.3c-0.3-0.1-0.6-0.1-1-0.1
			h-4.7v6.7c0,0.3,0,0.5,0.1,0.8h-3.5c0.1-0.2,0.1-0.5,0.1-0.8v-14.3C357,130.4,356.9,130.2,356.9,129.9z"/>
		<path class="st4" d="M387.4,129.7c2.9,0,5.1,0.6,6.8,1.9c1.8,1.4,2.8,3.5,2.8,6.2s-0.9,4.7-2.6,6.1c-1.7,1.3-4,2-7,2
			c-3.1,0-5.5-0.7-7.1-2.2s-2.4-3.5-2.4-6.1c0-1.7,0.4-3.1,1.2-4.3C380.6,130.9,383.4,129.7,387.4,129.7z M387.5,130.9
			c-2.1,0-3.7,0.7-4.7,2c-0.9,1.2-1.4,2.8-1.4,4.8c0,4.7,2,7,6.1,7c2,0,3.6-0.7,4.7-2c0.5-0.6,0.9-1.3,1.1-2.1s0.3-1.7,0.3-2.8
			C393.6,133.3,391.5,131,387.5,130.9z"/>
		<path class="st4" d="M413.1,138.4v6.6c0,0.3,0,0.5,0.1,0.8h-3.5c0.1-0.2,0.1-0.5,0.1-0.8v-14.3c0-0.3,0-0.5-0.1-0.7h5.9
			c1.3,0,2.5,0.2,3.5,0.7c0.8,0.4,1.4,0.8,1.9,1.5c0.5,0.6,0.7,1.3,0.7,2.1c0,1.8-1,3-3.1,3.6c-0.6,0.2-1.3,0.3-2.2,0.5l6.4,6.8
			c0.3,0.3,0.5,0.5,0.8,0.6h-4.2c-0.1-0.2-0.2-0.5-0.4-0.7L413.1,138.4z M413.1,137.5h1.5c0.9,0,1.6-0.2,2.3-0.5
			c1-0.6,1.5-1.5,1.5-2.6s-0.4-1.9-1.3-2.6c-0.6-0.5-1.5-0.7-2.7-0.7h-1.3V137.5z"/>
		<path class="st4" d="M432.2,129.9h14.1v1.4c-0.5-0.1-0.9-0.1-1.2-0.1h-4.2v13.7c0,0.3,0,0.5,0.1,0.8h-3.5c0.1-0.2,0.1-0.5,0.1-0.8
			v-13.7h-4.2c-0.4,0-0.8,0-1.2,0.1L432.2,129.9L432.2,129.9z"/>
		<path class="st4" d="M457.5,129.9h3.5c-0.1,0.2-0.1,0.4-0.1,0.7v14.3c0,0.3,0.1,0.6,0.1,0.8h-3.5c0.1-0.2,0.1-0.5,0.1-0.8v-14.3
			C457.6,130.4,457.6,130.1,457.5,129.9z"/>
		<path class="st4" d="M476.4,140.8l-1.9,4.3c-0.1,0.2-0.1,0.4-0.1,0.7h-1.8c0.2-0.2,0.3-0.5,0.4-0.7l6.4-14.6
			c0.1-0.2,0.1-0.4,0.1-0.6h2.8c0,0.2,0.1,0.3,0.1,0.5L489,145c0.1,0.2,0.3,0.4,0.5,0.7h-3.8c0-0.2,0-0.4-0.1-0.7l-1.9-4.3h-7.3
			V140.8z M476.9,139.6h6.2l-3.1-7.2L476.9,139.6z"/>
	</g>
</g>
<line class="st5" x1="383.1" y1="158.3" x2="343.1" y2="158.3"/>
<line class="st5" x1="343.1" y1="132.5" x2="343.1" y2="182.5"/>
<g>
	<g id="txt">
		<text transform="matrix(1 0 0 1 484.2012 280.5391)" class="st6 st7 st8">X</text>
		<text transform="matrix(1 0 0 1 486.4082 295.3516)" class="st6 st7 st8">2½X</text>
		<text transform="matrix(1 0 0 1 469.2695 236.0791)" class="st6 st7 st8">19X</text>
		<text transform="matrix(1 0 0 1 460.4297 270.8096)" class="st6 st7 st8">3X</text>
		<text transform="matrix(1 0 0 1 484.2012 287.332)" class="st6 st7 st8">X</text>
		<text transform="matrix(1 0 0 1 486.4639 283.8936)" class="st6 st7 st8">½X</text>
		<g>
			<text transform="matrix(1 0 0 1 420.084 176.8623)" class="st6 st7 st8">7½X</text>
		</g>
		<g>
			<text transform="matrix(1 0 0 1 415.3115 185.918)" class="st6 st7 st8">1½X</text>
		</g>
		<g>
			<text transform="matrix(1 0 0 1 411.3584 182.5205)" class="st6 st7 st8">½X</text>
		</g>
		<g>
			<text transform="matrix(1 0 0 1 406.2568 185.918)" class="st6 st7 st8">1½X</text>
		</g>
		<g>
			<text transform="matrix(1 0 0 1 402.3037 182.5205)" class="st6 st7 st8">½X</text>
		</g>
		<g>
			<text transform="matrix(1 0 0 1 424.3672 185.918)" class="st6 st7 st8">1½X</text>
		</g>
		<g>
			<text transform="matrix(1 0 0 1 420.4131 182.5205)" class="st6 st7 st8">½X</text>
		</g>
		<g>
			<text transform="matrix(1 0 0 1 433.4229 185.918)" class="st6 st7 st8">1½X</text>
		</g>
		<g>
			<text transform="matrix(1 0 0 1 429.4688 182.5205)" class="st6 st7 st8">½X</text>
		</g>
		<g>
			<text transform="matrix(1 0 0 1 438.5244 182.5205)" class="st6 st7 st8">½X</text>
		</g>
	</g>
	<path id="cotas" class="st9" d="M481.9,277.3v4.6 M484.2,282.1v2.3 M481.9,284.4v4.5 M484.2,288.7v11.5 M405.2,178h33.6 M459.3,264
		v13.8 M411.8,183.7h2.3 M414,187h6.8 M402.7,183.7h2.3 M405,187h6.8 M420.8,183.7h2.3 M423.1,187h6.8 M429.9,183.7h2.3 M432.1,187
		h6.8 M438.9,183.7h2.3 M468.3,191.6v86.1"/>
	<path id="elipse-grilla" class="st10" d="M421.8,226.2c-20.9,0-37.9,8.1-37.9,17.9c0,9.9,17,17.9,37.9,17.9s37.9-8.1,37.9-17.9
		C459.6,234.3,442.7,226.2,421.8,226.2z M421.8,257.5c-18.4,0-33.3-6.5-33.3-14.5s14.9-14.5,33.3-14.5S455,235.1,455,243
		C455,251,440.2,257.5,421.8,257.5z M381.6,244.2h80.3 M421.8,259.9v-40.6 M417.3,226.8c-20.2,5.3-34.7,17.3-32.2,26.8
		c2.5,9.6,20.9,13.1,41.1,7.9c20.2-5.3,34.7-17.3,32.2-26.8C455.9,225.1,437.5,221.5,417.3,226.8z M425.1,257
		c-17.7,4.6-33.8,2-35.8-5.7c-2-7.8,10.8-17.7,28.6-22.3c17.7-4.6,33.8-2,35.8,5.7C455.7,242.4,442.8,252.4,425.1,257z M382.9,254.2
		l77.8-20.1 M426.8,259.3l-10.2-39.4"/>
	<path id="grilla" class="st10" d="M404.8,182.8l0.1,97.1 M402.7,181.7l0.1,97.1 M441,181.4l0.1,97.1 M411.6,182.5l0.1,97.1
		 M413.9,182.8l0.1,97.1 M420.8,182.6l0.1,97.1 M422.9,182.5l0.1,97.1 M429.7,182.5l0.1,97.1 M432,182.5l0.1,97.1 M438.8,182.5
		l0.1,97.1 M359.8,277.3h126.3 M359.9,264h126.3 M400.5,191.6h67.9 M359.8,281.9h126.3 M359.8,284.3h133.7 M359.8,288.8h133.7
		 M359.8,300.3h126.5"/>
	<g id="marca">
		<g id="fortia">
			<path class="st11" d="M364.3,289h7v0.9c-0.3,0-0.5-0.1-0.8-0.1h-3.9v4.2h3.4c0.3,0,0.5,0,0.8-0.1v1c-0.2,0-0.4-0.1-0.7-0.1h-3.4
				v4.7c0,0.2,0,0.4,0.1,0.6h-2.5c0.1-0.2,0.1-0.4,0.1-0.6v-10C364.4,289.3,364.3,289.2,364.3,289z"/>
			<path class="st11" d="M390.2,288.8c2,0,3.6,0.5,4.9,1.3c1.3,1,2,2.5,2,4.3c0,1.9-0.7,3.4-1.9,4.3c-1.1,1-2.9,1.4-5,1.4
				c-2.2,0-3.9-0.5-5.1-1.5c-1.2-1.1-1.7-2.5-1.7-4.3c0-1.1,0.3-2.2,0.9-3.1C385.3,289.7,387.4,288.8,390.2,288.8z M390.3,289.7
				c-1.5,0-2.7,0.5-3.4,1.3c-0.7,0.9-1,2-1,3.4c0,3.3,1.4,4.9,4.4,4.9c1.4,0,2.6-0.5,3.4-1.3c0.4-0.5,0.6-1,0.8-1.4
				c0.2-0.6,0.2-1.2,0.2-2C394.6,291.3,393.2,289.7,390.3,289.7z"/>
			<path class="st11" d="M412.8,295v4.6c0,0.2,0,0.4,0.1,0.6h-2.5c0.1-0.1,0.1-0.3,0.1-0.6v-10c0-0.2,0-0.4-0.1-0.5h4.2
				c1,0,1.8,0.2,2.5,0.5c0.6,0.3,1,0.6,1.3,1.1c0.3,0.5,0.5,1,0.5,1.5c0,1.2-0.8,2.1-2.2,2.5c-0.4,0.1-1,0.2-1.5,0.3l4.5,4.8
				c0.2,0.2,0.4,0.4,0.6,0.5h-3.1c-0.1-0.2-0.2-0.3-0.3-0.5L412.8,295z M412.8,294.3h1.1c0.7,0,1.2-0.1,1.6-0.4
				c0.8-0.4,1.1-1.1,1.1-1.8s-0.3-1.3-1-1.8c-0.5-0.3-1.1-0.5-1.9-0.5h-1L412.8,294.3L412.8,294.3z"/>
			<path class="st11" d="M430.8,289h10.1v1c-0.3-0.1-0.6-0.1-0.9-0.1h-3v9.6c0,0.2,0,0.4,0.1,0.6h-2.5c0.1-0.2,0.1-0.4,0.1-0.6v-9.6
				h-3c-0.3,0-0.6,0-0.9,0.1L430.8,289L430.8,289z"/>
			<path class="st11" d="M453,289h2.5c-0.1,0.1-0.1,0.3-0.1,0.5v10c0,0.2,0,0.4,0.1,0.6H453c0.1-0.2,0.1-0.4,0.1-0.6v-10
				C453.1,289.3,453,289.1,453,289z"/>
			<path class="st11" d="M470.7,296.6l-1.3,3c-0.1,0.1-0.1,0.3-0.1,0.5H468c0.1-0.2,0.2-0.3,0.3-0.5l4.5-10.2
				c0.1-0.1,0.1-0.3,0.1-0.4h2c0,0.1,0,0.2,0.1,0.4l4.7,10.3c0.1,0.1,0.2,0.3,0.3,0.5h-2.7c0-0.2,0-0.3-0.1-0.5l-1.3-3L470.7,296.6
				L470.7,296.6z M471.1,295.8h4.4l-2.2-5L471.1,295.8z"/>
		</g>
		<rect id="banda" x="364.3" y="282.1" class="st12" width="115.5" height="2.3"/>
		<g id="iso">
			<rect x="405" y="191.6" class="st12" width="6.8" height="86"/>
			<rect x="432.3" y="191.8" class="st12" width="6.5" height="85.3"/>
			<rect x="414" y="191.6" class="st12" width="6.6" height="85.8"/>
			<rect x="422.8" y="191.6" class="st12" width="7.2" height="85.8"/>
			<path class="st12" d="M458.4,234.7c-1.4-5.5-8.1-9-17.3-10v2.5c6.7,1,11.4,3.5,12.5,7.6c2,7.8-10.8,17.7-28.6,22.3
				c-17.7,4.6-33.8,2-35.8-5.7c-1.3-5.3,4.1-11.6,13.4-16.6v-2.6c-12.1,6-19.5,14.4-17.6,21.5c2.5,9.6,20.9,13.1,41.1,7.9
				C446.5,256.3,460.9,244.3,458.4,234.7z"/>
		</g>
	</g>
</g>
</svg>
